{
.appVersion = "3436";
.formatVersion = 3;
DisplayStrings = (
"HOHOHO
HAHHAAH",
"Ї",
"Т",
"ABSCDEFGHXHHIHOSHSHOSO SHSHS QWNXPIPSDILSDLJSLDJSYIYYIY
AZXVBNMJHGSF
pqipqia¥   ioP3eEC P3Eh×uNK¶~a: 
b∂∞;:A/backslash ∫A%R@&¶§©®™°|¦AB†‡",
U,
"9",
"−",
"/K.ss01",
e,
c,
t,
"—",
"¶",
"€",
"¥",
j,
"л",
"м"
);
axes = (
{
name = Weight;
tag = wght;
}
);
date = "2018-10-03 00:58:32 +0000";
familyName = Omokoroa;
fontMaster = (
{
axesValues = (
68
);
iconName = Light;
id = "E5DC9139-DBE8-45F6-BCD0-0641ED917C2C";
metricValues = (
{
pos = 900;
},
{
pos = 800;
},
{
pos = 500;
},
{
},
{
pos = -250;
},
{
}
);
name = Light;
userData = {
GSExtrudeAngle = 30;
GSExtrudeOffset = 15;
GSOffsetHorizontal = 15;
GSOffsetKeepCompatible = 1;
GSOffsetVertical = 10;
};
},
{
axesValues = (
108
);
id = "2F0BCB80-3430-4FA1-A4A3-7C385E8DAA98";
metricValues = (
{
pos = 900;
},
{
pos = 800;
},
{
pos = 500;
},
{
},
{
pos = -250;
},
{
}
);
name = Medium;
userData = {
GSExtrudeAngle = 30;
GSExtrudeOffset = 15;
};
},
{
axesValues = (
148
);
guides = (
{
pos = (260,267);
}
);
id = m01;
metricValues = (
{
pos = 900;
},
{
pos = 800;
},
{
pos = 500;
},
{
},
{
pos = -250;
},
{
}
);
name = ExtraBold;
},
{
axesValues = (
168
);
id = "DFBD2966-8600-4091-87AD-36DB30ECE1CF";
metricValues = (
{
pos = 900;
},
{
pos = 800;
},
{
pos = 500;
},
{
},
{
pos = -250;
},
{
}
);
name = Black;
}
);
glyphs = (
{
color = 4;
glyphname = A;
lastChange = "2026-06-29 01:51:39 +0000";
layers = (
{
anchors = (
{
name = bottom;
pos = (439,0);
},
{
name = ogonek;
pos = (820,10);
},
{
name = top;
pos = (446,800);
}
);
hints = (
{
name = _corner.leftserif;
options = 1;
origin = (1,2);
scale = (-1,1);
type = Corner;
},
{
name = _corner.leftserif;
origin = (1,1);
type = Corner;
},
{
name = _corner.leftserif;
origin = (1,5);
type = Corner;
},
{
name = _corner.leftserif;
options = 1;
origin = (1,6);
scale = (-1,1);
type = Corner;
}
);
layerId = "E5DC9139-DBE8-45F6-BCD0-0641ED917C2C";
metricLeft = "=H-60";
metricRight = "=H-60";
shapes = (
{
closed = 1;
nodes = (
(416,704,l),
(567,263,l),
(255,263,l)
);
},
{
closed = 1;
nodes = (
(438,800,l),
(146,0,l),
(158,0,l),
(251,253,l),
(570,253,l),
(657,0,l),
(728,0,l),
(451,800,l)
);
}
);
width = 875;
},
{
anchors = (
{
name = bottom;
pos = (429,0);
},
{
name = ogonek;
pos = (753,10);
},
{
name = top;
pos = (429,800);
}
);
guides = (
{
angle = 70.9308;
pos = (205,137);
}
);
hints = (
{
name = _corner.leftserif;
options = 1;
origin = (1,2);
scale = (-1,1);
type = Corner;
},
{
name = _corner.leftserif;
origin = (1,1);
type = Corner;
},
{
name = _corner.leftserif;
origin = (1,5);
type = Corner;
},
{
name = _corner.leftserif;
options = 1;
origin = (1,6);
scale = (-1,1);
type = Corner;
}
);
layerId = "2F0BCB80-3430-4FA1-A4A3-7C385E8DAA98";
metricLeft = "=H-60";
metricRight = "=H-60";
shapes = (
{
closed = 1;
nodes = (
(390,674,l),
(524,273,l),
(252,273,l)
);
},
{
closed = 1;
nodes = (
(416,800,l),
(140,0,l),
(158,0,l),
(247,258,l),
(529,258,l),
(613,0,l),
(722,0,l),
(446,800,l)
);
}
);
width = 862;
},
{
anchors = (
{
name = bottom;
pos = (414,0);
},
{
name = ogonek;
pos = (788,10);
},
{
name = top;
pos = (414,800);
}
);
guides = (
{
angle = 72.2788;
pos = (193,133);
},
{
angle = 106.7388;
pos = (527,133);
}
);
hints = (
{
horizontal = 1;
place = (266,17);
type = Stem;
},
{
horizontal = 1;
place = (0,18);
type = Stem;
},
{
place = (40,737);
type = Stem;
},
{
name = _corner.leftserif;
origin = (1,5);
type = Corner;
},
{
name = _corner.leftserif;
options = 1;
origin = (1,6);
scale = (-1,1);
type = Corner;
},
{
name = _corner.leftserif;
options = 1;
origin = (1,2);
scale = (-1,1);
type = Corner;
},
{
name = _corner.leftserif;
origin = (1,1);
type = Corner;
}
);
layerId = m01;
metricLeft = "=H-60";
metricRight = "=H-60";
shapes = (
{
closed = 1;
nodes = (
(359,661,l),
(481,283,l),
(241,283,l)
);
},
{
closed = 1;
nodes = (
(385,800,l),
(127,0,l),
(150,0,l),
(234,263,l),
(488,263,l),
(567,0,l),
(710,0,l),
(437,800,l)
);
}
);
width = 836;
},
{
anchors = (
{
name = bottom;
pos = (406,0);
},
{
name = ogonek;
pos = (792,10);
},
{
name = top;
pos = (405,800);
}
);
hints = (
{
name = _corner.leftserif;
options = 1;
origin = (1,2);
scale = (-1,1);
type = Corner;
},
{
name = _corner.leftserif;
origin = (1,1);
type = Corner;
},
{
name = _corner.leftserif;
origin = (1,5);
type = Corner;
},
{
name = _corner.leftserif;
options = 1;
origin = (1,6);
scale = (-1,1);
type = Corner;
}
);
layerId = "DFBD2966-8600-4091-87AD-36DB30ECE1CF";
metricLeft = "=H-60";
metricRight = "=H-60";
shapes = (
{
closed = 1;
nodes = (
(343,652,l),
(459,288,l),
(236,288,l)
);
},
{
closed = 1;
nodes = (
(370,800,l),
(120,0,l),
(146,0,l),
(228,266,l),
(467,266,l),
(543,0,l),
(704,0,l),
(432,800,l)
);
}
);
width = 823;
}
);
metricLeft = "=100";
metricRight = "=100";
unicode = 65;
},
{
color = 4;
glyphname = B;
lastChange = "2026-06-29 01:51:59 +0000";
layers = (
{
anchors = (
{
name = bottom;
pos = (398,0);
},
{
name = center;
pos = (239,240);
},
{
name = top;
pos = (398,800);
}
);
layerId = "E5DC9139-DBE8-45F6-BCD0-0641ED917C2C";
metricLeft = "=H";
metricRight = "=A+20";
shapes = (
{
closed = 1;
nodes = (
(379,0,ls),
(569,0,o),
(675,78,o),
(675,218,cs),
(675,351,o),
(569,425,o),
(379,425,cs),
(262,425,l),
(262,417,l),
(378,417,ls),
(512,417,o),
(588,346,o),
(590,218,cs),
(590,85,o),
(514,10,o),
(379,10,cs),
(120,10,l),
(120,0,l)
);
},
{
closed = 1;
nodes = (
(262,2,l),
(262,798,l),
(194,798,l),
(194,2,l)
);
},
{
closed = 1;
nodes = (
(379,417,ls),
(550,417,o),
(645,484,o),
(645,604,cs),
(645,730,o),
(550,800,o),
(379,800,cs),
(120,800,l),
(120,789,l),
(379,789,ls),
(498,789,o),
(565,718,o),
(565,592,cs),
(562,485,o),
(495,425,o),
(378,425,cs),
(262,425,l),
(262,417,l)
);
}
);
width = 755;
},
{
anchors = (
{
name = bottom;
pos = (398,0);
},
{
name = center;
pos = (237,240);
},
{
name = top;
pos = (398,800);
}
);
layerId = "2F0BCB80-3430-4FA1-A4A3-7C385E8DAA98";
metricLeft = "=H";
metricRight = "=A+20";
shapes = (
{
closed = 1;
nodes = (
(385,0,ls),
(583,0,o),
(681,72,o),
(681,218,cs),
(681,357,o),
(583,426,o),
(385,426,cs),
(268,426,l),
(268,416,l),
(384,416,ls),
(510,416,o),
(573,350,o),
(576,218,cs),
(576,82,o),
(513,15,o),
(385,15,cs),
(115,15,l),
(115,0,l)
);
},
{
closed = 1;
nodes = (
(298,2,l),
(298,798,l),
(190,798,l),
(190,2,l)
);
},
{
closed = 1;
nodes = (
(385,416,ls),
(563,416,o),
(651,478,o),
(651,604,cs),
(651,735,o),
(563,800,o),
(385,800,cs),
(115,800,l),
(115,785,l),
(385,785,ls),
(496,785,o),
(551,721,o),
(551,592,cs),
(548,481,o),
(493,426,o),
(384,426,cs),
(268,426,l),
(268,416,l)
);
}
);
width = 756;
},
{
anchors = (
{
name = bottom;
pos = (397,0);
},
{
name = center;
pos = (236,240);
},
{
name = top;
pos = (397,800);
}
);
hints = (
{
horizontal = 1;
place = (784,16);
type = Stem;
},
{
horizontal = 1;
place = (416,11);
type = Stem;
},
{
horizontal = 1;
place = (0,18);
type = Stem;
},
{
place = (478,125);
type = Stem;
},
{
place = (453,120);
type = Stem;
},
{
place = (190,55);
type = Stem;
},
{
place = (107,138);
type = Stem;
}
);
layerId = m01;
metricLeft = "=H";
metricRight = "=A+20";
shapes = (
{
closed = 1;
nodes = (
(382,0,ls),
(593,0,o),
(698,72,o),
(698,218,cs),
(698,358,o),
(593,427,o),
(382,427,cs),
(265,427,l),
(265,416,l),
(381,416,ls),
(493,416,o),
(550,350,o),
(553,218,cs),
(553,84,o),
(490,18,o),
(362,18,cs),
(105,18,l),
(105,0,l)
);
},
{
closed = 1;
nodes = (
(320,2,l),
(320,798,l),
(172,798,l),
(172,2,l)
);
},
{
closed = 1;
nodes = (
(362,416,ls),
(567,416,o),
(668,478,o),
(668,604,cs),
(668,735,o),
(573,800,o),
(382,800,cs),
(105,800,l),
(105,784,l),
(362,784,ls),
(473,784,o),
(528,720,o),
(528,592,cs),
(525,482,o),
(470,427,o),
(361,427,cs),
(265,427,l),
(265,416,l)
);
}
);
width = 763;
},
{
anchors = (
{
name = bottom;
pos = (396,0);
},
{
name = center;
pos = (234,240);
},
{
name = top;
pos = (396,800);
}
);
hints = (
{
horizontal = 1;
place = (1078,22);
type = Stem;
},
{
horizontal = 1;
place = (572,15);
type = Stem;
},
{
horizontal = 1;
place = (0,25);
type = Stem;
},
{
place = (657,172);
type = Stem;
},
{
place = (623,165);
type = Stem;
},
{
place = (261,76);
type = Stem;
},
{
place = (147,190);
type = Stem;
}
);
layerId = "DFBD2966-8600-4091-87AD-36DB30ECE1CF";
metricLeft = "=H";
metricRight = "=A+20";
shapes = (
{
closed = 1;
nodes = (
(381,0,ls),
(598,0,o),
(704,71,o),
(704,218,cs),
(704,359,o),
(598,428,o),
(381,428,cs),
(264,428,l),
(264,416,l),
(380,416,ls),
(485,416,o),
(539,350,o),
(542,218,cs),
(542,84,o),
(480,20,o),
(353,20,cs),
(100,20,l),
(100,0,l)
);
},
{
closed = 1;
nodes = (
(332,2,l),
(332,798,l),
(164,798,l),
(164,2,l)
);
},
{
closed = 1;
nodes = (
(353,416,ls),
(569,416,o),
(674,477,o),
(674,604,cs),
(674,736,o),
(577,800,o),
(381,800,cs),
(100,800,l),
(100,783,l),
(353,783,ls),
(463,783,o),
(517,720,o),
(517,592,cs),
(514,482,o),
(460,428,o),
(352,428,cs),
(264,428,l),
(264,416,l)
);
}
);
width = 764;
}
);
unicode = 66;
},
{
color = 4;
glyphname = C;
lastChange = "2026-06-29 01:53:56 +0000";
layers = (
{
anchors = (
{
name = bottom;
pos = (419,0);
},
{
name = top;
pos = (419,800);
}
);
layerId = "E5DC9139-DBE8-45F6-BCD0-0641ED917C2C";
metricLeft = "=O";
metricRight = "=O-20";
shapes = (
{
closed = 1;
nodes = (
(617,-6,o),
(736,87,o),
(735,220,c),
(725,220,l),
(725,93,o),
(610,4,o),
(447,4,cs),
(283,4,o),
(173,167,o),
(173,400,cs),
(173,633,o),
(283,796,o),
(447,796,cs),
(610,796,o),
(725,707,o),
(725,580,c),
(735,580,l),
(736,713,o),
(617,806,o),
(447,806,cs),
(243,806,o),
(100,638,o),
(100,400,cs),
(100,162,o),
(243,-6,o),
(447,-6,cs)
);
},
{
closed = 1;
nodes = (
(737,45,l),
(735,220,l),
(725,220,l),
(728,180,o),
(709,122,o),
(677,78,c),
(727,45,l)
);
},
{
closed = 1;
nodes = (
(735,580,l),
(737,755,l),
(727,755,l),
(677,722,l),
(709,678,o),
(728,620,o),
(725,580,c)
);
}
);
width = 817;
},
{
anchors = (
{
name = bottom;
pos = (419,0);
},
{
name = top;
pos = (419,800);
}
);
layerId = "2F0BCB80-3430-4FA1-A4A3-7C385E8DAA98";
metricLeft = "=O";
metricRight = "=O-20";
shapes = (
{
closed = 1;
nodes = (
(617,-6,o),
(736,87,o),
(735,220,c),
(720,220,l),
(720,96,o),
(607,9,o),
(447,9,cs),
(301,9,o),
(203,168,o),
(203,400,cs),
(203,632,o),
(301,791,o),
(447,791,cs),
(607,791,o),
(720,704,o),
(720,580,c),
(735,580,l),
(736,713,o),
(617,806,o),
(447,806,cs),
(237,806,o),
(90,638,o),
(90,400,cs),
(90,162,o),
(237,-6,o),
(447,-6,cs)
);
},
{
closed = 1;
nodes = (
(738,30,l),
(735,220,l),
(720,220,l),
(724,180,o),
(702,119,o),
(667,71,c),
(723,30,l)
);
},
{
closed = 1;
nodes = (
(735,580,l),
(738,770,l),
(723,770,l),
(667,729,l),
(702,681,o),
(724,620,o),
(720,580,c)
);
}
);
width = 808;
},
{
anchors = (
{
name = bottom;
pos = (435,0);
},
{
name = top;
pos = (435,800);
}
);
hints = (
{
horizontal = 1;
place = (789,17);
type = Stem;
},
{
horizontal = 1;
place = (-6,18);
type = Stem;
},
{
place = (658,19.5);
type = Stem;
},
{
place = (658,17);
type = Stem;
},
{
place = (40,148);
type = Stem;
}
);
layerId = m01;
metricLeft = "=O";
metricRight = "=O-5";
shapes = (
{
closed = 1;
nodes = (
(632,-6,o),
(755,79,o),
(750,220,c),
(733,220,l),
(739,88,o),
(627,2,o),
(462,12,cs),
(335,19,o),
(246,179,o),
(246,400,cs),
(246,626,o),
(335,786,o),
(462,789,cs),
(627,792,o),
(739,706,o),
(733,580,c),
(750,580,l),
(751,713,o),
(632,806,o),
(462,806,cs),
(241,806,o),
(75,643,o),
(75,400,cs),
(75,157,o),
(241,-6,o),
(462,-6,cs)
);
},
{
closed = 1;
nodes = (
(755,0,l),
(750,220,l),
(733,219,l),
(740,149,o),
(721,115,o),
(666,55,c),
(739,0,l)
);
},
{
closed = 1;
nodes = (
(750,580,l),
(755,800,l),
(737,800,l),
(664,745,l),
(716,688,o),
(740,650,o),
(733,580,c)
);
}
);
width = 825;
},
{
anchors = (
{
name = bottom;
pos = (458,0);
},
{
name = top;
pos = (458,800);
}
);
hints = (
{
horizontal = 1;
place = (1085,23);
type = Stem;
},
{
horizontal = 1;
place = (-8,25);
type = Stem;
},
{
place = (905,27);
type = Stem;
},
{
place = (905,23);
type = Stem;
},
{
place = (55,204);
type = Stem;
}
);
layerId = "DFBD2966-8600-4091-87AD-36DB30ECE1CF";
metricLeft = "=O";
metricRight = "=O";
shapes = (
{
closed = 1;
nodes = (
(655,-6,o),
(779,77,o),
(773,220,c),
(754,220,l),
(762,86,o),
(652,0,o),
(485,14,cs),
(368,23,o),
(283,183,o),
(283,400,cs),
(283,624,o),
(368,784,o),
(485,788,cs),
(650,792,o),
(762,706,o),
(754,580,c),
(773,580,l),
(774,713,o),
(655,806,o),
(485,806,cs),
(259,806,o),
(85,645,o),
(85,400,cs),
(85,155,o),
(259,-6,o),
(485,-6,cs)
);
},
{
closed = 1;
nodes = (
(779,-13,l),
(773,220,l),
(754,219,l),
(762,138,o),
(744,113,o),
(681,48,c),
(762,-13,l)
);
},
{
closed = 1;
nodes = (
(773,580,l),
(779,813,l),
(759,813,l),
(679,752,l),
(737,692,o),
(762,660,o),
(754,580,c)
);
}
);
width = 849;
}
);
unicode = 67;
},
{
color = 4;
glyphname = D;
lastChange = "2026-06-29 01:53:23 +0000";
layers = (
{
anchors = (
{
name = bottom;
pos = (452,0);
},
{
name = center;
pos = (261,400);
},
{
name = top;
pos = (452,800);
}
);
layerId = "E5DC9139-DBE8-45F6-BCD0-0641ED917C2C";
metricLeft = "=H";
metricRight = "=O";
shapes = (
{
closed = 1;
nodes = (
(436,0,ls),
(659,0,o),
(794,173,o),
(794,396,cs),
(794,619,o),
(659,800,o),
(436,800,cs),
(120,800,l),
(120,790,l),
(426,790,ls),
(630,790,o),
(726,579,o),
(726,396,cs),
(726,212,o),
(630,10,o),
(426,10,cs),
(120,10,l),
(120,0,l)
);
},
{
closed = 1;
nodes = (
(268,8,l),
(268,794,l),
(200,794,l),
(200,8,l)
);
}
);
width = 894;
},
{
anchors = (
{
name = bottom;
pos = (447,0);
},
{
name = center;
pos = (256,400);
},
{
name = top;
pos = (447,800);
}
);
layerId = "2F0BCB80-3430-4FA1-A4A3-7C385E8DAA98";
metricLeft = "=H";
metricRight = "=O";
shapes = (
{
closed = 1;
nodes = (
(431,0,ls),
(641,0,o),
(788,163,o),
(788,396,cs),
(788,633,o),
(641,800,o),
(431,800,cs),
(115,800,l),
(115,785,l),
(431,785,ls),
(577,785,o),
(680,624,o),
(680,396,cs),
(680,172,o),
(573,15,o),
(421,15,cs),
(115,15,l),
(115,0,l)
);
},
{
closed = 1;
nodes = (
(303,8,l),
(303,794,l),
(195,794,l),
(195,8,l)
);
}
);
width = 878;
},
{
anchors = (
{
name = bottom;
pos = (436,0);
},
{
name = center;
pos = (246,400);
},
{
name = top;
pos = (436,800);
}
);
hints = (
{
horizontal = 1;
place = (783,17);
type = Stem;
},
{
horizontal = 1;
place = (783,11);
type = Stem;
},
{
horizontal = 1;
place = (8,10);
type = Stem;
},
{
horizontal = 1;
place = (0,18);
type = Stem;
},
{
place = (575,147);
type = Stem;
},
{
place = (125,148);
type = Stem;
}
);
layerId = m01;
metricLeft = "=H";
metricRight = "=O";
shapes = (
{
closed = 1;
nodes = (
(422,0,ls),
(630,0,o),
(777,163,o),
(777,396,cs),
(777,633,o),
(630,800,o),
(422,800,cs),
(105,800,l),
(105,783,l),
(437,783,ls),
(550,783,o),
(630,623,o),
(630,396,cs),
(630,174,o),
(536,18,o),
(402,18,cs),
(105,18,l),
(105,0,l)
);
},
{
closed = 1;
nodes = (
(328,8,l),
(328,794,l),
(180,794,l),
(180,8,l)
);
}
);
width = 852;
},
{
anchors = (
{
name = bottom;
pos = (430,0);
},
{
name = center;
pos = (241,400);
},
{
name = top;
pos = (430,800);
}
);
hints = (
{
horizontal = 1;
place = (1077,23);
type = Stem;
},
{
horizontal = 1;
place = (1077,15);
type = Stem;
},
{
horizontal = 1;
place = (11,14);
type = Stem;
},
{
horizontal = 1;
place = (0,25);
type = Stem;
},
{
place = (791,202);
type = Stem;
},
{
place = (172,204);
type = Stem;
}
);
layerId = "DFBD2966-8600-4091-87AD-36DB30ECE1CF";
metricLeft = "=H";
metricRight = "=O";
shapes = (
{
closed = 1;
nodes = (
(417,0,ls),
(623,0,o),
(771,162,o),
(771,396,cs),
(771,635,o),
(623,800,o),
(417,800,cs),
(100,800,l),
(100,782,l),
(439,782,ls),
(532,782,o),
(605,628,o),
(605,396,cs),
(605,170,o),
(514,20,o),
(393,20,cs),
(100,20,l),
(100,0,l)
);
},
{
closed = 1;
nodes = (
(341,8,l),
(341,794,l),
(173,794,l),
(173,8,l)
);
}
);
width = 841;
}
);
unicode = 68;
},
{
color = 4;
glyphname = E;
lastChange = "2026-06-29 01:54:23 +0000";
layers = (
{
anchors = (
{
name = bottom;
pos = (383,0);
},
{
name = ogonek;
pos = (673,10);
},
{
name = top;
pos = (383,800);
},
{
name = topleft;
pos = (40,800);
}
);
hints = (
{
name = _corner.leftserif;
origin = (0,3);
type = Corner;
},
{
name = _corner.leftserif;
options = 1;
origin = (0,2);
scale = (-1,1);
type = Corner;
}
);
layerId = "E5DC9139-DBE8-45F6-BCD0-0641ED917C2C";
metricLeft = "=H";
metricRight = "=H-20";
shapes = (
{
closed = 1;
nodes = (
(278,0,l),
(278,800,l),
(210,800,l),
(210,0,l)
);
},
{
closed = 1;
nodes = (
(646,0,l),
(646,10,l),
(235,10,l),
(235,0,l)
);
},
{
closed = 1;
nodes = (
(646,10,l),
(646,161,l),
(631,84,o),
(599,10,o),
(533,10,c)
);
},
{
closed = 1;
nodes = (
(464,320,l),
(464,480,l),
(457,480,l),
(445,447,o),
(417,405,o),
(379,405,cs),
(244,405,l),
(244,395,l),
(379,395,ls),
(417,395,o),
(445,353,o),
(457,320,c)
);
},
{
closed = 1;
nodes = (
(646,790,l),
(646,800,l),
(236,800,l),
(236,790,l)
);
},
{
closed = 1;
nodes = (
(646,790,l),
(533,790,l),
(599,790,o),
(631,716,o),
(646,639,c)
);
}
);
width = 746;
},
{
anchors = (
{
name = bottom;
pos = (378,0);
},
{
name = ogonek;
pos = (668,10);
},
{
name = top;
pos = (378,800);
},
{
name = topleft;
pos = (35,800);
}
);
hints = (
{
name = _corner.leftserif;
origin = (0,3);
type = Corner;
},
{
name = _corner.leftserif;
options = 1;
origin = (0,2);
scale = (-1,1);
type = Corner;
}
);
layerId = "2F0BCB80-3430-4FA1-A4A3-7C385E8DAA98";
metricLeft = "=H";
metricRight = "=H-20";
shapes = (
{
closed = 1;
nodes = (
(313,0,l),
(313,800,l),
(205,800,l),
(205,0,l)
);
},
{
closed = 1;
nodes = (
(641,0,l),
(641,15,l),
(245,15,l),
(245,0,l)
);
},
{
closed = 1;
nodes = (
(641,15,l),
(641,193,l),
(622,102,o),
(585,15,o),
(496,15,c)
);
},
{
closed = 1;
nodes = (
(479,304,l),
(479,500,l),
(471,500,l),
(456,460,o),
(423,410,o),
(376,410,cs),
(259,410,l),
(259,395,l),
(376,395,ls),
(423,395,o),
(456,344,o),
(471,304,c)
);
},
{
closed = 1;
nodes = (
(641,785,l),
(641,800,l),
(233,800,l),
(233,785,l)
);
},
{
closed = 1;
nodes = (
(641,785,l),
(496,785,l),
(585,785,o),
(622,698,o),
(641,607,c)
);
}
);
width = 736;
},
{
anchors = (
{
name = bottom;
pos = (367,0);
},
{
name = ogonek;
pos = (657,10);
},
{
name = top;
pos = (367,800);
},
{
name = topleft;
pos = (25,800);
}
);
hints = (
{
horizontal = 1;
place = (783,17);
type = Stem;
},
{
horizontal = 1;
place = (413,105);
type = Stem;
},
{
horizontal = 1;
place = (395,18);
type = Stem;
},
{
horizontal = 1;
place = (288,107);
type = Stem;
},
{
horizontal = 1;
place = (0,18);
type = Stem;
},
{
place = (401,9);
type = Stem;
},
{
place = (190,64);
type = Stem;
},
{
place = (106,148);
type = Stem;
},
{
name = _corner.leftserif;
options = 1;
origin = (0,2);
scale = (-1,1);
type = Corner;
},
{
name = _corner.leftserif;
origin = (0,3);
type = Corner;
}
);
layerId = m01;
metricLeft = "=H";
metricRight = "=H-20";
shapes = (
{
closed = 1;
nodes = (
(341,0,l),
(341,800,l),
(193,800,l),
(193,0,l)
);
},
{
closed = 1;
nodes = (
(629,0,l),
(629,18,l),
(237,18,l),
(237,0,l)
);
},
{
closed = 1;
nodes = (
(629,18,l),
(629,221,l),
(606,117,o),
(565,18,o),
(458,18,c)
);
},
{
closed = 1;
nodes = (
(497,288,l),
(497,518,l),
(488,518,l),
(470,470,o),
(432,413,o),
(375,413,cs),
(277,413,l),
(277,395,l),
(375,395,ls),
(432,395,o),
(470,336,o),
(488,288,c)
);
},
{
closed = 1;
nodes = (
(629,783,l),
(629,800,l),
(272,800,l),
(272,783,l)
);
},
{
closed = 1;
nodes = (
(629,783,l),
(458,783,l),
(565,783,o),
(606,683,o),
(629,579,c)
);
}
);
width = 714;
},
{
anchors = (
{
name = bottom;
pos = (361,0);
},
{
name = ogonek;
pos = (651,10);
},
{
name = top;
pos = (361,800);
},
{
name = topleft;
pos = (20,800);
}
);
hints = (
{
name = _corner.leftserif;
origin = (0,3);
type = Corner;
},
{
name = _corner.leftserif;
options = 1;
origin = (0,2);
scale = (-1,1);
type = Corner;
}
);
layerId = "DFBD2966-8600-4091-87AD-36DB30ECE1CF";
metricLeft = "=H";
metricRight = "=H-15";
shapes = (
{
closed = 1;
nodes = (
(355,0,l),
(355,800,l),
(187,800,l),
(187,0,l)
);
},
{
closed = 1;
nodes = (
(623,0,l),
(623,20,l),
(234,20,l),
(234,0,l)
);
},
{
closed = 1;
nodes = (
(623,20,l),
(623,236,l),
(598,125,o),
(555,20,o),
(438,20,c)
);
},
{
closed = 1;
nodes = (
(505,280,l),
(505,527,l),
(495,527,l),
(476,476,o),
(435,415,o),
(373,415,cs),
(285,415,l),
(285,395,l),
(373,395,ls),
(435,395,o),
(475,333,o),
(495,280,c)
);
},
{
closed = 1;
nodes = (
(623,782,l),
(623,800,l),
(285,800,l),
(285,782,l)
);
},
{
closed = 1;
nodes = (
(623,782,l),
(438,782,l),
(555,782,o),
(598,676,o),
(623,565,c)
);
}
);
width = 708;
}
);
metricLeft = "=100";
metricRight = "=100";
unicode = 69;
},
{
color = 4;
glyphname = F;
lastChange = "2026-06-29 01:54:34 +0000";
layers = (
{
anchors = (
{
name = bottom;
pos = (383,0);
},
{
name = top;
pos = (383,800);
}
);
hints = (
{
name = _corner.leftserif;
options = 1;
origin = (0,0);
scale = (-1,1);
type = Corner;
},
{
name = _corner.leftserif;
origin = (0,3);
type = Corner;
}
);
layerId = "E5DC9139-DBE8-45F6-BCD0-0641ED917C2C";
metricLeft = "=H";
shapes = (
{
closed = 1;
nodes = (
(278,0,l),
(278,800,l),
(210,800,l),
(210,0,l)
);
},
{
closed = 1;
nodes = (
(474,320,l),
(474,480,l),
(467,480,l),
(455,447,o),
(427,405,o),
(389,405,cs),
(244,405,l),
(244,395,l),
(389,395,ls),
(427,395,o),
(455,353,o),
(467,320,c)
);
},
{
closed = 1;
nodes = (
(676,790,l),
(676,800,l),
(144,800,l),
(144,790,l)
);
},
{
closed = 1;
nodes = (
(676,790,l),
(563,790,l),
(629,790,o),
(661,716,o),
(676,639,c)
);
}
);
width = 776;
},
{
anchors = (
{
name = bottom;
pos = (393,0);
},
{
name = top;
pos = (393,800);
}
);
hints = (
{
name = _corner.leftserif;
options = 1;
origin = (0,0);
scale = (-1,1);
type = Corner;
},
{
name = _corner.leftserif;
origin = (0,3);
type = Corner;
}
);
layerId = "2F0BCB80-3430-4FA1-A4A3-7C385E8DAA98";
metricLeft = "=H";
shapes = (
{
closed = 1;
nodes = (
(313,0,l),
(313,800,l),
(205,800,l),
(205,0,l)
);
},
{
closed = 1;
nodes = (
(509,304,l),
(509,500,l),
(501,500,l),
(486,460,o),
(453,410,o),
(406,410,cs),
(259,410,l),
(259,395,l),
(406,395,ls),
(453,395,o),
(486,344,o),
(501,304,c)
);
},
{
closed = 1;
nodes = (
(671,785,l),
(671,800,l),
(139,800,l),
(139,785,l)
);
},
{
closed = 1;
nodes = (
(671,785,l),
(526,785,l),
(615,785,o),
(652,698,o),
(671,607,c)
);
}
);
width = 771;
},
{
anchors = (
{
name = bottom;
pos = (382,0);
},
{
name = top;
pos = (382,800);
}
);
hints = (
{
horizontal = 1;
place = (783,17);
type = Stem;
},
{
horizontal = 1;
place = (413,105);
type = Stem;
},
{
horizontal = 1;
place = (395,18);
type = Stem;
},
{
horizontal = 1;
place = (288,107);
type = Stem;
},
{
horizontal = 1;
place = (0,18);
type = Stem;
},
{
place = (401,9);
type = Stem;
},
{
place = (190,64);
type = Stem;
},
{
place = (106,148);
type = Stem;
},
{
name = _corner.leftserif;
options = 1;
origin = (0,0);
scale = (-1,1);
type = Corner;
},
{
name = _corner.leftserif;
origin = (0,3);
type = Corner;
}
);
layerId = m01;
metricLeft = "=H";
metricRight = "=H-40";
shapes = (
{
closed = 1;
nodes = (
(341,0,l),
(341,800,l),
(193,800,l),
(193,0,l)
);
},
{
closed = 1;
nodes = (
(517,288,l),
(517,518,l),
(508,518,l),
(490,470,o),
(452,413,o),
(395,413,cs),
(277,413,l),
(277,395,l),
(395,395,ls),
(452,395,o),
(490,336,o),
(508,288,c)
);
},
{
closed = 1;
nodes = (
(659,783,l),
(659,800,l),
(127,800,l),
(127,783,l)
);
},
{
closed = 1;
nodes = (
(659,783,l),
(488,783,l),
(595,783,o),
(636,683,o),
(659,579,c)
);
}
);
width = 724;
},
{
anchors = (
{
name = bottom;
pos = (378,0);
},
{
name = top;
pos = (378,800);
}
);
hints = (
{
name = _corner.leftserif;
options = 1;
origin = (0,0);
scale = (-1,1);
type = Corner;
},
{
name = _corner.leftserif;
origin = (0,3);
type = Corner;
}
);
layerId = "DFBD2966-8600-4091-87AD-36DB30ECE1CF";
metricLeft = "=H";
metricRight = "=H-15";
shapes = (
{
closed = 1;
nodes = (
(355,0,l),
(355,800,l),
(187,800,l),
(187,0,l)
);
},
{
closed = 1;
nodes = (
(523,280,l),
(523,527,l),
(514,527,l),
(495,476,o),
(454,415,o),
(392,415,cs),
(285,415,l),
(285,395,l),
(392,395,ls),
(454,395,o),
(494,333,o),
(514,280,c)
);
},
{
closed = 1;
nodes = (
(653,782,l),
(653,800,l),
(121,800,l),
(121,782,l)
);
},
{
closed = 1;
nodes = (
(653,782,l),
(468,782,l),
(585,782,o),
(628,676,o),
(653,565,c)
);
}
);
width = 738;
}
);
metricLeft = "=H";
metricRight = "=100";
unicode = 70;
},
{
color = 4;
glyphname = G;
lastChange = "2026-06-29 01:55:36 +0000";
layers = (
{
anchors = (
{
name = bottom;
pos = (440,0);
},
{
name = top;
pos = (440,800);
}
);
layerId = "E5DC9139-DBE8-45F6-BCD0-0641ED917C2C";
metricLeft = "=O";
metricRight = "=O-20";
shapes = (
{
closed = 1;
nodes = (
(612,-6,o),
(732,78,o),
(735,215,cs),
(735,310,l),
(780,310,l),
(780,320,l),
(593,320,l),
(593,310,l),
(668,310,l),
(668,178,ls),
(666,85,o),
(609,4,o),
(447,4,cs),
(249,4,o),
(168,229,o),
(168,400,cs),
(168,571,o),
(239,796,o),
(447,796,cs),
(609,796,o),
(725,710,o),
(725,580,c),
(735,580,l),
(737,755,l),
(727,755,l),
(678,722,l),
(626,775,o),
(544,806,o),
(447,806,cs),
(225,806,o),
(100,626,o),
(100,400,cs),
(100,174,o),
(225,-6,o),
(447,-6,cs)
);
}
);
width = 860;
},
{
anchors = (
{
name = bottom;
pos = (435,0);
},
{
name = top;
pos = (435,800);
}
);
layerId = "2F0BCB80-3430-4FA1-A4A3-7C385E8DAA98";
metricLeft = "=O";
metricRight = "=O-20";
shapes = (
{
closed = 1;
nodes = (
(613,-6,o),
(732,72,o),
(735,215,cs),
(735,305,l),
(780,305,l),
(780,320,l),
(538,320,l),
(538,305,l),
(613,305,l),
(613,178,ls),
(613,73,o),
(573,9,o),
(437,9,cs),
(249,9,o),
(198,229,o),
(198,400,cs),
(198,571,o),
(249,791,o),
(437,791,cs),
(599,791,o),
(710,710,o),
(710,580,c),
(725,580,l),
(728,770,l),
(713,770,l),
(659,731,l),
(607,778,o),
(529,806,o),
(437,806,cs),
(215,806,o),
(90,626,o),
(90,400,cs),
(90,174,o),
(215,-6,o),
(437,-6,cs)
);
}
);
width = 850;
},
{
anchors = (
{
name = bottom;
pos = (427,0);
},
{
name = top;
pos = (427,800);
}
);
hints = (
{
horizontal = 1;
place = (789,17);
type = Stem;
},
{
horizontal = 1;
place = (303,17);
type = Stem;
},
{
horizontal = 1;
place = (-6,18);
type = Stem;
},
{
place = (658,19.5);
type = Stem;
},
{
place = (514,184);
type = Stem;
},
{
place = (40,148);
type = Stem;
}
);
layerId = m01;
metricLeft = "=O";
metricRight = "=O-30";
shapes = (
{
closed = 1;
nodes = (
(582,-6,o),
(723,56,o),
(723,215,cs),
(723,303,l),
(768,303,l),
(768,320,l),
(474,320,l),
(474,303,l),
(549,303,l),
(549,178,ls),
(553,53,o),
(494,12,o),
(422,12,cs),
(255,12,o),
(223,229,o),
(223,400,cs),
(223,571,o),
(244,789,o),
(422,789,cs),
(584,789,o),
(693,710,o),
(693,580,c),
(710,580,l),
(715,793,l),
(697,793,l),
(632,745,l),
(579,783,o),
(507,806,o),
(422,806,cs),
(200,806,o),
(75,626,o),
(75,400,cs),
(75,174,o),
(216,-6,o),
(422,-6,cs)
);
}
);
width = 813;
},
{
anchors = (
{
name = bottom;
pos = (440,0);
},
{
name = top;
pos = (440,800);
}
);
hints = (
{
horizontal = 1;
place = (1085,23);
type = Stem;
},
{
horizontal = 1;
place = (417,23);
type = Stem;
},
{
horizontal = 1;
place = (-8,25);
type = Stem;
},
{
place = (905,27);
type = Stem;
},
{
place = (707,253);
type = Stem;
},
{
place = (55,204);
type = Stem;
}
);
layerId = "DFBD2966-8600-4091-87AD-36DB30ECE1CF";
metricLeft = "=O";
metricRight = "=O-30";
shapes = (
{
closed = 1;
nodes = (
(588,-6,o),
(737,50,o),
(736,215,cs),
(736,302,l),
(781,302,l),
(781,320,l),
(460,320,l),
(460,302,l),
(535,302,l),
(535,178,ls),
(541,43,o),
(477,14,o),
(432,14,cs),
(274,14,o),
(253,229,o),
(253,400,cs),
(253,571,o),
(260,788,o),
(432,788,cs),
(594,788,o),
(702,710,o),
(702,580,c),
(720,580,l),
(726,804,l),
(706,804,l),
(637,751,l),
(582,786,o),
(514,806,o),
(432,806,cs),
(210,806,o),
(85,626,o),
(85,400,cs),
(85,174,o),
(232,-6,o),
(432,-6,cs)
);
}
);
width = 821;
}
);
unicode = 71;
},
{
color = 4;
glyphname = H;
lastChange = "2026-06-29 01:53:00 +0000";
layers = (
{
anchors = (
{
name = bottom;
pos = (504,0);
},
{
name = center;
pos = (504,640);
},
{
name = top;
pos = (504,800);
},
{
name = topleft;
pos = (30,800);
}
);
hints = (
{
name = _corner.leftserif;
options = 1;
origin = (0,0);
scale = (-1,1);
type = Corner;
},
{
name = _corner.leftserif;
origin = (0,3);
type = Corner;
},
{
name = _corner.leftserif;
options = 1;
origin = (1,0);
scale = (-1,1);
type = Corner;
},
{
name = _corner.leftserif;
origin = (1,3);
type = Corner;
},
{
name = _corner.leftserif;
origin = (0,1);
type = Corner;
},
{
name = _corner.leftserif;
options = 1;
origin = (0,2);
scale = (-1,1);
type = Corner;
},
{
name = _corner.leftserif;
origin = (1,1);
type = Corner;
},
{
name = _corner.leftserif;
options = 1;
origin = (1,2);
scale = (-1,1);
type = Corner;
}
);
layerId = "E5DC9139-DBE8-45F6-BCD0-0641ED917C2C";
metricLeft = "=120";
metricRight = "=120";
shapes = (
{
closed = 1;
nodes = (
(798,0,l),
(798,800,l),
(730,800,l),
(730,0,l)
);
},
{
closed = 1;
nodes = (
(278,0,l),
(278,800,l),
(210,800,l),
(210,0,l)
);
},
{
closed = 1;
nodes = (
(730,412,l),
(730,422,l),
(278,422,l),
(278,412,l)
);
}
);
width = 1008;
},
{
anchors = (
{
name = bottom;
pos = (495,0);
},
{
name = center;
pos = (495,640);
},
{
name = top;
pos = (495,800);
},
{
name = topleft;
pos = (37,800);
}
);
hints = (
{
name = _corner.leftserif;
origin = (0,1);
type = Corner;
},
{
name = _corner.leftserif;
options = 1;
origin = (0,2);
scale = (-1,1);
type = Corner;
},
{
name = _corner.leftserif;
origin = (1,1);
type = Corner;
},
{
name = _corner.leftserif;
options = 1;
origin = (1,2);
scale = (-1,1);
type = Corner;
},
{
name = _corner.leftserif;
options = 1;
origin = (0,0);
scale = (-1,1);
type = Corner;
},
{
name = _corner.leftserif;
origin = (0,3);
type = Corner;
},
{
name = _corner.leftserif;
options = 1;
origin = (1,0);
scale = (-1,1);
type = Corner;
},
{
name = _corner.leftserif;
origin = (1,3);
type = Corner;
}
);
layerId = "2F0BCB80-3430-4FA1-A4A3-7C385E8DAA98";
metricLeft = "=115";
metricRight = "=115";
shapes = (
{
closed = 1;
nodes = (
(813,0,l),
(813,800,l),
(705,800,l),
(705,0,l)
);
},
{
closed = 1;
nodes = (
(313,0,l),
(313,800,l),
(205,800,l),
(205,0,l)
);
},
{
closed = 1;
nodes = (
(715,409,l),
(715,424,l),
(303,424,l),
(303,409,l)
);
}
);
width = 1018;
},
{
anchors = (
{
name = bottom;
pos = (507,0);
},
{
name = center;
pos = (507,640);
},
{
name = top;
pos = (507,800);
},
{
name = topleft;
pos = (25,800);
}
);
hints = (
{
horizontal = 1;
place = (785,15);
type = Stem;
},
{
horizontal = 1;
place = (388,17);
type = Stem;
},
{
horizontal = 1;
place = (0,15);
type = Stem;
},
{
place = (538,148);
type = Stem;
},
{
place = (538,25);
type = Stem;
},
{
place = (261,25);
type = Stem;
},
{
place = (138,148);
type = Stem;
},
{
name = _corner.leftserif;
options = 1;
origin = (1,0);
scale = (-1,1);
type = Corner;
},
{
name = _corner.leftserif;
origin = (1,3);
type = Corner;
},
{
name = _corner.leftserif;
options = 1;
origin = (0,0);
scale = (-1,1);
type = Corner;
},
{
name = _corner.leftserif;
origin = (0,3);
type = Corner;
},
{
name = _corner.leftserif;
origin = (1,1);
type = Corner;
},
{
name = _corner.leftserif;
options = 2;
origin = (1,2);
scale = (-1,1);
type = Corner;
},
{
name = _corner.leftserif;
origin = (0,1);
type = Corner;
},
{
name = _corner.leftserif;
options = 2;
origin = (0,2);
scale = (-1,1);
type = Corner;
}
);
layerId = m01;
metricLeft = "=105";
metricRight = "=105";
shapes = (
{
closed = 1;
nodes = (
(821,0,l),
(821,800,l),
(673,800,l),
(673,0,l)
);
},
{
closed = 1;
nodes = (
(341,0,l),
(341,800,l),
(193,800,l),
(193,0,l)
);
},
{
closed = 1;
nodes = (
(698,407,l),
(698,427,l),
(316,427,l),
(316,407,l)
);
}
);
width = 1014;
},
{
anchors = (
{
name = bottom;
pos = (509,0);
},
{
name = center;
pos = (509,640);
},
{
name = top;
pos = (509,800);
},
{
name = topleft;
pos = (20,800);
}
);
hints = (
{
name = _corner.leftserif;
options = 1;
origin = (0,0);
scale = (-1,1);
type = Corner;
},
{
name = _corner.leftserif;
origin = (0,3);
type = Corner;
},
{
name = _corner.leftserif;
options = 1;
origin = (1,0);
scale = (-1,1);
type = Corner;
},
{
name = _corner.leftserif;
origin = (1,3);
type = Corner;
},
{
name = _corner.leftserif;
origin = (0,1);
type = Corner;
},
{
name = _corner.leftserif;
options = 1;
origin = (0,2);
scale = (-1,1);
type = Corner;
},
{
name = _corner.leftserif;
origin = (1,1);
type = Corner;
},
{
name = _corner.leftserif;
options = 1;
origin = (1,2);
scale = (-1,1);
type = Corner;
}
);
layerId = "DFBD2966-8600-4091-87AD-36DB30ECE1CF";
metricLeft = "=100";
metricRight = "=100";
shapes = (
{
closed = 1;
nodes = (
(825,0,l),
(825,800,l),
(657,800,l),
(657,0,l)
);
},
{
closed = 1;
nodes = (
(355,0,l),
(355,800,l),
(187,800,l),
(187,0,l)
);
},
{
closed = 1;
nodes = (
(689,406,l),
(689,428,l),
(323,428,l),
(323,406,l)
);
}
);
width = 1012;
}
);
metricLeft = "=100";
metricRight = "=100";
unicode = 72;
},
{
color = 4;
glyphname = I;
lastChange = "2026-06-29 01:55:55 +0000";
layers = (
{
anchors = (
{
name = bottom;
pos = (244,0);
},
{
name = ogonek;
pos = (405,10);
},
{
name = top;
pos = (244,800);
},
{
name = topleft;
pos = (40,800);
}
);
hints = (
{
name = _corner.leftserif;
origin = (0,1);
type = Corner;
},
{
name = _corner.leftserif;
options = 1;
origin = (0,2);
scale = (-1,1);
type = Corner;
},
{
name = _corner.leftserif;
options = 1;
origin = (0,0);
scale = (-1,1);
type = Corner;
},
{
name = _corner.leftserif;
origin = (0,3);
type = Corner;
}
);
layerId = "E5DC9139-DBE8-45F6-BCD0-0641ED917C2C";
metricLeft = "=H";
metricRight = "=H";
shapes = (
{
closed = 1;
nodes = (
(278,0,l),
(278,800,l),
(210,800,l),
(210,0,l)
);
}
);
width = 488;
},
{
anchors = (
{
name = bottom;
pos = (259,0);
},
{
name = ogonek;
pos = (427,10);
},
{
name = top;
pos = (259,800);
},
{
name = topleft;
pos = (35,800);
}
);
hints = (
{
name = _corner.leftserif;
origin = (0,1);
type = Corner;
},
{
name = _corner.leftserif;
options = 1;
origin = (0,2);
scale = (-1,1);
type = Corner;
},
{
name = _corner.leftserif;
options = 1;
origin = (0,0);
scale = (-1,1);
type = Corner;
},
{
name = _corner.leftserif;
origin = (0,3);
type = Corner;
}
);
layerId = "2F0BCB80-3430-4FA1-A4A3-7C385E8DAA98";
metricLeft = "=H";
metricRight = "=H";
shapes = (
{
closed = 1;
nodes = (
(313,0,l),
(313,800,l),
(205,800,l),
(205,0,l)
);
}
);
width = 518;
},
{
anchors = (
{
name = bottom;
pos = (269,0);
},
{
name = ogonek;
pos = (427,10);
},
{
name = top;
pos = (269,800);
},
{
name = topleft;
pos = (91,800);
}
);
hints = (
{
horizontal = 1;
place = (783,17);
type = Stem;
},
{
horizontal = 1;
place = (0,18);
type = Stem;
},
{
place = (122,148);
type = Stem;
},
{
name = _corner.leftserif;
origin = (0,1);
type = Corner;
},
{
name = _corner.leftserif;
options = 2;
origin = (0,2);
scale = (-1,1);
type = Corner;
},
{
name = _corner.leftserif;
options = 1;
origin = (0,0);
scale = (-1,1);
type = Corner;
},
{
name = _corner.leftserif;
origin = (0,3);
type = Corner;
}
);
layerId = m01;
metricLeft = "=H";
metricRight = "=H";
shapes = (
{
closed = 1;
nodes = (
(341,0,l),
(341,800,l),
(193,800,l),
(193,0,l)
);
}
);
width = 534;
},
{
anchors = (
{
name = bottom;
pos = (274,0);
},
{
name = ogonek;
pos = (429,10);
},
{
name = top;
pos = (274,800);
},
{
name = topleft;
pos = (110,800);
}
);
hints = (
{
name = _corner.leftserif;
origin = (0,1);
type = Corner;
},
{
name = _corner.leftserif;
options = 1;
origin = (0,2);
scale = (-1,1);
type = Corner;
},
{
name = _corner.leftserif;
options = 1;
origin = (0,0);
scale = (-1,1);
type = Corner;
},
{
name = _corner.leftserif;
origin = (0,3);
type = Corner;
}
);
layerId = "DFBD2966-8600-4091-87AD-36DB30ECE1CF";
metricLeft = "=H";
metricRight = "=H";
shapes = (
{
closed = 1;
nodes = (
(355,0,l),
(355,800,l),
(187,800,l),
(187,0,l)
);
}
);
width = 542;
}
);
metricLeft = "=100";
metricRight = "=100";
unicode = 73;
},
{
color = 4;
glyphname = J;
lastChange = "2026-06-29 01:56:55 +0000";
layers = (
{
anchors = (
{
name = bottom;
pos = (233,0);
},
{
name = top;
pos = (233,800);
}
);
hints = (
{
name = _corner.leftserif;
origin = (0,3);
type = Corner;
},
{
name = _corner.leftserif;
options = 1;
origin = (0,4);
scale = (-1,1);
type = Corner;
}
);
layerId = "E5DC9139-DBE8-45F6-BCD0-0641ED917C2C";
metricLeft = "=A";
metricRight = "=H";
shapes = (
{
closed = 1;
nodes = (
(322,-5,o),
(310,95,o),
(310,269,cs),
(310,800,l),
(242,800,l),
(242,215,ls),
(242,155,o),
(254,7,o),
(165,7,cs),
(100,7,o),
(76,50,o),
(73,55,cs),
(60,74,l),
(60,14,o),
(126,-5,o),
(165,-5,cs)
);
},
{
closed = 1;
nodes = (
(133,27,o),
(155,49,o),
(155,75,cs),
(155,101,o),
(133,122,o),
(107,122,cs),
(81,122,o),
(60,101,o),
(60,75,cs),
(60,49,o),
(81,27,o),
(107,27,cs)
);
}
);
width = 520;
},
{
anchors = (
{
name = bottom;
pos = (258,0);
},
{
name = top;
pos = (258,800);
}
);
hints = (
{
name = _corner.leftserif;
origin = (0,3);
type = Corner;
},
{
name = _corner.leftserif;
options = 1;
origin = (0,4);
scale = (-1,1);
type = Corner;
}
);
layerId = "2F0BCB80-3430-4FA1-A4A3-7C385E8DAA98";
metricLeft = "=A";
metricRight = "=H";
shapes = (
{
closed = 1;
nodes = (
(334,-5,o),
(345,95,o),
(345,269,cs),
(345,800,l),
(237,800,l),
(237,215,ls),
(237,155,o),
(245,14,o),
(159,14,cs),
(97,14,o),
(71,49,o),
(71,84,c),
(55,84,l),
(55,24,o),
(107,-5,o),
(180,-5,cs)
);
},
{
closed = 1;
nodes = (
(146,25,o),
(172,52,o),
(172,84,cs),
(172,116,o),
(146,142,o),
(114,142,cs),
(82,142,o),
(55,116,o),
(55,84,cs),
(55,52,o),
(82,25,o),
(114,25,cs)
);
}
);
width = 550;
},
{
anchors = (
{
name = bottom;
pos = (259,0);
},
{
name = top;
pos = (310,800);
}
);
hints = (
{
horizontal = 1;
place = (783,17);
type = Stem;
},
{
horizontal = 1;
place = (21,139);
type = Stem;
},
{
horizontal = 1;
place = (-5,25);
type = Stem;
},
{
place = (172,148);
type = Stem;
},
{
place = (-20,19);
type = Stem;
},
{
name = _corner.leftserif;
origin = (0,3);
type = Corner;
},
{
name = _corner.leftserif;
options = 2;
origin = (0,4);
scale = (-1,1);
type = Corner;
}
);
layerId = m01;
metricLeft = "=A";
metricRight = "=H";
shapes = (
{
closed = 1;
nodes = (
(350,-5,o),
(385,95,o),
(385,269,cs),
(385,800,l),
(237,800,l),
(237,215,ls),
(237,155,o),
(239,20,o),
(148,20,cs),
(80,20,o),
(67,67,o),
(64,109,c),
(45,99,l),
(45,39,o),
(76,-5,o),
(200,-5,cs)
);
},
{
closed = 1;
nodes = (
(154,21,o),
(184,54,o),
(184,92,cs),
(184,130,o),
(154,160,o),
(116,160,cs),
(78,160,o),
(45,130,o),
(45,92,cs),
(45,54,o),
(78,21,o),
(116,21,cs)
);
}
);
width = 578;
},
{
anchors = (
{
name = bottom;
pos = (262,0);
},
{
name = top;
pos = (332,800);
}
);
hints = (
{
name = _corner.leftserif;
origin = (0,3);
type = Corner;
},
{
name = _corner.leftserif;
options = 1;
origin = (0,4);
scale = (-1,1);
type = Corner;
}
);
layerId = "DFBD2966-8600-4091-87AD-36DB30ECE1CF";
metricLeft = "=A";
metricRight = "=H";
shapes = (
{
closed = 1;
nodes = (
(357,-5,o),
(403,95,o),
(403,269,cs),
(403,800,l),
(235,800,l),
(235,215,ls),
(235,155,o),
(235,23,o),
(142,23,cs),
(72,23,o),
(64,73,o),
(60,122,cs),
(40,106,l),
(40,46,o),
(61,-5,o),
(208,-5,cs)
);
},
{
closed = 1;
nodes = (
(158,19,o),
(190,55,o),
(190,96,cs),
(190,137,o),
(158,169,o),
(117,169,cs),
(76,169,o),
(40,137,o),
(40,96,cs),
(40,55,o),
(76,19,o),
(117,19,cs)
);
}
);
width = 590;
}
);
metricLeft = A;
metricRight = "=100";
unicode = 74;
},
{
color = 4;
glyphname = K;
lastChange = "2026-06-29 02:01:01 +0000";
layers = (
{
anchors = (
{
name = bottom;
pos = (443,0);
},
{
name = top;
pos = (443,800);
}
);
hints = (
{
name = _corner.leftserif;
origin = (1,1);
type = Corner;
},
{
name = _corner.leftserif;
options = 1;
origin = (1,2);
scale = (-1,1);
type = Corner;
},
{
name = _corner.leftserif;
options = 1;
origin = (1,0);
scale = (-1,1);
type = Corner;
},
{
name = _corner.leftserif;
origin = (1,3);
type = Corner;
},
{
name = _corner.leftserif;
origin = (0,0);
type = Corner;
},
{
name = _corner.leftserif;
origin = (2,3);
type = Corner;
},
{
name = _corner.leftserif;
options = 1;
origin = (2,0);
scale = (-1,1);
type = Corner;
},
{
name = _corner.leftserif;
options = 1;
origin = (0,1);
scale = (-1,1);
type = Corner;
}
);
layerId = "E5DC9139-DBE8-45F6-BCD0-0641ED917C2C";
metricLeft = "=H";
metricRight = "=A-20";
shapes = (
{
attr = {
strokePos = "1";
};
closed = 1;
nodes = (
(708,800,l),
(695,800,l),
(256,330,l),
(263,323,l)
);
},
{
closed = 1;
nodes = (
(278,0,l),
(278,800,l),
(210,800,l),
(210,0,l)
);
},
{
closed = 1;
nodes = (
(750,0,l),
(427,509,l),
(381,456,l),
(671,0,l)
);
}
);
width = 874;
},
{
anchors = (
{
name = bottom;
pos = (469,0);
},
{
name = top;
pos = (469,800);
}
);
hints = (
{
name = _corner.leftserif;
origin = (1,1);
type = Corner;
},
{
name = _corner.leftserif;
options = 1;
origin = (1,2);
scale = (-1,1);
type = Corner;
},
{
name = _corner.leftserif;
options = 1;
origin = (1,0);
scale = (-1,1);
type = Corner;
},
{
name = _corner.leftserif;
origin = (1,3);
type = Corner;
},
{
name = _corner.leftserif;
origin = (0,0);
type = Corner;
},
{
name = _corner.leftserif;
origin = (2,3);
type = Corner;
},
{
name = _corner.leftserif;
options = 1;
origin = (2,0);
scale = (-1,1);
type = Corner;
},
{
name = _corner.leftserif;
options = 1;
origin = (0,1);
scale = (-1,1);
type = Corner;
}
);
layerId = "2F0BCB80-3430-4FA1-A4A3-7C385E8DAA98";
metricLeft = "=H";
metricRight = "=A-20";
shapes = (
{
attr = {
strokePos = "1";
};
closed = 1;
nodes = (
(741,800,l),
(720,800,l),
(281,330,l),
(292,320,l)
);
},
{
closed = 1;
nodes = (
(313,0,l),
(313,800,l),
(205,800,l),
(205,0,l)
);
},
{
closed = 1;
nodes = (
(808,0,l),
(494,540,l),
(409,450,l),
(663,0,l)
);
}
);
width = 924;
},
{
anchors = (
{
name = bottom;
pos = (491,0);
},
{
name = top;
pos = (491,800);
}
);
hints = (
{
horizontal = 1;
place = (783,17);
type = Stem;
},
{
horizontal = 1;
place = (0,18);
type = Stem;
},
{
place = (105,148);
type = Stem;
},
{
name = _corner.leftserif;
origin = (1,1);
type = Corner;
},
{
name = _corner.leftserif;
options = 2;
origin = (1,2);
scale = (-1,1);
type = Corner;
},
{
name = _corner.leftserif;
options = 1;
origin = (1,0);
scale = (-1,1);
type = Corner;
},
{
name = _corner.leftserif;
origin = (1,3);
type = Corner;
},
{
name = _corner.leftserif;
origin = (2,3);
type = Corner;
},
{
name = _corner.leftserif;
options = 1;
origin = (2,0);
scale = (-1,1);
type = Corner;
},
{
name = _corner.leftserif;
origin = (0,0);
type = Corner;
},
{
name = _corner.leftserif;
options = 1;
origin = (0,1);
scale = (-1,1);
type = Corner;
}
);
layerId = m01;
metricLeft = "=H";
metricRight = "=A-20";
shapes = (
{
attr = {
strokePos = 1;
};
closed = 1;
nodes = (
(737,800,l),
(710,800,l),
(301,362,l),
(316,348,l)
);
},
{
closed = 1;
nodes = (
(341,0,l),
(341,800,l),
(193,800,l),
(193,0,l)
);
},
{
closed = 1;
nodes = (
(798,0,l),
(474,525,l),
(379,429,l),
(623,0,l)
);
}
);
width = 899;
},
{
anchors = (
{
name = bottom;
pos = (502,0);
},
{
name = top;
pos = (502,800);
}
);
hints = (
{
name = _corner.leftserif;
origin = (1,1);
type = Corner;
},
{
name = _corner.leftserif;
options = 1;
origin = (1,2);
scale = (-1,1);
type = Corner;
},
{
name = _corner.leftserif;
options = 1;
origin = (1,0);
scale = (-1,1);
type = Corner;
},
{
name = _corner.leftserif;
origin = (1,3);
type = Corner;
},
{
name = _corner.leftserif;
origin = (0,0);
type = Corner;
},
{
name = _corner.leftserif;
origin = (2,3);
type = Corner;
},
{
name = _corner.leftserif;
options = 1;
origin = (2,0);
scale = (-1,1);
type = Corner;
},
{
name = _corner.leftserif;
options = 1;
origin = (0,1);
scale = (-1,1);
type = Corner;
}
);
layerId = "DFBD2966-8600-4091-87AD-36DB30ECE1CF";
metricLeft = "=H";
metricRight = "=A-20";
shapes = (
{
attr = {
strokePos = 1;
};
closed = 1;
nodes = (
(739,800,l),
(708,800,l),
(311,374,l),
(328,358,l)
);
},
{
closed = 1;
nodes = (
(355,0,l),
(355,800,l),
(187,800,l),
(187,0,l)
);
},
{
closed = 1;
nodes = (
(801,0,l),
(474,523,l),
(370,420,l),
(606,0,l)
);
}
);
width = 894;
}
);
metricLeft = "=H";
metricRight = "=100";
unicode = 75;
},
{
color = 4;
glyphname = L;
lastChange = "2026-06-29 02:01:23 +0000";
layers = (
{
anchors = (
{
name = bottom;
pos = (370,0);
},
{
name = center;
pos = (370,400);
},
{
name = top;
pos = (370,800);
},
{
name = topright;
pos = (699,800);
}
);
hints = (
{
name = _corner.leftserif;
origin = (0,1);
type = Corner;
},
{
name = _corner.leftserif;
options = 1;
origin = (0,2);
scale = (-1,1);
type = Corner;
},
{
name = _corner.leftserif;
origin = (0,3);
type = Corner;
}
);
layerId = "E5DC9139-DBE8-45F6-BCD0-0641ED917C2C";
metricLeft = "=H";
metricRight = "=A-20";
shapes = (
{
closed = 1;
nodes = (
(278,0,l),
(278,800,l),
(210,800,l),
(210,0,l)
);
},
{
closed = 1;
nodes = (
(619,0,l),
(619,15,l),
(245,15,l),
(245,0,l)
);
},
{
closed = 1;
nodes = (
(619,15,l),
(619,166,l),
(604,89,o),
(572,15,o),
(496,15,c)
);
}
);
width = 659;
},
{
anchors = (
{
name = bottom;
pos = (377,0);
},
{
name = center;
pos = (377,400);
},
{
name = top;
pos = (377,800);
},
{
name = topright;
pos = (718,800);
}
);
guides = (
{
pos = (514,130);
showMeasurement = 1;
}
);
hints = (
{
name = _corner.leftserif;
origin = (0,1);
type = Corner;
},
{
name = _corner.leftserif;
options = 1;
origin = (0,2);
scale = (-1,1);
type = Corner;
},
{
name = _corner.leftserif;
origin = (0,3);
type = Corner;
}
);
layerId = "2F0BCB80-3430-4FA1-A4A3-7C385E8DAA98";
metricLeft = "=H";
metricRight = "=A-20";
shapes = (
{
closed = 1;
nodes = (
(313,0,l),
(313,800,l),
(205,800,l),
(205,0,l)
);
},
{
closed = 1;
nodes = (
(638,0,l),
(638,15,l),
(248,15,l),
(248,0,l)
);
},
{
closed = 1;
nodes = (
(638,15,l),
(638,187,l),
(620,99,o),
(584,15,o),
(498,15,c)
);
}
);
width = 673;
},
{
anchors = (
{
name = bottom;
pos = (377,0);
},
{
name = center;
pos = (377,400);
},
{
name = top;
pos = (377,800);
},
{
name = topright;
pos = (728,800);
}
);
hints = (
{
horizontal = 1;
place = (785,15);
type = Stem;
},
{
horizontal = 1;
place = (0,15);
type = Stem;
},
{
place = (138,148);
type = Stem;
},
{
name = _corner.leftserif;
origin = (0,1);
type = Corner;
},
{
name = _corner.leftserif;
options = 2;
origin = (0,2);
scale = (-1,1);
type = Corner;
},
{
name = _corner.leftserif;
origin = (0,3);
type = Corner;
}
);
layerId = m01;
metricLeft = "=H";
metricRight = "=A-20";
shapes = (
{
closed = 1;
nodes = (
(341,0,l),
(341,800,l),
(193,800,l),
(193,0,l)
);
},
{
closed = 1;
nodes = (
(648,0,l),
(648,15,l),
(269,15,l),
(269,0,l)
);
},
{
closed = 1;
nodes = (
(648,15,l),
(648,204,l),
(627,106,o),
(589,15,o),
(495,15,c)
);
}
);
width = 673;
},
{
anchors = (
{
name = bottom;
pos = (377,0);
},
{
name = center;
pos = (377,400);
},
{
name = top;
pos = (377,800);
},
{
name = topright;
pos = (733,800);
}
);
hints = (
{
name = _corner.leftserif;
origin = (0,1);
type = Corner;
},
{
name = _corner.leftserif;
options = 1;
origin = (0,2);
scale = (-1,1);
type = Corner;
},
{
name = _corner.leftserif;
origin = (0,3);
type = Corner;
}
);
layerId = "DFBD2966-8600-4091-87AD-36DB30ECE1CF";
metricLeft = "=H";
metricRight = "=A-20";
shapes = (
{
closed = 1;
nodes = (
(355,0,l),
(355,800,l),
(187,800,l),
(187,0,l)
);
},
{
closed = 1;
nodes = (
(653,0,l),
(653,15,l),
(276,15,l),
(276,0,l)
);
},
{
closed = 1;
nodes = (
(653,15,l),
(653,213,l),
(631,111,o),
(591,15,o),
(493,15,c)
);
}
);
width = 673;
}
);
metricLeft = "=H";
metricRight = "=100";
unicode = 76;
},
{
color = 4;
glyphname = M;
lastChange = "2026-06-29 02:01:51 +0000";
layers = (
{
anchors = (
{
name = bottom;
pos = (559,0);
},
{
name = top;
pos = (559,800);
}
);
hints = (
{
name = _corner.leftserif;
origin = (0,4);
type = Corner;
},
{
name = _corner.leftserif;
options = 1;
origin = (0,8);
scale = (-1,1);
type = Corner;
},
{
name = _corner.leftserif;
origin = (0,2);
type = Corner;
},
{
name = _corner.leftserif;
options = 1;
origin = (0,3);
scale = (-1,1);
type = Corner;
},
{
name = _corner.leftserif;
origin = (0,9);
type = Corner;
},
{
name = _corner.leftserif;
options = 1;
origin = (0,10);
scale = (-1,1);
type = Corner;
}
);
layerId = "E5DC9139-DBE8-45F6-BCD0-0641ED917C2C";
metricLeft = "=H";
metricRight = "=H";
shapes = (
{
closed = 1;
nodes = (
(556,0,l),
(839,789,l),
(839,0,l),
(907,0,l),
(907,800,l),
(833,800,l),
(569,68,l),
(289,800,l),
(210,800,l),
(210,0,l),
(220,0,l),
(220,789,l),
(525,0,l)
);
}
);
width = 1117;
},
{
anchors = (
{
name = bottom;
pos = (590,0);
},
{
name = top;
pos = (590,800);
}
);
hints = (
{
name = _corner.leftserif;
origin = (0,2);
type = Corner;
},
{
name = _corner.leftserif;
options = 1;
origin = (0,3);
scale = (-1,1);
type = Corner;
},
{
name = _corner.leftserif;
origin = (0,9);
type = Corner;
},
{
name = _corner.leftserif;
options = 1;
origin = (0,10);
scale = (-1,1);
type = Corner;
},
{
name = _corner.leftserif;
origin = (0,4);
type = Corner;
},
{
name = _corner.leftserif;
options = 1;
origin = (0,8);
scale = (-1,1);
type = Corner;
}
);
layerId = "2F0BCB80-3430-4FA1-A4A3-7C385E8DAA98";
metricLeft = "=H";
metricRight = "=H";
shapes = (
{
closed = 1;
nodes = (
(571,0,l),
(866,785,l),
(866,0,l),
(974,0,l),
(974,800,l),
(856,800,l),
(600,120,l),
(329,800,l),
(205,800,l),
(205,0,l),
(220,0,l),
(220,784,l),
(533,0,l)
);
}
);
width = 1179;
},
{
anchors = (
{
name = bottom;
pos = (616,0);
},
{
name = top;
pos = (616,800);
}
);
hints = (
{
horizontal = 1;
place = (784,16);
type = Stem;
},
{
horizontal = 1;
place = (783,17);
type = Stem;
},
{
horizontal = 1;
place = (779,21);
type = Stem;
},
{
horizontal = 1;
place = (2,16);
type = Stem;
},
{
horizontal = 1;
place = (0,18);
type = Stem;
},
{
place = (813,148);
type = Stem;
},
{
place = (115,137);
type = Stem;
},
{
place = (115,93);
type = Stem;
},
{
place = (115,18);
type = Stem;
},
{
place = (40,93);
type = Stem;
},
{
name = _corner.leftserif;
origin = (0,4);
type = Corner;
},
{
name = _corner.leftserif;
options = 1;
origin = (0,8);
scale = (-1,1);
type = Corner;
},
{
name = _corner.leftserif;
origin = (0,2);
type = Corner;
},
{
name = _corner.leftserif;
options = 2;
origin = (0,3);
scale = (-1,1);
type = Corner;
},
{
name = _corner.leftserif;
origin = (0,9);
type = Corner;
},
{
name = _corner.leftserif;
options = 2;
origin = (0,10);
scale = (-1,1);
type = Corner;
}
);
layerId = m01;
metricLeft = "=H";
metricRight = "=H";
shapes = (
{
closed = 1;
nodes = (
(580,0,l),
(891,784,l),
(891,0,l),
(1039,0,l),
(1039,800,l),
(879,800,l),
(627,170,l),
(360,800,l),
(193,800,l),
(193,0,l),
(211,0,l),
(211,779,l),
(537,0,l)
);
}
);
width = 1232;
},
{
anchors = (
{
name = bottom;
pos = (629,0);
},
{
name = top;
pos = (629,800);
}
);
hints = (
{
name = _corner.leftserif;
origin = (0,4);
type = Corner;
},
{
name = _corner.leftserif;
options = 1;
origin = (0,8);
scale = (-1,1);
type = Corner;
},
{
name = _corner.leftserif;
origin = (0,2);
type = Corner;
},
{
name = _corner.leftserif;
options = 1;
origin = (0,3);
scale = (-1,1);
type = Corner;
},
{
name = _corner.leftserif;
origin = (0,9);
type = Corner;
},
{
name = _corner.leftserif;
options = 1;
origin = (0,10);
scale = (-1,1);
type = Corner;
}
);
layerId = "DFBD2966-8600-4091-87AD-36DB30ECE1CF";
metricLeft = "=H";
metricRight = "=H";
shapes = (
{
closed = 1;
nodes = (
(584,0,l),
(903,783,l),
(903,0,l),
(1071,0,l),
(1071,800,l),
(890,800,l),
(640,195,l),
(376,800,l),
(187,800,l),
(187,0,l),
(207,0,l),
(207,777,l),
(539,0,l)
);
}
);
width = 1258;
}
);
metricLeft = "=100";
metricRight = "=hH";
unicode = 77;
},
{
color = 4;
glyphname = N;
lastChange = "2026-06-29 02:02:29 +0000";
layers = (
{
anchors = (
{
name = bottom;
pos = (469,0);
},
{
name = top;
pos = (469,800);
}
);
hints = (
{
name = _corner.leftserif;
origin = (0,9);
type = Corner;
},
{
name = _corner.leftserif;
options = 1;
origin = (0,0);
scale = (-1,1);
type = Corner;
},
{
name = _corner.leftserif;
options = 1;
origin = (0,8);
scale = (-1,1);
type = Corner;
},
{
name = _corner.leftserif;
options = 1;
origin = (0,5);
scale = (-1,1);
type = Corner;
},
{
name = _corner.leftserif;
origin = (0,4);
type = Corner;
}
);
layerId = "E5DC9139-DBE8-45F6-BCD0-0641ED917C2C";
metricLeft = "=H";
metricRight = "=H";
shapes = (
{
closed = 1;
nodes = (
(220,0,l),
(220,790,l),
(710,0,l),
(727,0,l),
(727,800,l),
(717,800,l),
(717,114,l),
(294,800,l),
(210,800,l),
(210,0,l)
);
}
);
width = 937;
},
{
anchors = (
{
name = bottom;
pos = (482,0);
},
{
name = top;
pos = (482,800);
}
);
hints = (
{
name = _corner.leftserif;
origin = (0,9);
type = Corner;
},
{
name = _corner.leftserif;
options = 1;
origin = (0,0);
scale = (-1,1);
type = Corner;
},
{
name = _corner.leftserif;
options = 1;
origin = (0,8);
scale = (-1,1);
type = Corner;
},
{
name = _corner.leftserif;
options = 1;
origin = (0,5);
scale = (-1,1);
type = Corner;
},
{
name = _corner.leftserif;
origin = (0,4);
type = Corner;
}
);
layerId = "2F0BCB80-3430-4FA1-A4A3-7C385E8DAA98";
metricLeft = "=H";
metricRight = "=H";
shapes = (
{
closed = 1;
nodes = (
(220,0,l),
(220,785,l),
(731,0,l),
(758,0,l),
(758,800,l),
(743,800,l),
(743,172,l),
(339,800,l),
(205,800,l),
(205,0,l)
);
}
);
width = 963;
},
{
anchors = (
{
name = bottom;
pos = (485,0);
},
{
name = top;
pos = (485,800);
}
);
hints = (
{
horizontal = 1;
place = (784,16);
type = Stem;
},
{
horizontal = 1;
place = (783,17);
type = Stem;
},
{
horizontal = 1;
place = (0,18);
type = Stem;
},
{
place = (686,17);
type = Stem;
},
{
place = (119,18);
type = Stem;
},
{
name = _corner.leftserif;
origin = (0,9);
type = Corner;
},
{
name = _corner.leftserif;
options = 1;
origin = (0,0);
scale = (-1,1);
type = Corner;
},
{
name = _corner.leftserif;
options = 1;
origin = (0,8);
scale = (-1,1);
type = Corner;
},
{
name = _corner.leftserif;
options = 1;
origin = (0,5);
scale = (-1,1);
type = Corner;
},
{
name = _corner.leftserif;
origin = (0,4);
type = Corner;
}
);
layerId = m01;
metricLeft = "=H";
metricRight = "=H";
shapes = (
{
closed = 1;
nodes = (
(211,0,l),
(211,784,l),
(743,0,l),
(777,0,l),
(777,800,l),
(760,800,l),
(760,232,l),
(377,800,l),
(193,800,l),
(193,0,l)
);
}
);
width = 970;
},
{
anchors = (
{
name = bottom;
pos = (487,0);
},
{
name = top;
pos = (487,800);
}
);
hints = (
{
name = _corner.leftserif;
origin = (0,9);
type = Corner;
},
{
name = _corner.leftserif;
options = 1;
origin = (0,0);
scale = (-1,1);
type = Corner;
},
{
name = _corner.leftserif;
options = 1;
origin = (0,8);
scale = (-1,1);
type = Corner;
},
{
name = _corner.leftserif;
options = 1;
origin = (0,5);
scale = (-1,1);
type = Corner;
},
{
name = _corner.leftserif;
origin = (0,4);
type = Corner;
}
);
layerId = "DFBD2966-8600-4091-87AD-36DB30ECE1CF";
metricLeft = "=H";
metricRight = "=H";
shapes = (
{
closed = 1;
nodes = (
(207,0,l),
(207,783,l),
(749,0,l),
(787,0,l),
(787,800,l),
(769,800,l),
(769,262,l),
(396,800,l),
(187,800,l),
(187,0,l)
);
}
);
width = 974;
}
);
metricLeft = "=H-10";
metricRight = "=H-10";
unicode = 78;
},
{
color = 4;
glyphname = O;
lastChange = "2026-06-29 01:52:39 +0000";
layers = (
{
anchors = (
{
name = bottom;
pos = (448,0);
},
{
name = center;
pos = (448,400);
},
{
name = ogonek;
pos = (758,10);
},
{
name = top;
pos = (448,800);
},
{
name = topleft;
pos = (80,800);
},
{
name = topright;
pos = (815,800);
}
);
layerId = "E5DC9139-DBE8-45F6-BCD0-0641ED917C2C";
metricLeft = "=H-20";
metricRight = "=H-20";
shapes = (
{
closed = 1;
nodes = (
(651,-7,o),
(795,159,o),
(795,396,cs),
(795,636,o),
(651,805,o),
(447,805,cs),
(243,805,o),
(100,636,o),
(100,396,cs),
(100,159,o),
(243,-7,o),
(447,-7,cs)
);
},
{
closed = 1;
nodes = (
(283,3,o),
(173,165,o),
(173,396,cs),
(173,630,o),
(283,795,o),
(447,795,cs),
(611,795,o),
(722,630,o),
(722,396,cs),
(722,165,o),
(611,3,o),
(447,3,cs)
);
}
);
width = 895;
},
{
anchors = (
{
name = bottom;
pos = (438,0);
},
{
name = center;
pos = (438,400);
},
{
name = ogonek;
pos = (748,10);
},
{
name = top;
pos = (438,800);
},
{
name = topleft;
pos = (70,800);
},
{
name = topright;
pos = (805,800);
}
);
layerId = "2F0BCB80-3430-4FA1-A4A3-7C385E8DAA98";
metricLeft = "=H-25";
metricRight = "=H-25";
shapes = (
{
closed = 1;
nodes = (
(642,-7,o),
(785,159,o),
(785,396,cs),
(785,636,o),
(642,805,o),
(438,805,cs),
(234,805,o),
(90,636,o),
(90,396,cs),
(90,159,o),
(234,-7,o),
(438,-7,cs)
);
},
{
closed = 1;
nodes = (
(297,8,o),
(203,166,o),
(203,396,cs),
(203,629,o),
(297,790,o),
(438,790,cs),
(578,790,o),
(672,629,o),
(672,396,cs),
(672,166,o),
(578,8,o),
(438,8,cs)
);
}
);
width = 875;
},
{
anchors = (
{
name = bottom;
pos = (422,0);
},
{
name = center;
pos = (422,400);
},
{
name = ogonek;
pos = (732,10);
},
{
name = top;
pos = (422,800);
},
{
name = topleft;
pos = (55,800);
},
{
name = topright;
pos = (789,800);
}
);
hints = (
{
horizontal = 1;
place = (788,17);
type = Stem;
},
{
horizontal = 1;
place = (-7,19);
type = Stem;
},
{
place = (587,147);
type = Stem;
},
{
place = (40,148);
type = Stem;
}
);
layerId = m01;
metricLeft = "=H-30";
metricRight = "=H-30";
shapes = (
{
closed = 1;
nodes = (
(627,-7,o),
(769,154,o),
(769,396,cs),
(769,644,o),
(627,805,o),
(425,805,cs),
(219,805,o),
(75,644,o),
(75,396,cs),
(75,154,o),
(219,-7,o),
(425,-7,cs)
);
},
{
closed = 1;
nodes = (
(306,12,o),
(223,166,o),
(223,396,cs),
(223,634,o),
(306,788,o),
(425,788,cs),
(541,788,o),
(622,634,o),
(622,396,cs),
(622,166,o),
(541,12,o),
(425,12,cs)
);
}
);
width = 844;
},
{
anchors = (
{
name = bottom;
pos = (432,0);
},
{
name = center;
pos = (432,400);
},
{
name = ogonek;
pos = (742,10);
},
{
name = top;
pos = (432,800);
},
{
name = topleft;
pos = (65,800);
},
{
name = topright;
pos = (799,800);
}
);
hints = (
{
horizontal = 1;
place = (1084,23);
type = Stem;
},
{
horizontal = 1;
place = (-10,26);
type = Stem;
},
{
place = (807,202);
type = Stem;
},
{
place = (55,204);
type = Stem;
}
);
layerId = "DFBD2966-8600-4091-87AD-36DB30ECE1CF";
metricRight = "=H-30";
shapes = (
{
closed = 1;
nodes = (
(637,-7,o),
(779,152,o),
(779,396,cs),
(779,647,o),
(637,805,o),
(436,805,cs),
(229,805,o),
(85,647,o),
(85,396,cs),
(85,152,o),
(229,-7,o),
(436,-7,cs)
);
},
{
closed = 1;
nodes = (
(328,14,o),
(251,166,o),
(251,396,cs),
(251,636,o),
(328,787,o),
(436,787,cs),
(540,787,o),
(614,636,o),
(614,396,cs),
(614,166,o),
(540,14,o),
(436,14,cs)
);
}
);
width = 849;
}
);
metricLeft = "=H-15";
metricRight = "=+H-15";
unicode = 79;
},
{
color = 4;
glyphname = P;
lastChange = "2026-06-29 02:03:06 +0000";
layers = (
{
anchors = (
{
name = bottom;
pos = (395,0);
},
{
name = top;
pos = (395,800);
}
);
hints = (
{
name = _corner.leftserif;
options = 1;
origin = (1,0);
scale = (-1,1);
type = Corner;
},
{
name = _corner.leftserif;
origin = (1,3);
type = Corner;
},
{
name = _corner.leftserif;
options = 1;
origin = (1,2);
scale = (-1,1);
type = Corner;
}
);
layerId = "E5DC9139-DBE8-45F6-BCD0-0641ED917C2C";
metricLeft = "=H";
metricRight = "=A+20";
shapes = (
{
closed = 1;
nodes = (
(383,365,ls),
(574,365,o),
(669,444,o),
(669,577,cs),
(669,728,o),
(574,800,o),
(383,800,cs),
(247,800,l),
(247,790,l),
(383,790,ls),
(517,790,o),
(584,721,o),
(582,577,cs),
(581,449,o),
(514,375,o),
(382,375,cs),
(256,375,l),
(256,365,l)
);
},
{
closed = 1;
nodes = (
(278,0,l),
(278,800,l),
(210,800,l),
(210,0,l)
);
}
);
width = 749;
},
{
anchors = (
{
name = bottom;
pos = (413,0);
},
{
name = top;
pos = (413,800);
}
);
hints = (
{
name = _corner.leftserif;
options = 1;
origin = (1,2);
scale = (-1,1);
type = Corner;
},
{
name = _corner.leftserif;
options = 1;
origin = (1,0);
scale = (-1,1);
type = Corner;
},
{
name = _corner.leftserif;
origin = (1,3);
type = Corner;
}
);
layerId = "2F0BCB80-3430-4FA1-A4A3-7C385E8DAA98";
metricLeft = "=H";
metricRight = "=A+20";
shapes = (
{
closed = 1;
nodes = (
(419,362,ls),
(614,362,o),
(710,432,o),
(710,577,cs),
(710,728,o),
(614,800,o),
(419,800,cs),
(249,800,l),
(249,785,l),
(419,785,ls),
(547,785,o),
(613,718,o),
(610,577,cs),
(607,442,o),
(544,377,o),
(418,377,cs),
(300,377,l),
(300,362,l)
);
},
{
closed = 1;
nodes = (
(313,0,l),
(313,800,l),
(205,800,l),
(205,0,l)
);
}
);
width = 785;
},
{
anchors = (
{
name = bottom;
pos = (402,0);
},
{
name = top;
pos = (402,800);
}
);
hints = (
{
horizontal = 1;
place = (783,17);
type = Stem;
},
{
horizontal = 1;
place = (369,23);
type = Stem;
},
{
horizontal = 1;
place = (0,18);
type = Stem;
},
{
place = (549,117);
type = Stem;
},
{
place = (120,148);
type = Stem;
},
{
name = _corner.leftserif;
options = 1;
origin = (1,0);
scale = (-1,1);
type = Corner;
},
{
name = _corner.leftserif;
origin = (1,3);
type = Corner;
},
{
name = _corner.leftserif;
options = 1;
origin = (1,2);
scale = (-1,1);
type = Corner;
}
);
layerId = m01;
metricLeft = "=H";
metricRight = "=A+20";
shapes = (
{
closed = 1;
nodes = (
(426,359,ls),
(622,359,o),
(719,430,o),
(719,572,cs),
(719,724,o),
(622,800,o),
(426,800,cs),
(246,800,l),
(246,780,l),
(426,780,ls),
(547,780,o),
(605,711,o),
(602,572,cs),
(599,443,o),
(540,379,o),
(425,379,cs),
(297,379,l),
(297,359,l)
);
},
{
closed = 1;
nodes = (
(341,0,l),
(341,800,l),
(193,800,l),
(193,0,l)
);
}
);
width = 784;
},
{
anchors = (
{
name = bottom;
pos = (399,0);
},
{
name = top;
pos = (399,800);
}
);
hints = (
{
name = _corner.leftserif;
options = 1;
origin = (1,0);
scale = (-1,1);
type = Corner;
},
{
name = _corner.leftserif;
origin = (1,3);
type = Corner;
},
{
name = _corner.leftserif;
options = 1;
origin = (1,2);
scale = (-1,1);
type = Corner;
}
);
layerId = "DFBD2966-8600-4091-87AD-36DB30ECE1CF";
metricLeft = "=H";
metricRight = "=A+20";
shapes = (
{
closed = 1;
nodes = (
(432,358,ls),
(629,358,o),
(727,428,o),
(727,570,cs),
(727,723,o),
(629,800,o),
(432,800,cs),
(244,800,l),
(244,778,l),
(432,778,ls),
(550,778,o),
(605,707,o),
(602,570,cs),
(598,442,o),
(541,380,o),
(431,380,cs),
(300,380,l),
(300,358,l)
);
},
{
closed = 1;
nodes = (
(355,0,l),
(355,800,l),
(187,800,l),
(187,0,l)
);
}
);
width = 787;
}
);
metricLeft = "=100";
metricRight = "=100";
unicode = 80;
},
{
color = 4;
glyphname = Q;
lastChange = "2026-06-29 01:54:57 +0000";
layers = (
{
anchors = (
{
name = bottom;
pos = (448,0);
},
{
name = top;
pos = (448,800);
}
);
layerId = "E5DC9139-DBE8-45F6-BCD0-0641ED917C2C";
metricLeft = "=O";
metricRight = "=O";
shapes = (
{
closed = 1;
nodes = (
(651,-7,o),
(795,159,o),
(795,396,cs),
(795,633,o),
(651,799,o),
(447,799,cs),
(243,799,o),
(100,633,o),
(100,396,cs),
(100,159,o),
(243,-7,o),
(447,-7,cs)
);
},
{
closed = 1;
nodes = (
(606,-150,l),
(534,-179,o),
(484,-117,o),
(484,1,c),
(401,1,l),
(404,-45,o),
(414,-92,o),
(424,-114,cs),
(458,-189,o),
(534,-206,o),
(609,-155,c)
);
},
{
closed = 1;
nodes = (
(283,3,o),
(168,165,o),
(168,396,cs),
(168,627,o),
(283,789,o),
(447,789,cs),
(611,789,o),
(727,627,o),
(727,396,cs),
(727,165,o),
(611,3,o),
(447,3,cs)
);
}
);
width = 895;
},
{
anchors = (
{
name = bottom;
pos = (438,0);
},
{
name = top;
pos = (438,800);
}
);
layerId = "2F0BCB80-3430-4FA1-A4A3-7C385E8DAA98";
metricLeft = "=O";
metricRight = "=O";
shapes = (
{
closed = 1;
nodes = (
(642,-7,o),
(785,159,o),
(785,396,cs),
(785,633,o),
(642,799,o),
(438,799,cs),
(234,799,o),
(90,633,o),
(90,396,cs),
(90,159,o),
(234,-7,o),
(438,-7,cs)
);
},
{
closed = 1;
nodes = (
(612,-152,l),
(544,-164,o),
(496,-100,o),
(496,2,c),
(382,2,l),
(382,-37,o),
(395,-85,o),
(413,-114,cs),
(452,-178,o),
(536,-198,o),
(616,-164,c)
);
},
{
closed = 1;
nodes = (
(297,8,o),
(198,168,o),
(198,396,cs),
(198,624,o),
(297,784,o),
(438,784,cs),
(578,784,o),
(677,624,o),
(677,396,cs),
(677,168,o),
(578,8,o),
(438,8,cs)
);
}
);
width = 875;
},
{
anchors = (
{
name = bottom;
pos = (422,0);
},
{
name = top;
pos = (422,800);
}
);
hints = (
{
horizontal = 1;
place = (782,17);
type = Stem;
},
{
horizontal = 1;
place = (-7,19);
type = Stem;
},
{
horizontal = 1;
place = (-7,10);
type = Stem;
},
{
horizontal = 1;
place = (-185,34);
type = Stem;
},
{
place = (587,147);
type = Stem;
},
{
place = (319,146);
type = Stem;
},
{
place = (40,148);
type = Stem;
}
);
layerId = m01;
metricLeft = "=O";
metricRight = "=O";
shapes = (
{
closed = 1;
nodes = (
(627,-7,o),
(769,159,o),
(769,396,cs),
(769,633,o),
(627,799,o),
(425,799,cs),
(219,799,o),
(75,633,o),
(75,396,cs),
(75,159,o),
(219,-7,o),
(425,-7,cs)
);
},
{
closed = 1;
nodes = (
(605,-151,l),
(545,-155,o),
(503,-91,o),
(503,3,c),
(354,3,l),
(352,-29,o),
(366,-74,o),
(387,-105,cs),
(434,-173,o),
(526,-199,o),
(611,-168,c)
);
},
{
closed = 1;
nodes = (
(306,12,o),
(223,171,o),
(223,396,cs),
(223,623,o),
(306,782,o),
(425,782,cs),
(541,782,o),
(622,623,o),
(622,396,cs),
(622,171,o),
(541,12,o),
(425,12,cs)
);
}
);
width = 844;
},
{
anchors = (
{
name = bottom;
pos = (432,0);
},
{
name = top;
pos = (432,800);
}
);
hints = (
{
horizontal = 1;
place = (1075,23);
type = Stem;
},
{
horizontal = 1;
place = (-10,26);
type = Stem;
},
{
horizontal = 1;
place = (-10,14);
type = Stem;
},
{
horizontal = 1;
place = (-254,47);
type = Stem;
},
{
place = (807,202);
type = Stem;
},
{
place = (439,201);
type = Stem;
},
{
place = (55,204);
type = Stem;
}
);
layerId = "DFBD2966-8600-4091-87AD-36DB30ECE1CF";
metricLeft = "=O";
metricRight = "=O";
shapes = (
{
closed = 1;
nodes = (
(637,-7,o),
(779,159,o),
(779,396,cs),
(779,633,o),
(637,799,o),
(436,799,cs),
(229,799,o),
(85,633,o),
(85,396,cs),
(85,159,o),
(229,-7,o),
(436,-7,cs)
);
},
{
closed = 1;
nodes = (
(620,-151,l),
(564,-150,o),
(524,-85,o),
(524,4,c),
(358,4,l),
(355,-25,o),
(369,-68,o),
(393,-102,cs),
(443,-169,o),
(539,-199,o),
(627,-171,c)
);
},
{
closed = 1;
nodes = (
(328,14,o),
(253,173,o),
(253,396,cs),
(253,622,o),
(328,781,o),
(436,781,cs),
(540,781,o),
(612,622,o),
(612,396,cs),
(612,173,o),
(540,14,o),
(436,14,cs)
);
}
);
width = 849;
}
);
unicode = 81;
},
{
color = 4;
glyphname = R;
lastChange = "2026-06-29 02:03:20 +0000";
layers = (
{
anchors = (
{
name = bottom;
pos = (453,0);
},
{
name = top;
pos = (453,800);
}
);
hints = (
{
name = _corner.leftserif;
options = 1;
origin = (1,0);
scale = (-1,1);
type = Corner;
},
{
name = _corner.leftserif;
origin = (1,3);
type = Corner;
},
{
name = _corner.leftserif;
options = 1;
origin = (1,2);
scale = (-1,1);
type = Corner;
}
);
layerId = "E5DC9139-DBE8-45F6-BCD0-0641ED917C2C";
metricLeft = "=H";
metricRight = "=A";
shapes = (
{
closed = 1;
nodes = (
(383,395,ls),
(533,395,o),
(669,422,o),
(669,602,cs),
(669,777,o),
(524,800,o),
(383,800,cs),
(244,800,l),
(244,790,l),
(383,790,ls),
(458,790,o),
(584,753,o),
(584,602,cs),
(581,446,o),
(464,403,o),
(382,403,cs),
(256,403,l),
(256,395,l)
);
},
{
closed = 1;
nodes = (
(278,0,l),
(278,800,l),
(210,800,l),
(210,0,l)
);
},
{
closed = 1;
nodes = (
(783,18,l),
(723,-6,o),
(681,20,o),
(668,75,cs),
(652,144,o),
(673,236,o),
(644,300,cs),
(615,367,o),
(549,395,o),
(457,402,cs),
(426,405,o),
(409,403,o),
(382,403,c),
(377,395,l),
(457,396,o),
(561,392,o),
(574,237,cs),
(577,202,o),
(578,105,o),
(601,54,cs),
(637,-25,o),
(733,-23,o),
(786,13,c)
);
}
);
width = 846;
},
{
anchors = (
{
name = bottom;
pos = (470,0);
},
{
name = top;
pos = (470,800);
}
);
hints = (
{
name = _corner.leftserif;
options = 1;
origin = (1,2);
scale = (-1,1);
type = Corner;
},
{
name = _corner.leftserif;
options = 1;
origin = (1,0);
scale = (-1,1);
type = Corner;
},
{
name = _corner.leftserif;
origin = (1,3);
type = Corner;
}
);
layerId = "2F0BCB80-3430-4FA1-A4A3-7C385E8DAA98";
metricLeft = "=H";
metricRight = "=A";
shapes = (
{
closed = 1;
nodes = (
(419,392,ls),
(579,392,o),
(720,422,o),
(720,592,cs),
(720,777,o),
(570,800,o),
(419,800,cs),
(250,800,l),
(250,780,l),
(409,780,ls),
(481,780,o),
(600,763,o),
(600,592,cs),
(597,436,o),
(490,406,o),
(408,406,cs),
(302,406,l),
(302,392,l)
);
},
{
closed = 1;
nodes = (
(313,0,l),
(313,800,l),
(205,800,l),
(205,0,l)
);
},
{
closed = 1;
nodes = (
(820,25,l),
(760,1,o),
(725,31,o),
(716,75,cs),
(703,144,o),
(721,236,o),
(692,300,cs),
(663,367,o),
(587,395,o),
(495,402,cs),
(464,405,o),
(447,406,o),
(420,406,c),
(415,392,l),
(495,393,o),
(579,389,o),
(592,237,cs),
(595,202,o),
(596,106,o),
(619,54,cs),
(655,-28,o),
(771,-23,o),
(824,13,c)
);
}
);
width = 879;
},
{
anchors = (
{
name = bottom;
pos = (471,0);
},
{
name = top;
pos = (471,800);
}
);
hints = (
{
horizontal = 1;
place = (770,30);
type = Stem;
},
{
horizontal = 1;
place = (389,21);
type = Stem;
},
{
horizontal = 1;
place = (0,30);
type = Stem;
},
{
horizontal = 1;
place = (-13,39);
type = Stem;
},
{
place = (574,117);
type = Stem;
},
{
place = (145,148);
type = Stem;
},
{
name = _corner.leftserif;
options = 1;
origin = (1,2);
scale = (-1,1);
type = Corner;
},
{
name = _corner.leftserif;
options = 1;
origin = (1,0);
scale = (-1,1);
type = Corner;
},
{
name = _corner.leftserif;
origin = (1,3);
type = Corner;
}
);
layerId = m01;
metricLeft = "=H";
metricRight = "=A";
shapes = (
{
closed = 1;
nodes = (
(446,389,ls),
(611,389,o),
(759,412,o),
(759,577,cs),
(759,777,o),
(602,800,o),
(446,800,cs),
(240,800,l),
(240,780,l),
(426,780,ls),
(486,780,o),
(602,778,o),
(602,577,cs),
(602,421,o),
(497,410,o),
(425,410,cs),
(324,410,l),
(324,389,l)
);
},
{
closed = 1;
nodes = (
(341,0,l),
(341,800,l),
(193,800,l),
(193,0,l)
);
},
{
closed = 1;
nodes = (
(849,33,l),
(789,9,o),
(766,48,o),
(761,75,cs),
(750,144,o),
(766,236,o),
(737,300,cs),
(708,367,o),
(617,395,o),
(525,402,cs),
(494,405,o),
(477,410,o),
(450,410,c),
(445,389,l),
(525,389,o),
(589,392,o),
(602,237,cs),
(605,202,o),
(606,108,o),
(629,54,cs),
(666,-34,o),
(801,-23,o),
(854,13,c)
);
}
);
width = 899;
},
{
anchors = (
{
name = bottom;
pos = (473,0);
},
{
name = top;
pos = (473,800);
}
);
hints = (
{
name = _corner.leftserif;
options = 1;
origin = (1,0);
scale = (-1,1);
type = Corner;
},
{
name = _corner.leftserif;
origin = (1,3);
type = Corner;
},
{
name = _corner.leftserif;
options = 1;
origin = (1,2);
scale = (-1,1);
type = Corner;
}
);
layerId = "DFBD2966-8600-4091-87AD-36DB30ECE1CF";
metricRight = "=A";
shapes = (
{
closed = 1;
nodes = (
(460,388,ls),
(628,388,o),
(779,408,o),
(779,570,cs),
(779,777,o),
(619,800,o),
(460,800,cs),
(236,800,l),
(236,779,l),
(435,779,ls),
(490,779,o),
(604,785,o),
(604,570,cs),
(605,415,o),
(502,412,o),
(434,412,cs),
(337,412,l),
(337,388,l)
);
},
{
closed = 1;
nodes = (
(355,0,l),
(355,800,l),
(187,800,l),
(187,0,l)
);
},
{
closed = 1;
nodes = (
(864,37,l),
(804,13,o),
(786,56,o),
(783,75,cs),
(773,144,o),
(788,236,o),
(759,300,cs),
(730,367,o),
(632,395,o),
(540,402,cs),
(509,405,o),
(492,412,o),
(465,412,c),
(460,388,l),
(541,387,o),
(594,393,o),
(607,237,cs),
(610,202,o),
(611,109,o),
(634,54,cs),
(671,-36,o),
(816,-23,o),
(869,13,c)
);
}
);
width = 909;
}
);
metricLeft = "=100";
metricRight = "=100";
unicode = 82;
},
{
color = 4;
glyphname = S;
lastChange = "2026-06-29 21:16:31 +0000";
layers = (
{
anchors = (
{
name = bottom;
pos = (371,0);
},
{
name = top;
pos = (371,800);
}
);
layerId = "E5DC9139-DBE8-45F6-BCD0-0641ED917C2C";
metricLeft = "=O";
metricRight = "=O";
shapes = (
{
closed = 1;
nodes = (
(545,-6,o),
(645,92,o),
(645,226,cs),
(645,480,o),
(187,445,o),
(189,627,cs),
(190,736,o),
(272,787,o),
(384,787,cs),
(494,787,o),
(579,734,o),
(591,645,c),
(583,654,o),
(569,661,o),
(557,661,cs),
(529,661,o),
(509,641,o),
(509,613,cs),
(509,585,o),
(529,566,o),
(557,566,cs),
(582,566,o),
(602,585,o),
(604,613,cs),
(613,725,o),
(523,802,o),
(385,802,cs),
(232,802,o),
(129,738,o),
(129,627,cs),
(128,382,o),
(579,454,o),
(581,208,cs),
(582,78,o),
(465,14,o),
(350,14,cs),
(201,14,o),
(101,120,o),
(113,252,c),
(101,252,l),
(91,105,o),
(194,-6,o),
(350,-6,cs)
);
}
);
width = 745;
},
{
anchors = (
{
name = bottom;
pos = (361,0);
},
{
name = top;
pos = (361,800);
}
);
layerId = "2F0BCB80-3430-4FA1-A4A3-7C385E8DAA98";
metricLeft = "=O";
metricRight = "=O";
shapes = (
{
closed = 1;
nodes = (
(590,0,o),
(635,165,o),
(635,224,cs),
(635,497,o),
(199,430,o),
(199,622,cs),
(199,691,o),
(268,780,o),
(374,789,cs),
(460,796,o),
(558,763,o),
(570,669,c),
(560,677,o),
(548,681,o),
(535,681,cs),
(502,681,o),
(474,653,o),
(474,620,cs),
(474,587,o),
(502,561,o),
(535,561,cs),
(568,561,o),
(592,587,o),
(594,620,cs),
(599,706,o),
(556,811,o),
(375,809,cs),
(196,807,o),
(112,705,o),
(112,605,cs),
(112,349,o),
(550,430,o),
(549,199,cs),
(549,125,o),
(467,25,o),
(323,25,cs),
(162,25,o),
(100,162,o),
(109,254,c),
(91,254,l),
(81,121,o),
(171,-7,o),
(340,-4,cs)
);
}
);
width = 725;
},
{
anchors = (
{
name = bottom;
pos = (346,0);
},
{
name = top;
pos = (346,800);
}
);
hints = (
{
horizontal = 1;
place = (796,23);
type = Stem;
},
{
horizontal = 1;
place = (558,146);
type = Stem;
},
{
horizontal = 1;
place = (-2,38);
type = Stem;
},
{
place = (501,33);
type = Stem;
},
{
place = (402,169);
type = Stem;
},
{
place = (388,146);
type = Stem;
},
{
place = (51,157);
type = Stem;
},
{
place = (31,21);
type = Stem;
}
);
layerId = m01;
metricLeft = "=O";
metricRight = "=O";
shapes = (
{
closed = 1;
nodes = (
(585,0,o),
(618,166,o),
(618,242,cs),
(618,496,o),
(237,440,o),
(237,632,cs),
(237,671,o),
(253,786,o),
(359,796,cs),
(461,805,o),
(543,749,o),
(546,694,c),
(534,701,o),
(521,704,o),
(507,704,cs),
(467,704,o),
(433,670,o),
(433,630,cs),
(433,589,o),
(467,558,o),
(507,558,cs),
(548,558,o),
(577,589,o),
(579,630,cs),
(582,711,o),
(541,821,o),
(360,819,cs),
(181,817,o),
(98,715,o),
(96,605,cs),
(91,338,o),
(479,392,o),
(479,198,cs),
(479,137,o),
(452,40,o),
(308,36,cs),
(154,31,o),
(88,164,o),
(97,256,c),
(76,256,l),
(65,122,o),
(156,-3,o),
(325,-2,cs)
);
}
);
width = 693;
},
{
anchors = (
{
name = bottom;
pos = (356,0);
},
{
name = top;
pos = (356,800);
}
);
hints = (
{
horizontal = 1;
place = (1095,32);
type = Stem;
},
{
horizontal = 1;
place = (767,201);
type = Stem;
},
{
horizontal = 1;
place = (-3,52);
type = Stem;
},
{
place = (689,45);
type = Stem;
},
{
place = (553,232);
type = Stem;
},
{
place = (534,201);
type = Stem;
},
{
place = (70,216);
type = Stem;
},
{
place = (43,29);
type = Stem;
}
);
layerId = "DFBD2966-8600-4091-87AD-36DB30ECE1CF";
metricLeft = "=O";
metricRight = "=O";
shapes = (
{
closed = 1;
nodes = (
(592,-8,o),
(634,162,o),
(634,233,cs),
(634,482,o),
(258,438,o),
(252,649,cs),
(251,675,o),
(263,788,o),
(369,799,cs),
(475,809,o),
(552,748,o),
(551,706,c),
(538,713,o),
(525,715,o),
(511,715,cs),
(468,715,o),
(430,678,o),
(430,635,cs),
(430,590,o),
(468,556,o),
(511,556,cs),
(556,556,o),
(587,590,o),
(589,635,cs),
(591,711,o),
(556,826,o),
(370,824,cs),
(187,822,o),
(96,715,o),
(95,603,cs),
(93,310,o),
(455,376,o),
(455,161,cs),
(455,108,o),
(418,42,o),
(318,42,cs),
(163,42,o),
(100,169,o),
(109,257,c),
(86,257,l),
(75,125,o),
(164,4,o),
(335,-1,cs)
);
}
);
width = 704;
}
);
unicode = 83;
},
{
color = 4;
glyphname = T;
lastChange = "2026-06-29 02:04:07 +0000";
layers = (
{
anchors = (
{
name = bottom;
pos = (335,0);
},
{
name = center;
pos = (335,400);
},
{
name = top;
pos = (335,800);
}
);
hints = (
{
name = _corner.leftserif;
options = 1;
origin = (0,0);
scale = (-1,1);
type = Corner;
},
{
name = _corner.leftserif;
origin = (0,3);
type = Corner;
}
);
layerId = "E5DC9139-DBE8-45F6-BCD0-0641ED917C2C";
metricLeft = "=A";
metricRight = "=A";
shapes = (
{
closed = 1;
nodes = (
(369,0,l),
(369,800,l),
(301,800,l),
(301,0,l)
);
},
{
closed = 1;
nodes = (
(75,716,o),
(107,790,o),
(183,790,c),
(60,790,l),
(60,639,l)
);
},
{
closed = 1;
nodes = (
(311,790,l),
(311,800,l),
(60,800,l),
(60,790,l)
);
},
{
closed = 1;
nodes = (
(610,790,l),
(497,790,l),
(563,790,o),
(595,716,o),
(610,639,c)
);
},
{
closed = 1;
nodes = (
(610,790,l),
(610,800,l),
(359,800,l),
(359,790,l)
);
}
);
width = 670;
},
{
anchors = (
{
name = bottom;
pos = (349,0);
},
{
name = center;
pos = (349,400);
},
{
name = top;
pos = (349,800);
}
);
hints = (
{
name = _corner.leftserif;
options = 1;
origin = (0,0);
scale = (-1,1);
type = Corner;
},
{
name = _corner.leftserif;
origin = (0,3);
type = Corner;
}
);
layerId = "2F0BCB80-3430-4FA1-A4A3-7C385E8DAA98";
metricLeft = "=A";
metricRight = "=A";
shapes = (
{
closed = 1;
nodes = (
(403,0,l),
(403,800,l),
(295,800,l),
(295,0,l)
);
},
{
closed = 1;
nodes = (
(73,698,o),
(110,785,o),
(200,785,c),
(55,785,l),
(55,607,l)
);
},
{
closed = 1;
nodes = (
(310,785,l),
(310,800,l),
(55,800,l),
(55,785,l)
);
},
{
closed = 1;
nodes = (
(643,785,l),
(498,785,l),
(587,785,o),
(624,698,o),
(643,607,c)
);
},
{
closed = 1;
nodes = (
(643,785,l),
(643,800,l),
(388,800,l),
(388,785,l)
);
}
);
width = 698;
},
{
anchors = (
{
name = bottom;
pos = (358,0);
},
{
name = center;
pos = (358,400);
},
{
name = top;
pos = (358,800);
}
);
hints = (
{
horizontal = 1;
place = (783,17);
type = Stem;
},
{
horizontal = 1;
place = (0,18);
type = Stem;
},
{
place = (405,23);
type = Stem;
},
{
place = (280,148);
type = Stem;
},
{
place = (280,22);
type = Stem;
},
{
name = _corner.leftserif;
options = 1;
origin = (0,0);
scale = (-1,1);
type = Corner;
},
{
name = _corner.leftserif;
origin = (0,3);
type = Corner;
}
);
layerId = m01;
metricLeft = "=A";
metricRight = "=A";
shapes = (
{
closed = 1;
nodes = (
(433,0,l),
(433,800,l),
(285,800,l),
(285,0,l)
);
},
{
closed = 1;
nodes = (
(66,684,o),
(107,783,o),
(211,783,c),
(45,783,l),
(45,579,l)
);
},
{
closed = 1;
nodes = (
(307,783,l),
(307,800,l),
(45,800,l),
(45,783,l)
);
},
{
closed = 1;
nodes = (
(671,783,l),
(500,783,l),
(607,783,o),
(648,683,o),
(671,579,c)
);
},
{
closed = 1;
nodes = (
(671,783,l),
(671,800,l),
(410,800,l),
(410,783,l)
);
}
);
width = 716;
},
{
anchors = (
{
name = bottom;
pos = (362,0);
},
{
name = center;
pos = (362,400);
},
{
name = top;
pos = (362,800);
}
);
hints = (
{
name = _corner.leftserif;
options = 1;
origin = (0,0);
scale = (-1,1);
type = Corner;
},
{
name = _corner.leftserif;
origin = (0,3);
type = Corner;
}
);
layerId = "DFBD2966-8600-4091-87AD-36DB30ECE1CF";
metricLeft = "=A";
metricRight = "=A";
shapes = (
{
closed = 1;
nodes = (
(448,0,l),
(448,800,l),
(280,800,l),
(280,0,l)
);
},
{
closed = 1;
nodes = (
(62,676,o),
(105,782,o),
(216,782,c),
(40,782,l),
(40,565,l)
);
},
{
closed = 1;
nodes = (
(305,782,l),
(305,800,l),
(40,800,l),
(40,782,l)
);
},
{
closed = 1;
nodes = (
(685,782,l),
(500,782,l),
(617,782,o),
(660,675,o),
(685,565,c)
);
},
{
closed = 1;
nodes = (
(685,782,l),
(685,800,l),
(421,800,l),
(421,782,l)
);
}
);
width = 725;
}
);
unicode = 84;
},
{
color = 4;
glyphname = U;
lastChange = "2026-06-29 02:04:26 +0000";
layers = (
{
anchors = (
{
name = bottom;
pos = (463,0);
},
{
name = ogonek;
pos = (833,10);
},
{
name = top;
pos = (463,800);
},
{
name = topright;
pos = (905,800);
}
);
hints = (
{
name = _corner.leftserif;
origin = (0,3);
type = Corner;
},
{
name = _corner.leftserif;
options = 1;
origin = (0,4);
scale = (-1,1);
type = Corner;
},
{
name = _corner.leftserif;
origin = (0,12);
type = Corner;
},
{
name = _corner.leftserif;
options = 1;
origin = (0,13);
scale = (-1,1);
type = Corner;
}
);
layerId = "E5DC9139-DBE8-45F6-BCD0-0641ED917C2C";
metricLeft = "=O";
metricRight = "=O";
shapes = (
{
closed = 1;
nodes = (
(632,-7,o),
(735,85,o),
(735,250,cs),
(735,800,l),
(725,800,l),
(725,250,ls),
(725,92,o),
(625,3,o),
(498,3,cs),
(339,3,o),
(258,92,o),
(258,250,cs),
(258,800,l),
(190,800,l),
(190,250,ls),
(190,85,o),
(295,-7,o),
(498,-7,cs)
);
}
);
width = 925;
},
{
anchors = (
{
name = bottom;
pos = (454,0);
},
{
name = ogonek;
pos = (816,10);
},
{
name = top;
pos = (454,800);
},
{
name = topright;
pos = (887,800);
}
);
hints = (
{
name = _corner.leftserif;
origin = (0,3);
type = Corner;
},
{
name = _corner.leftserif;
options = 1;
origin = (0,4);
scale = (-1,1);
type = Corner;
},
{
name = _corner.leftserif;
origin = (0,12);
type = Corner;
},
{
name = _corner.leftserif;
options = 1;
origin = (0,13);
scale = (-1,1);
type = Corner;
}
);
layerId = "2F0BCB80-3430-4FA1-A4A3-7C385E8DAA98";
metricLeft = "=O";
metricRight = "=O";
shapes = (
{
closed = 1;
nodes = (
(631,-7,o),
(727,78,o),
(727,250,cs),
(727,800,l),
(712,800,l),
(712,250,ls),
(712,88,o),
(621,8,o),
(490,8,cs),
(351,8,o),
(288,88,o),
(288,250,cs),
(288,800,l),
(180,800,l),
(180,250,ls),
(180,78,o),
(278,-7,o),
(490,-7,cs)
);
}
);
width = 907;
},
{
anchors = (
{
name = bottom;
pos = (436,0);
},
{
name = ogonek;
pos = (784,10);
},
{
name = top;
pos = (436,800);
},
{
name = topright;
pos = (851,800);
}
);
hints = (
{
horizontal = 1;
place = (783,17);
type = Stem;
},
{
horizontal = 1;
place = (-7,18);
type = Stem;
},
{
place = (593,105);
type = Stem;
},
{
place = (593,17);
type = Stem;
},
{
place = (523,87);
type = Stem;
},
{
place = (125,148);
type = Stem;
},
{
name = _corner.leftserif;
origin = (0,12);
type = Corner;
},
{
name = _corner.leftserif;
options = 2;
origin = (0,13);
scale = (-1,1);
type = Corner;
},
{
name = _corner.leftserif;
origin = (0,3);
type = Corner;
},
{
name = _corner.leftserif;
options = 2;
origin = (0,4);
scale = (-1,1);
type = Corner;
}
);
layerId = m01;
metricLeft = "=O";
metricRight = "=O";
shapes = (
{
closed = 1;
nodes = (
(627,-7,o),
(708,78,o),
(708,250,cs),
(708,800,l),
(691,800,l),
(691,250,ls),
(691,90,o),
(616,11,o),
(479,11,cs),
(362,11,o),
(311,90,o),
(311,250,cs),
(311,800,l),
(163,800,l),
(163,250,ls),
(163,78,o),
(263,-7,o),
(479,-7,cs)
);
}
);
width = 871;
},
{
anchors = (
{
name = bottom;
pos = (445,0);
},
{
name = ogonek;
pos = (787,10);
},
{
name = top;
pos = (445,800);
},
{
name = topright;
pos = (852,800);
}
);
hints = (
{
name = _corner.leftserif;
origin = (0,3);
type = Corner;
},
{
name = _corner.leftserif;
options = 1;
origin = (0,4);
scale = (-1,1);
type = Corner;
},
{
name = _corner.leftserif;
origin = (0,12);
type = Corner;
},
{
name = _corner.leftserif;
options = 1;
origin = (0,13);
scale = (-1,1);
type = Corner;
}
);
layerId = "DFBD2966-8600-4091-87AD-36DB30ECE1CF";
metricLeft = "=O";
metricRight = "=O";
shapes = (
{
closed = 1;
nodes = (
(642,-7,o),
(717,77,o),
(717,250,cs),
(717,800,l),
(699,800,l),
(699,250,ls),
(699,90,o),
(631,13,o),
(491,13,cs),
(385,13,o),
(340,90,o),
(340,250,cs),
(340,800,l),
(172,800,l),
(172,250,ls),
(172,77,o),
(272,-7,o),
(491,-7,cs)
);
}
);
width = 874;
}
);
metricLeft = "=100";
metricRight = "=100";
unicode = 85;
},
{
color = 4;
glyphname = V;
lastChange = "2026-06-29 02:04:55 +0000";
layers = (
{
anchors = (
{
name = bottom;
pos = (438,0);
},
{
name = top;
pos = (438,800);
}
);
hints = (
{
name = _corner.leftserif;
origin = (0,4);
type = Corner;
},
{
name = _corner.leftserif;
options = 1;
origin = (0,5);
scale = (-1,1);
type = Corner;
},
{
name = _corner.leftserif;
origin = (0,1);
type = Corner;
},
{
name = _corner.leftserif;
options = 1;
origin = (0,2);
scale = (-1,1);
type = Corner;
}
);
layerId = "E5DC9139-DBE8-45F6-BCD0-0641ED917C2C";
metricLeft = "=A-20";
metricRight = "=A-20";
shapes = (
{
closed = 1;
nodes = (
(453,0,l),
(750,800,l),
(740,800,l),
(467,68,l),
(199,800,l),
(126,800,l),
(422,0,l)
);
}
);
width = 876;
},
{
anchors = (
{
name = bottom;
pos = (443,0);
},
{
name = top;
pos = (443,800);
}
);
hints = (
{
name = _corner.leftserif;
origin = (0,4);
type = Corner;
},
{
name = _corner.leftserif;
options = 1;
origin = (0,5);
scale = (-1,1);
type = Corner;
},
{
name = _corner.leftserif;
origin = (0,1);
type = Corner;
},
{
name = _corner.leftserif;
options = 1;
origin = (0,2);
scale = (-1,1);
type = Corner;
}
);
layerId = "2F0BCB80-3430-4FA1-A4A3-7C385E8DAA98";
metricLeft = "=A-20";
metricRight = "=A-20";
shapes = (
{
closed = 1;
nodes = (
(461,0,l),
(767,800,l),
(751,800,l),
(491,121,l),
(234,800,l),
(119,800,l),
(423,0,l)
);
}
);
width = 886;
},
{
anchors = (
{
name = bottom;
pos = (444,0);
},
{
name = top;
pos = (444,800);
}
);
hints = (
{
horizontal = 1;
place = (783,17);
type = Stem;
},
{
place = (30,854);
type = Stem;
},
{
name = _corner.leftserif;
origin = (0,1);
type = Corner;
},
{
name = _corner.leftserif;
options = 1;
origin = (0,2);
scale = (-1,1);
type = Corner;
},
{
name = _corner.leftserif;
origin = (0,4);
type = Corner;
},
{
name = _corner.leftserif;
options = 1;
origin = (0,5);
scale = (-1,1);
type = Corner;
}
);
layerId = m01;
metricLeft = "=A-20";
metricRight = "=A-20";
shapes = (
{
closed = 1;
nodes = (
(464,0,l),
(783,800,l),
(764,800,l),
(512,172,l),
(262,800,l),
(105,800,l),
(421,0,l)
);
}
);
width = 888;
},
{
anchors = (
{
name = bottom;
pos = (444,0);
},
{
name = top;
pos = (444,800);
}
);
hints = (
{
name = _corner.leftserif;
origin = (0,4);
type = Corner;
},
{
name = _corner.leftserif;
options = 1;
origin = (0,5);
scale = (-1,1);
type = Corner;
},
{
name = _corner.leftserif;
origin = (0,1);
type = Corner;
},
{
name = _corner.leftserif;
options = 1;
origin = (0,2);
scale = (-1,1);
type = Corner;
}
);
layerId = "DFBD2966-8600-4091-87AD-36DB30ECE1CF";
metricLeft = "=A-20";
metricRight = "=A-20";
shapes = (
{
closed = 1;
nodes = (
(465,0,l),
(790,800,l),
(769,800,l),
(522,198,l),
(276,800,l),
(98,800,l),
(419,0,l)
);
}
);
width = 888;
}
);
metricLeft = "=100";
metricRight = "=100";
unicode = 86;
},
{
color = 4;
glyphname = W;
lastChange = "2026-06-29 02:04:55 +0000";
layers = (
{
anchors = (
{
name = bottom;
pos = (637,0);
},
{
name = top;
pos = (637,800);
}
);
hints = (
{
name = _corner.leftserif;
origin = (0,4);
type = Corner;
},
{
name = _corner.leftserif;
options = 1;
origin = (0,5);
scale = (-1,1);
type = Corner;
},
{
name = _corner.leftserif;
origin = (0,7);
type = Corner;
},
{
name = _corner.leftserif;
options = 1;
origin = (0,8);
scale = (-1,1);
type = Corner;
},
{
name = _corner.leftserif;
origin = (0,11);
type = Corner;
},
{
name = _corner.leftserif;
options = 1;
origin = (0,12);
scale = (-1,1);
type = Corner;
}
);
layerId = "E5DC9139-DBE8-45F6-BCD0-0641ED917C2C";
metricLeft = "=A-20";
metricRight = "=A-20";
shapes = (
{
closed = 1;
nodes = (
(443,0,l),
(635,538,l),
(829,0,l),
(858,0,l),
(1147,800,l),
(1136,800,l),
(874,75,l),
(613,800,l),
(541,800,l),
(630,552,l),
(459,76,l),
(199,800,l),
(126,800,l),
(414,0,l)
);
}
);
width = 1273;
},
{
anchors = (
{
name = bottom;
pos = (633,0);
},
{
name = top;
pos = (633,800);
}
);
hints = (
{
name = _corner.leftserif;
origin = (0,11);
type = Corner;
},
{
name = _corner.leftserif;
options = 1;
origin = (0,12);
scale = (-1,1);
type = Corner;
},
{
name = _corner.leftserif;
origin = (0,7);
type = Corner;
},
{
name = _corner.leftserif;
options = 1;
origin = (0,8);
scale = (-1,1);
type = Corner;
},
{
name = _corner.leftserif;
origin = (0,4);
type = Corner;
},
{
name = _corner.leftserif;
options = 1;
origin = (0,5);
scale = (-1,1);
type = Corner;
}
);
layerId = "2F0BCB80-3430-4FA1-A4A3-7C385E8DAA98";
metricLeft = "=A-20";
metricRight = "=A-20";
shapes = (
{
closed = 1;
nodes = (
(442,0,l),
(632,530,l),
(823,0,l),
(857,0,l),
(1146,800,l),
(1130,800,l),
(890,135,l),
(650,800,l),
(535,800,l),
(624,552,l),
(475,135,l),
(235,800,l),
(120,800,l),
(408,0,l)
);
}
);
width = 1266;
},
{
anchors = (
{
name = bottom;
pos = (621,0);
},
{
name = top;
pos = (621,800);
}
);
hints = (
{
horizontal = 1;
place = (783,17);
type = Stem;
},
{
place = (30,1205);
type = Stem;
},
{
name = _corner.leftserif;
origin = (0,4);
type = Corner;
},
{
name = _corner.leftserif;
options = 1;
origin = (0,5);
scale = (-1,1);
type = Corner;
},
{
name = _corner.leftserif;
origin = (0,7);
type = Corner;
},
{
name = _corner.leftserif;
options = 1;
origin = (0,8);
scale = (-1,1);
type = Corner;
},
{
name = _corner.leftserif;
origin = (0,11);
type = Corner;
},
{
name = _corner.leftserif;
options = 1;
origin = (0,12);
scale = (-1,1);
type = Corner;
}
);
layerId = m01;
metricLeft = "=A-20";
metricRight = "=A-20";
shapes = (
{
closed = 1;
nodes = (
(431,0,l),
(620,526,l),
(809,0,l),
(846,0,l),
(1135,800,l),
(1116,800,l),
(898,194,l),
(679,800,l),
(521,800,l),
(610,552,l),
(483,194,l),
(263,800,l),
(106,800,l),
(394,0,l)
);
}
);
width = 1241;
},
{
anchors = (
{
name = bottom;
pos = (615,0);
},
{
name = top;
pos = (615,800);
}
);
hints = (
{
name = _corner.leftserif;
origin = (0,4);
type = Corner;
},
{
name = _corner.leftserif;
options = 1;
origin = (0,5);
scale = (-1,1);
type = Corner;
},
{
name = _corner.leftserif;
origin = (0,7);
type = Corner;
},
{
name = _corner.leftserif;
options = 1;
origin = (0,8);
scale = (-1,1);
type = Corner;
},
{
name = _corner.leftserif;
origin = (0,11);
type = Corner;
},
{
name = _corner.leftserif;
options = 1;
origin = (0,12);
scale = (-1,1);
type = Corner;
}
);
layerId = "DFBD2966-8600-4091-87AD-36DB30ECE1CF";
metricLeft = "=A-20";
metricRight = "=A-20";
shapes = (
{
closed = 1;
nodes = (
(426,0,l),
(614,524,l),
(802,0,l),
(841,0,l),
(1130,800,l),
(1109,800,l),
(902,224,l),
(694,800,l),
(514,800,l),
(603,552,l),
(487,224,l),
(277,800,l),
(99,800,l),
(387,0,l)
);
}
);
width = 1229;
}
);
metricLeft = "=100";
metricRight = "=100";
unicode = 87;
},
{
color = 4;
glyphname = X;
lastChange = "2026-06-29 02:05:21 +0000";
layers = (
{
anchors = (
{
name = bottom;
pos = (419,0);
},
{
name = top;
pos = (419,800);
}
);
hints = (
{
name = _corner.leftserif;
options = 1;
origin = (0,0);
scale = (-1,1);
type = Corner;
},
{
name = _corner.leftserif;
origin = (0,3);
type = Corner;
},
{
name = _corner.leftserif;
options = 1;
origin = (1,0);
scale = (-1,1);
type = Corner;
},
{
name = _corner.leftserif;
origin = (1,3);
type = Corner;
},
{
name = _corner.leftserif;
origin = (0,1);
type = Corner;
},
{
name = _corner.leftserif;
options = 1;
origin = (0,2);
scale = (1,-1);
type = Corner;
},
{
name = _corner.leftserif;
origin = (2,0);
type = Corner;
},
{
name = _corner.leftserif;
options = 1;
origin = (2,1);
scale = (-1,1);
type = Corner;
}
);
layerId = "E5DC9139-DBE8-45F6-BCD0-0641ED917C2C";
metricLeft = "=A";
metricRight = "=A";
shapes = (
{
closed = 1;
nodes = (
(700,0,l),
(232,800,l),
(153,800,l),
(621,0,l)
);
},
{
closed = 1;
nodes = (
(156,0,l),
(408,392,l),
(400,397,l),
(144,0,l)
);
},
{
closed = 1;
nodes = (
(680,800,l),
(669,800,l),
(437,411,l),
(446,406,l)
);
}
);
width = 844;
},
{
anchors = (
{
name = bottom;
pos = (432,0);
},
{
name = top;
pos = (432,800);
}
);
hints = (
{
name = _corner.leftserif;
options = 1;
origin = (1,0);
scale = (-1,1);
type = Corner;
},
{
name = _corner.leftserif;
origin = (1,3);
type = Corner;
},
{
name = _corner.leftserif;
options = 1;
origin = (0,0);
scale = (-1,1);
type = Corner;
},
{
name = _corner.leftserif;
origin = (0,3);
type = Corner;
},
{
name = _corner.leftserif;
origin = (2,0);
type = Corner;
},
{
name = _corner.leftserif;
options = 1;
origin = (2,1);
scale = (-1,1);
type = Corner;
},
{
name = _corner.leftserif;
origin = (0,1);
type = Corner;
},
{
name = _corner.leftserif;
options = 1;
origin = (0,2);
scale = (-1,1);
type = Corner;
}
);
layerId = "2F0BCB80-3430-4FA1-A4A3-7C385E8DAA98";
metricLeft = "=A";
metricRight = "=A";
shapes = (
{
closed = 1;
nodes = (
(729,0,l),
(261,800,l),
(136,800,l),
(604,0,l)
);
},
{
closed = 1;
nodes = (
(159,0,l),
(411,392,l),
(398,400,l),
(141,0,l)
);
},
{
closed = 1;
nodes = (
(683,800,l),
(666,800,l),
(436,414,l),
(449,406,l)
);
}
);
width = 865;
},
{
anchors = (
{
name = bottom;
pos = (461,0);
},
{
name = top;
pos = (461,800);
}
);
hints = (
{
horizontal = 1;
place = (783,17);
type = Stem;
},
{
horizontal = 1;
place = (0,18);
type = Stem;
},
{
place = (30,810);
type = Stem;
},
{
name = _corner.leftserif;
options = 1;
origin = (1,0);
scale = (-1,1);
type = Corner;
},
{
name = _corner.leftserif;
origin = (1,3);
type = Corner;
},
{
name = _corner.leftserif;
options = 1;
origin = (0,0);
scale = (-1,1);
type = Corner;
},
{
name = _corner.leftserif;
origin = (0,3);
type = Corner;
},
{
name = _corner.leftserif;
origin = (2,0);
type = Corner;
},
{
name = _corner.leftserif;
options = 1;
origin = (2,1);
scale = (-1,1);
type = Corner;
},
{
name = _corner.leftserif;
origin = (0,1);
type = Corner;
},
{
name = _corner.leftserif;
options = 1;
origin = (0,2);
scale = (-1,1);
type = Corner;
}
);
layerId = m01;
metricLeft = "=A+20";
metricRight = "=A+20";
shapes = (
{
closed = 1;
nodes = (
(780,0,l),
(312,800,l),
(141,800,l),
(609,0,l)
);
},
{
closed = 1;
nodes = (
(174,0,l),
(426,392,l),
(410,402,l),
(153,0,l)
);
},
{
closed = 1;
nodes = (
(708,800,l),
(688,800,l),
(459,416,l),
(474,406,l)
);
}
);
width = 921;
},
{
anchors = (
{
name = bottom;
pos = (485,0);
},
{
name = top;
pos = (485,800);
}
);
hints = (
{
name = _corner.leftserif;
options = 1;
origin = (0,0);
scale = (-1,1);
type = Corner;
},
{
name = _corner.leftserif;
origin = (0,3);
type = Corner;
},
{
name = _corner.leftserif;
options = 1;
origin = (1,0);
scale = (-1,1);
type = Corner;
},
{
name = _corner.leftserif;
origin = (1,3);
type = Corner;
},
{
name = _corner.leftserif;
origin = (0,1);
type = Corner;
},
{
name = _corner.leftserif;
options = 1;
origin = (0,2);
scale = (-1.25,1.25);
type = Corner;
},
{
name = _corner.leftserif;
origin = (2,0);
type = Corner;
},
{
name = _corner.leftserif;
options = 1;
origin = (2,1);
scale = (-1,1);
type = Corner;
}
);
layerId = "DFBD2966-8600-4091-87AD-36DB30ECE1CF";
metricLeft = "=A+20";
metricRight = "=A+20";
shapes = (
{
closed = 1;
nodes = (
(814,0,l),
(346,800,l),
(152,800,l),
(620,0,l)
);
},
{
closed = 1;
nodes = (
(191,0,l),
(443,392,l),
(425,403,l),
(168,0,l)
);
},
{
closed = 1;
nodes = (
(729,800,l),
(707,800,l),
(479,417,l),
(495,406,l)
);
}
);
width = 948;
}
);
metricLeft = A;
unicode = 88;
},
{
color = 4;
glyphname = Y;
lastChange = "2026-06-29 02:05:42 +0000";
layers = (
{
anchors = (
{
name = bottom;
pos = (426,0);
},
{
name = top;
pos = (426,800);
},
{
name = topleft;
pos = (-20,800);
}
);
hints = (
{
name = _corner.leftserif;
options = 1;
origin = (0,0);
scale = (-1,1);
type = Corner;
},
{
name = _corner.leftserif;
origin = (0,5);
type = Corner;
},
{
name = _corner.leftserif;
origin = (0,2);
type = Corner;
},
{
name = _corner.leftserif;
options = 1;
origin = (0,3);
scale = (-1,1);
type = Corner;
},
{
name = _corner.leftserif;
origin = (1,0);
type = Corner;
},
{
name = _corner.leftserif;
options = 1;
origin = (1,1);
scale = (-1,1);
type = Corner;
}
);
layerId = "E5DC9139-DBE8-45F6-BCD0-0641ED917C2C";
metricLeft = "=A";
metricRight = "=A";
shapes = (
{
closed = 1;
nodes = (
(468,0,l),
(468,404,l),
(224,800,l),
(144,800,l),
(400,385,l),
(400,0,l)
);
},
{
closed = 1;
nodes = (
(707,800,l),
(695,800,l),
(424,349,l),
(433,344,l)
);
}
);
width = 851;
},
{
anchors = (
{
name = bottom;
pos = (433,0);
},
{
name = top;
pos = (433,800);
},
{
name = topleft;
pos = (-25,800);
}
);
hints = (
{
name = _corner.leftserif;
options = 1;
origin = (0,0);
scale = (-1,1);
type = Corner;
},
{
name = _corner.leftserif;
origin = (0,5);
type = Corner;
},
{
name = _corner.leftserif;
origin = (0,2);
type = Corner;
},
{
name = _corner.leftserif;
options = 1;
origin = (0,3);
scale = (-1,1);
type = Corner;
},
{
name = _corner.leftserif;
origin = (1,0);
type = Corner;
},
{
name = _corner.leftserif;
options = 1;
origin = (1,1);
scale = (-1,1);
type = Corner;
}
);
layerId = "2F0BCB80-3430-4FA1-A4A3-7C385E8DAA98";
metricLeft = "=A";
metricRight = "=A";
shapes = (
{
closed = 1;
nodes = (
(499,0,l),
(499,416,l),
(263,800,l),
(136,800,l),
(391,385,l),
(391,0,l)
);
},
{
closed = 1;
nodes = (
(730,800,l),
(713,800,l),
(437,332,l),
(450,324,l)
);
}
);
width = 866;
},
{
anchors = (
{
name = bottom;
pos = (416,0);
},
{
name = top;
pos = (416,800);
},
{
name = topleft;
pos = (-48,800);
}
);
hints = (
{
horizontal = 1;
place = (783,17);
type = Stem;
},
{
horizontal = 1;
place = (0,18);
type = Stem;
},
{
place = (373,138);
type = Stem;
},
{
name = _corner.leftserif;
options = 1;
origin = (0,0);
scale = (-1,1);
type = Corner;
},
{
name = _corner.leftserif;
origin = (0,5);
type = Corner;
},
{
name = _corner.leftserif;
origin = (1,0);
type = Corner;
},
{
name = _corner.leftserif;
options = 1;
origin = (1,1);
scale = (-1,1);
type = Corner;
},
{
name = _corner.leftserif;
origin = (0,2);
type = Corner;
},
{
name = _corner.leftserif;
options = 1;
origin = (0,3);
scale = (-1,1);
type = Corner;
}
);
layerId = m01;
metricLeft = "=A-10";
metricRight = "=A-10";
shapes = (
{
closed = 1;
nodes = (
(504,0,l),
(504,425,l),
(274,800,l),
(111,800,l),
(366,385,l),
(366,0,l)
);
},
{
closed = 1;
nodes = (
(721,800,l),
(701,800,l),
(423,314,l),
(438,304,l)
);
}
);
width = 833;
},
{
anchors = (
{
name = bottom;
pos = (413,0);
},
{
name = top;
pos = (413,800);
},
{
name = topleft;
pos = (-55,800);
}
);
hints = (
{
name = _corner.leftserif;
options = 1;
origin = (0,0);
scale = (-1,1);
type = Corner;
},
{
name = _corner.leftserif;
origin = (0,5);
type = Corner;
},
{
name = _corner.leftserif;
origin = (0,2);
type = Corner;
},
{
name = _corner.leftserif;
options = 1;
origin = (0,3);
scale = (-1,1);
type = Corner;
},
{
name = _corner.leftserif;
origin = (1,0);
type = Corner;
},
{
name = _corner.leftserif;
options = 1;
origin = (1,1);
scale = (-1,1);
type = Corner;
}
);
layerId = "DFBD2966-8600-4091-87AD-36DB30ECE1CF";
metricLeft = "=A-10";
metricRight = "=A-10";
shapes = (
{
closed = 1;
nodes = (
(512,0,l),
(512,430,l),
(285,800,l),
(103,800,l),
(358,385,l),
(358,0,l)
);
},
{
closed = 1;
nodes = (
(723,800,l),
(701,800,l),
(421,305,l),
(438,294,l)
);
}
);
width = 827;
}
);
metricLeft = A;
metricRight = "=100";
unicode = 89;
},
{
color = 4;
glyphname = Z;
lastChange = "2026-06-29 02:06:02 +0000";
layers = (
{
anchors = (
{
name = bottom;
pos = (322,0);
},
{
name = center;
pos = (322,400);
},
{
name = top;
pos = (322,800);
}
);
layerId = "E5DC9139-DBE8-45F6-BCD0-0641ED917C2C";
metricLeft = "=A";
metricRight = "=A";
shapes = (
{
closed = 1;
nodes = (
(138,0,l),
(583,800,l),
(506,800,l),
(60,0,l)
);
},
{
closed = 1;
nodes = (
(578,0,l),
(578,10,l),
(126,10,l),
(126,0,l)
);
},
{
closed = 1;
nodes = (
(578,10,l),
(578,161,l),
(563,84,o),
(531,10,o),
(465,10,c)
);
},
{
closed = 1;
nodes = (
(100,716,o),
(132,790,o),
(208,790,c),
(85,790,l),
(85,639,l)
);
},
{
closed = 1;
nodes = (
(576,790,l),
(576,800,l),
(85,800,l),
(85,790,l)
);
}
);
width = 643;
},
{
anchors = (
{
name = bottom;
pos = (340,0);
},
{
name = center;
pos = (340,400);
},
{
name = top;
pos = (340,800);
}
);
layerId = "2F0BCB80-3430-4FA1-A4A3-7C385E8DAA98";
metricLeft = "=A";
metricRight = "=A";
shapes = (
{
closed = 1;
nodes = (
(179,0,l),
(625,800,l),
(501,800,l),
(55,0,l)
);
},
{
closed = 1;
nodes = (
(621,0,l),
(621,15,l),
(119,15,l),
(119,0,l)
);
},
{
closed = 1;
nodes = (
(621,15,l),
(621,193,l),
(602,102,o),
(565,15,o),
(476,15,c)
);
},
{
closed = 1;
nodes = (
(107,698,o),
(144,785,o),
(234,785,c),
(89,785,l),
(89,607,l)
);
},
{
closed = 1;
nodes = (
(610,785,l),
(610,800,l),
(89,800,l),
(89,785,l)
);
}
);
width = 680;
},
{
anchors = (
{
name = bottom;
pos = (354,0);
},
{
name = center;
pos = (354,400);
},
{
name = top;
pos = (354,800);
}
);
hints = (
{
horizontal = 1;
place = (783,17);
type = Stem;
},
{
horizontal = 1;
place = (0,18);
type = Stem;
},
{
place = (40,617);
type = Stem;
}
);
layerId = m01;
metricLeft = "=A";
metricRight = "=A";
shapes = (
{
closed = 1;
nodes = (
(215,0,l),
(662,800,l),
(491,800,l),
(45,0,l)
);
},
{
closed = 1;
nodes = (
(654,0,l),
(654,18,l),
(122,18,l),
(122,0,l)
);
},
{
closed = 1;
nodes = (
(654,18,l),
(654,221,l),
(631,117,o),
(590,18,o),
(483,18,c)
);
},
{
closed = 1;
nodes = (
(111,683,o),
(153,783,o),
(257,783,c),
(91,783,l),
(91,579,l)
);
},
{
closed = 1;
nodes = (
(639,783,l),
(639,800,l),
(91,800,l),
(91,783,l)
);
}
);
width = 707;
},
{
anchors = (
{
name = bottom;
pos = (361,0);
},
{
name = center;
pos = (361,400);
},
{
name = top;
pos = (361,800);
}
);
hints = (
{
horizontal = 1;
place = (1077,23);
type = Stem;
},
{
horizontal = 1;
place = (0,25);
type = Stem;
},
{
place = (55,848);
type = Stem;
}
);
layerId = "DFBD2966-8600-4091-87AD-36DB30ECE1CF";
metricLeft = "=A";
metricRight = "=A";
shapes = (
{
closed = 1;
nodes = (
(233,0,l),
(680,800,l),
(486,800,l),
(40,0,l)
);
},
{
closed = 1;
nodes = (
(671,0,l),
(671,20,l),
(121,20,l),
(121,0,l)
);
},
{
closed = 1;
nodes = (
(671,20,l),
(671,236,l),
(646,125,o),
(603,20,o),
(486,20,c)
);
},
{
closed = 1;
nodes = (
(112,675,o),
(157,782,o),
(268,782,c),
(91,782,l),
(91,565,l)
);
},
{
closed = 1;
nodes = (
(653,782,l),
(653,800,l),
(91,800,l),
(91,782,l)
);
}
);
width = 720;
}
);
unicode = 90;
},
{
color = 4;
glyphname = A.001;
lastChange = "2026-06-29 02:06:24 +0000";
layers = (
{
anchors = (
{
name = bottom;
pos = (426,0);
},
{
name = ogonek;
pos = (751,10);
},
{
name = top;
pos = (426,800);
}
);
layerId = "E5DC9139-DBE8-45F6-BCD0-0641ED917C2C";
metricLeft = "=A";
shapes = (
{
closed = 1;
nodes = (
(240,0,l),
(240,10,l),
(151,10,l),
(240,253,l),
(559,253,l),
(642,10,l),
(537,10,l),
(537,0,l),
(792,0,l),
(792,10,l),
(713,10,l),
(437,808,l),
(432,808,l),
(141,10,l),
(60,10,l),
(60,0,l)
);
},
{
closed = 1;
nodes = (
(405,704,l),
(556,263,l),
(244,263,l)
);
}
);
width = 892;
},
{
anchors = (
{
name = bottom;
pos = (421,0);
},
{
name = ogonek;
pos = (745,10);
},
{
name = top;
pos = (421,800);
}
);
layerId = "2F0BCB80-3430-4FA1-A4A3-7C385E8DAA98";
metricLeft = "=A";
shapes = (
{
closed = 1;
nodes = (
(245,0,l),
(245,15,l),
(155,15,l),
(239,258,l),
(521,258,l),
(600,15,l),
(502,15,l),
(502,0,l),
(786,0,l),
(786,15,l),
(708,15,l),
(435,808,l),
(413,808,l),
(139,15,l),
(55,15,l),
(55,0,l)
);
},
{
closed = 1;
nodes = (
(382,674,l),
(516,273,l),
(244,273,l)
);
}
);
width = 886;
},
{
anchors = (
{
name = bottom;
pos = (414,0);
},
{
name = ogonek;
pos = (740,10);
},
{
name = top;
pos = (414,800);
}
);
hints = (
{
horizontal = 1;
place = (266,17);
type = Stem;
},
{
horizontal = 1;
place = (0,18);
type = Stem;
},
{
place = (40,737);
type = Stem;
}
);
layerId = m01;
metricLeft = "=A";
metricRight = "=A";
shapes = (
{
closed = 1;
nodes = (
(250,0,l),
(250,18,l),
(156,18,l),
(235,266,l),
(487,266,l),
(562,18,l),
(464,18,l),
(464,0,l),
(782,0,l),
(782,18,l),
(704,18,l),
(434,808,l),
(391,808,l),
(137,18,l),
(45,18,l),
(45,0,l)
);
},
{
closed = 1;
nodes = (
(359,661,l),
(481,283,l),
(241,283,l)
);
}
);
width = 827;
},
{
anchors = (
{
name = bottom;
pos = (410,0);
},
{
name = ogonek;
pos = (736,10);
},
{
name = top;
pos = (410,800);
}
);
hints = (
{
horizontal = 1;
place = (366,23);
type = Stem;
},
{
horizontal = 1;
place = (0,25);
type = Stem;
},
{
place = (55,1013);
type = Stem;
}
);
layerId = "DFBD2966-8600-4091-87AD-36DB30ECE1CF";
metricLeft = "=A";
metricRight = "=A";
shapes = (
{
closed = 1;
nodes = (
(252,0,l),
(252,20,l),
(156,20,l),
(232,270,l),
(469,270,l),
(542,20,l),
(444,20,l),
(444,0,l),
(779,0,l),
(779,20,l),
(701,20,l),
(432,808,l),
(379,808,l),
(135,20,l),
(40,20,l),
(40,0,l)
);
},
{
closed = 1;
nodes = (
(347,652,l),
(462,288,l),
(239,288,l)
);
}
);
width = 819;
}
);
metricLeft = A;
},
{
color = 4;
glyphname = V.001;
lastChange = "2026-06-29 02:06:51 +0000";
layers = (
{
anchors = (
{
name = bottom;
pos = (376,0);
},
{
name = top;
pos = (376,800);
}
);
layerId = "E5DC9139-DBE8-45F6-BCD0-0641ED917C2C";
metricLeft = "=V";
metricRight = "=V";
shapes = (
{
closed = 1;
nodes = (
(379,0,l),
(393,73,l),
(117,800,l),
(40,800,l),
(349,0,l)
);
},
{
attr = {
lineCapEnd = "4";
strokePos = "1";
strokeWidth = 10;
};
closed = 0;
nodes = (
(830,723,l),
(836,847,o),
(658,856,o),
(611,720,c),
(369,2,l)
);
},
{
attr = {
strokePos = "1";
};
closed = 1;
nodes = (
(800,667,o),
(828,690,o),
(830,723,cs),
(831,756,o),
(807,783,o),
(774,785,cs),
(742,787,o),
(715,761,o),
(713,729,cs),
(711,697,o),
(735,670,o),
(767,668,cs)
);
}
);
width = 870;
},
{
anchors = (
{
name = bottom;
pos = (430,0);
},
{
name = top;
pos = (430,800);
}
);
layerId = "2F0BCB80-3430-4FA1-A4A3-7C385E8DAA98";
metricLeft = "=V";
metricRight = "=V";
shapes = (
{
closed = 1;
nodes = (
(384,0,l),
(417,125,l),
(152,800,l),
(35,800,l),
(351,0,l)
);
},
{
attr = {
lineCapEnd = 4;
strokePos = "1";
strokeWidth = 15;
};
closed = 0;
nodes = (
(825,723,l),
(831,847,o),
(653,856,o),
(606,720,c),
(374,2,l)
);
},
{
attr = {
strokePos = "1";
};
closed = 1;
nodes = (
(795,667,o),
(823,690,o),
(825,723,cs),
(826,756,o),
(802,783,o),
(769,785,cs),
(737,787,o),
(710,761,o),
(708,729,cs),
(706,697,o),
(730,670,o),
(762,668,cs)
);
}
);
width = 860;
},
{
anchors = (
{
name = bottom;
pos = (420,0);
},
{
name = top;
pos = (420,800);
}
);
hints = (
{
horizontal = 1;
place = (654,146);
type = Stem;
},
{
place = (30,147);
type = Stem;
}
);
layerId = m01;
metricLeft = "=V";
metricRight = "=V";
shapes = (
{
closed = 1;
nodes = (
(394,0,l),
(433,155,l),
(182,800,l),
(25,800,l),
(351,0,l)
);
},
{
attr = {
lineCapEnd = 4;
strokePos = "1";
strokeWidth = 20;
};
closed = 0;
nodes = (
(815,723,l),
(821,847,o),
(643,856,o),
(596,720,c),
(375,3,l)
);
},
{
attr = {
strokePos = "1";
};
closed = 1;
nodes = (
(777,652,o),
(812,682,o),
(815,723,cs),
(816,764,o),
(786,799,o),
(744,801,cs),
(704,803,o),
(670,771,o),
(667,731,cs),
(665,690,o),
(695,656,o),
(736,654,cs)
);
}
);
width = 840;
},
{
anchors = (
{
name = bottom;
pos = (422,0);
},
{
name = top;
pos = (422,800);
}
);
hints = (
{
horizontal = 1;
place = (899,201);
type = Stem;
},
{
place = (41,202);
type = Stem;
}
);
layerId = "DFBD2966-8600-4091-87AD-36DB30ECE1CF";
metricLeft = "=V";
metricRight = "=V";
shapes = (
{
closed = 1;
nodes = (
(397,0,l),
(441,173,l),
(197,800,l),
(20,800,l),
(350,0,l)
);
},
{
attr = {
lineCapEnd = "4";
strokePos = 1;
strokeWidth = 22.5;
};
closed = 0;
nodes = (
(810,723,l),
(816,847,o),
(638,856,o),
(591,720,c),
(375,3,l)
);
},
{
attr = {
strokePos = 1;
};
closed = 1;
nodes = (
(769,646,o),
(806,678,o),
(810,723,cs),
(811,767,o),
(778,805,o),
(733,807,cs),
(690,809,o),
(653,774,o),
(650,732,cs),
(648,688,o),
(681,651,o),
(725,649,cs)
);
}
);
width = 830;
}
);
metricLeft = A;
metricRight = "=100";
},
{
color = 4;
glyphname = A.ss01;
lastChange = "2026-06-29 02:06:40 +0000";
layers = (
{
anchors = (
{
name = bottom;
pos = (430,0);
},
{
name = ogonek;
pos = (809,10);
},
{
name = top;
pos = (430,800);
}
);
hints = (
{
name = _corner.leftserif;
origin = (0,16);
type = Corner;
},
{
name = _corner.leftserif;
options = 1;
origin = (0,0);
scale = (-1,1);
type = Corner;
},
{
name = _corner.leftserif;
origin = (0,3);
type = Corner;
},
{
name = _corner.leftserif;
options = 1;
origin = (0,4);
scale = (-1,1);
type = Corner;
}
);
layerId = "2F0BCB80-3430-4FA1-A4A3-7C385E8DAA98";
metricLeft = "=A";
metricRight = "=A";
shapes = (
{
closed = 1;
nodes = (
(156,0,l),
(243,253,l),
(519,253,l),
(606,0,l),
(719,0,l),
(456,765,l),
(443,804,o),
(428,824,o),
(385,824,cs),
(365,824,o),
(341,814,o),
(321,783,c),
(325,773,l),
(347,803,o),
(425,828,o),
(397,743,c),
(140,0,l)
);
},
{
closed = 1;
nodes = (
(382,656,l),
(514,268,l),
(248,268,l)
);
}
);
width = 859;
},
{
anchors = (
{
name = bottom;
pos = (436,0);
},
{
name = ogonek;
pos = (817,10);
},
{
name = top;
pos = (436,800);
}
);
hints = (
{
name = _corner.leftserif;
origin = (0,3);
type = Corner;
},
{
name = _corner.leftserif;
options = 1;
origin = (0,4);
scale = (-1,1);
type = Corner;
},
{
name = _corner.leftserif;
origin = (0,16);
type = Corner;
},
{
name = _corner.leftserif;
options = 1;
origin = (0,0);
scale = (-1,1);
type = Corner;
}
);
layerId = "E5DC9139-DBE8-45F6-BCD0-0641ED917C2C";
metricLeft = "=A";
metricRight = "=A";
shapes = (
{
closed = 1;
nodes = (
(156,0,l),
(249,253,l),
(568,253,l),
(654,0,l),
(725,0,l),
(458,772,l),
(446,807,o),
(433,827,o),
(395,824,cs),
(379,823,o),
(361,814,o),
(341,783,c),
(344,775,l),
(369,812,o),
(446,831,o),
(415,737,c),
(146,0,l)
);
},
{
closed = 1;
nodes = (
(414,704,l),
(565,263,l),
(253,263,l)
);
}
);
width = 872;
},
{
anchors = (
{
name = bottom;
pos = (417,0);
},
{
name = ogonek;
pos = (795,10);
},
{
name = top;
pos = (417,800);
}
);
hints = (
{
horizontal = 1;
place = (799,25);
type = Stem;
},
{
horizontal = 1;
place = (253,18);
type = Stem;
},
{
horizontal = 1;
place = (0,18);
type = Stem;
},
{
place = (40,180);
type = Stem;
},
{
name = _corner.leftserif;
options = 1;
origin = (0,4);
scale = (-1,1);
type = Corner;
},
{
name = _corner.leftserif;
origin = (0,3);
type = Corner;
},
{
name = _corner.leftserif;
origin = (0,16);
type = Corner;
},
{
name = _corner.leftserif;
options = 1;
origin = (0,0);
scale = (-1,1);
type = Corner;
}
);
layerId = m01;
metricLeft = "=A";
metricRight = "=A";
shapes = (
{
closed = 1;
nodes = (
(146,0,l),
(226,253,l),
(463,253,l),
(549,0,l),
(707,0,l),
(448,756,ls),
(434,800,o),
(414,822,o),
(366,824,cs),
(343,825,o),
(317,814,o),
(297,783,c),
(303,770,l),
(320,793,o),
(391,825,o),
(373,760,c),
(127,0,l)
);
},
{
closed = 1;
nodes = (
(340,616,l),
(457,271,l),
(232,271,l)
);
}
);
width = 833;
},
{
anchors = (
{
name = bottom;
pos = (410,0);
},
{
name = ogonek;
pos = (788,10);
},
{
name = top;
pos = (410,800);
}
);
hints = (
{
name = _corner.leftserif;
origin = (0,3);
type = Corner;
},
{
name = _corner.leftserif;
options = 1;
origin = (0,4);
scale = (-1,1);
type = Corner;
},
{
name = _corner.leftserif;
origin = (0,16);
type = Corner;
},
{
name = _corner.leftserif;
options = 1;
origin = (0,0);
scale = (-1,1);
type = Corner;
}
);
layerId = "DFBD2966-8600-4091-87AD-36DB30ECE1CF";
metricLeft = "=A";
metricRight = "=A";
shapes = (
{
closed = 1;
nodes = (
(141,0,l),
(218,253,l),
(435,253,l),
(521,0,l),
(701,0,l),
(444,752,l),
(429,799,o),
(406,821,o),
(357,824,cs),
(331,826,o),
(305,814,o),
(285,783,c),
(291,769,l),
(306,788,o),
(375,824,o),
(361,767,c),
(120,0,l)
);
},
{
closed = 1;
nodes = (
(319,595,l),
(428,273,l),
(224,273,l)
);
}
);
width = 820;
}
);
metricLeft = "=100";
metricRight = "=100";
},
{
color = 4;
glyphname = B.ss01;
lastChange = "2026-06-29 02:07:01 +0000";
layers = (
{
anchors = (
{
name = bottom;
pos = (406,0);
},
{
name = center;
pos = (213,240);
},
{
name = top;
pos = (406,800);
}
);
hints = (
{
name = _corner.leftserif;
origin = (0,21);
type = Corner;
}
);
layerId = "E5DC9139-DBE8-45F6-BCD0-0641ED917C2C";
metricLeft = "=B";
metricRight = "=B";
shapes = (
{
closed = 1;
nodes = (
(395,0,ls),
(546,0,o),
(691,33,o),
(691,218,cs),
(691,357,o),
(600,407,o),
(480,421,c),
(602,433,o),
(661,480,o),
(661,604,cs),
(661,775,o),
(516,800,o),
(395,800,cs),
(226,800,ls),
(193,800,o),
(163,790,o),
(143,759,c),
(147,749,l),
(169,780,o),
(210,797,o),
(210,714,c),
(210,0,l)
);
},
{
closed = 1;
nodes = (
(278,417,l),
(394,417,ls),
(486,417,o),
(603,374,o),
(606,218,cs),
(606,47,o),
(480,10,o),
(395,10,cs),
(278,10,l)
);
},
{
closed = 1;
nodes = (
(278,716,ls),
(278,754,o),
(270,777,o),
(257,789,c),
(395,789,ls),
(465,789,o),
(581,761,o),
(581,592,cs),
(578,468,o),
(486,425,o),
(394,425,cs),
(278,425,l)
);
}
);
width = 771;
},
{
anchors = (
{
name = bottom;
pos = (401,0);
},
{
name = center;
pos = (208,240);
},
{
name = top;
pos = (401,800);
}
);
hints = (
{
name = _corner.leftserif;
origin = (0,21);
type = Corner;
}
);
layerId = "2F0BCB80-3430-4FA1-A4A3-7C385E8DAA98";
metricLeft = "=B";
metricRight = "=B";
shapes = (
{
closed = 1;
nodes = (
(390,0,ls),
(541,0,o),
(686,33,o),
(686,218,cs),
(686,349,o),
(605,403,o),
(495,421,c),
(604,437,o),
(656,487,o),
(656,604,cs),
(656,775,o),
(511,800,o),
(390,800,cs),
(231,800,ls),
(198,800,o),
(158,790,o),
(138,759,c),
(142,749,l),
(164,780,o),
(205,777,o),
(205,714,c),
(205,0,l)
);
},
{
closed = 1;
nodes = (
(303,415,l),
(389,415,ls),
(471,415,o),
(581,376,o),
(581,218,cs),
(581,42,o),
(462,15,o),
(390,15,cs),
(303,15,l)
);
},
{
closed = 1;
nodes = (
(303,716,ls),
(303,745,o),
(296,772,o),
(284,785,c),
(390,785,ls),
(430,785,o),
(556,767,o),
(556,592,cs),
(556,466,o),
(471,426,o),
(389,426,cs),
(303,426,l)
);
}
);
width = 761;
},
{
anchors = (
{
name = bottom;
pos = (390,0);
},
{
name = center;
pos = (197,240);
},
{
name = top;
pos = (390,800);
}
);
hints = (
{
horizontal = 1;
place = (784,16);
type = Stem;
},
{
horizontal = 1;
place = (766,34);
type = Stem;
},
{
horizontal = 1;
place = (413,14);
type = Stem;
},
{
horizontal = 1;
place = (0,18);
type = Stem;
},
{
place = (478,125);
type = Stem;
},
{
place = (453,120);
type = Stem;
},
{
place = (122,123);
type = Stem;
},
{
name = _corner.leftserif;
origin = (0,21);
type = Corner;
}
);
layerId = m01;
metricLeft = "=B";
metricRight = "=B";
shapes = (
{
closed = 1;
nodes = (
(378,0,ls),
(529,0,o),
(674,33,o),
(674,218,cs),
(674,340,o),
(604,399,o),
(505,421,c),
(600,441,o),
(644,495,o),
(644,604,cs),
(644,775,o),
(499,800,o),
(378,800,cs),
(224,800,ls),
(191,800,o),
(146,790,o),
(126,759,c),
(130,749,l),
(152,780,o),
(193,767,o),
(193,714,c),
(193,0,l)
);
},
{
closed = 1;
nodes = (
(316,413,l),
(377,413,ls),
(444,413,o),
(554,380,o),
(549,218,cs),
(549,35,o),
(434,18,o),
(378,18,cs),
(316,18,l)
);
},
{
closed = 1;
nodes = (
(316,716,ls),
(316,737,o),
(309,770,o),
(297,784,c),
(378,784,ls),
(393,784,o),
(524,776,o),
(524,592,c),
(529,462,o),
(444,427,o),
(377,427,cs),
(316,427,l)
);
}
);
width = 739;
},
{
anchors = (
{
name = bottom;
pos = (384,0);
},
{
name = center;
pos = (191,240);
},
{
name = top;
pos = (384,800);
}
);
hints = (
{
name = _corner.leftserif;
origin = (0,21);
type = Corner;
}
);
layerId = "DFBD2966-8600-4091-87AD-36DB30ECE1CF";
metricLeft = "=B";
metricRight = "=B";
shapes = (
{
closed = 1;
nodes = (
(372,0,ls),
(523,0,o),
(668,33,o),
(668,218,cs),
(668,336,o),
(604,397,o),
(510,421,c),
(598,443,o),
(638,499,o),
(638,604,cs),
(638,775,o),
(493,800,o),
(372,800,cs),
(221,800,ls),
(188,800,o),
(140,790,o),
(120,759,c),
(124,749,l),
(146,780,o),
(187,761,o),
(187,714,c),
(187,0,l)
);
},
{
closed = 1;
nodes = (
(323,412,l),
(371,412,ls),
(431,412,o),
(540,381,o),
(533,218,cs),
(533,32,o),
(420,20,o),
(372,20,cs),
(323,20,l)
);
},
{
closed = 1;
nodes = (
(323,716,ls),
(323,733,o),
(316,769,o),
(304,783,c),
(372,783,ls),
(374,783,o),
(508,780,o),
(508,592,cs),
(515,461,o),
(431,428,o),
(371,428,cs),
(323,428,l)
);
}
);
width = 728;
}
);
metricLeft = "=100";
metricRight = "=100";
},
{
color = 4;
glyphname = C.ss01;
lastChange = "2026-06-29 02:07:18 +0000";
layers = (
{
anchors = (
{
name = bottom;
pos = (428,0);
},
{
name = top;
pos = (428,800);
}
);
layerId = "E5DC9139-DBE8-45F6-BCD0-0641ED917C2C";
metricLeft = "=C";
metricRight = "=C";
shapes = (
{
closed = 1;
nodes = (
(627,-6,o),
(746,87,o),
(745,220,c),
(735,220,l),
(735,93,o),
(620,4,o),
(457,4,cs),
(293,4,o),
(178,167,o),
(178,400,cs),
(178,633,o),
(293,796,o),
(457,796,cs),
(620,796,o),
(735,707,o),
(735,580,c),
(745,580,l),
(746,713,o),
(627,806,o),
(457,806,cs),
(247,806,o),
(100,638,o),
(100,400,cs),
(100,162,o),
(247,-6,o),
(457,-6,cs)
);
},
{
closed = 1;
nodes = (
(724,173,o),
(745,194,o),
(745,220,cs),
(745,246,o),
(724,268,o),
(698,268,cs),
(672,268,o),
(650,246,o),
(650,220,cs),
(650,194,o),
(672,173,o),
(698,173,cs)
);
},
{
closed = 1;
nodes = (
(724,533,o),
(745,554,o),
(745,580,cs),
(745,606,o),
(724,628,o),
(698,628,cs),
(672,628,o),
(650,606,o),
(650,580,cs),
(650,554,o),
(672,533,o),
(698,533,cs)
);
}
);
width = 825;
},
{
anchors = (
{
name = bottom;
pos = (428,0);
},
{
name = top;
pos = (428,800);
}
);
layerId = "2F0BCB80-3430-4FA1-A4A3-7C385E8DAA98";
metricLeft = "=C";
metricRight = "=C";
shapes = (
{
closed = 1;
nodes = (
(627,-6,o),
(746,87,o),
(745,220,c),
(730,220,l),
(730,96,o),
(617,9,o),
(457,9,cs),
(317,9,o),
(218,170,o),
(218,400,cs),
(218,630,o),
(317,791,o),
(457,791,cs),
(617,791,o),
(730,704,o),
(730,580,c),
(745,580,l),
(746,713,o),
(627,806,o),
(457,806,cs),
(242,806,o),
(90,638,o),
(90,400,cs),
(90,162,o),
(242,-6,o),
(457,-6,cs)
);
},
{
closed = 1;
nodes = (
(719,161,o),
(745,187,o),
(745,220,cs),
(745,253,o),
(719,281,o),
(686,281,cs),
(653,281,o),
(625,253,o),
(625,220,cs),
(625,187,o),
(653,161,o),
(686,161,cs)
);
},
{
closed = 1;
nodes = (
(719,521,o),
(745,547,o),
(745,580,cs),
(745,613,o),
(719,641,o),
(686,641,cs),
(653,641,o),
(625,613,o),
(625,580,cs),
(625,547,o),
(653,521,o),
(686,521,cs)
);
}
);
width = 815;
},
{
anchors = (
{
name = bottom;
pos = (423,0);
},
{
name = top;
pos = (423,800);
}
);
hints = (
{
horizontal = 1;
place = (789,17);
type = Stem;
},
{
horizontal = 1;
place = (580,75);
type = Stem;
},
{
horizontal = 1;
place = (508,147);
type = Stem;
},
{
horizontal = 1;
place = (146,147);
type = Stem;
},
{
horizontal = 1;
place = (146,74);
type = Stem;
},
{
horizontal = 1;
place = (-6,18);
type = Stem;
},
{
place = (658,17);
type = Stem;
},
{
place = (40,148);
type = Stem;
}
);
layerId = m01;
metricLeft = "=C";
metricRight = "=C";
shapes = (
{
closed = 1;
nodes = (
(622,-6,o),
(741,87,o),
(740,220,c),
(723,220,l),
(723,90,o),
(611,4,o),
(452,12,cs),
(329,18,o),
(243,178,o),
(243,400,cs),
(243,624,o),
(329,784,o),
(452,789,cs),
(611,796,o),
(723,709,o),
(723,580,c),
(740,580,l),
(741,713,o),
(622,806,o),
(452,806,cs),
(231,806,o),
(75,638,o),
(75,400,cs),
(75,162,o),
(231,-6,o),
(452,-6,cs)
);
},
{
closed = 1;
nodes = (
(709,146,o),
(740,178,o),
(740,218,cs),
(740,259,o),
(709,293,o),
(668,293,cs),
(628,293,o),
(594,259,o),
(594,218,cs),
(594,178,o),
(628,146,o),
(668,146,cs)
);
},
{
closed = 1;
nodes = (
(709,508,o),
(740,540,o),
(740,580,cs),
(740,621,o),
(709,655,o),
(668,655,cs),
(628,655,o),
(594,621,o),
(594,580,cs),
(594,540,o),
(628,508,o),
(668,508,cs)
);
}
);
width = 810;
},
{
anchors = (
{
name = bottom;
pos = (438,0);
},
{
name = top;
pos = (438,800);
}
);
hints = (
{
horizontal = 1;
place = (1085,23);
type = Stem;
},
{
horizontal = 1;
place = (798,103);
type = Stem;
},
{
horizontal = 1;
place = (699,202);
type = Stem;
},
{
horizontal = 1;
place = (201,202);
type = Stem;
},
{
horizontal = 1;
place = (201,102);
type = Stem;
},
{
horizontal = 1;
place = (-8,25);
type = Stem;
},
{
place = (905,23);
type = Stem;
},
{
place = (55,204);
type = Stem;
}
);
layerId = "DFBD2966-8600-4091-87AD-36DB30ECE1CF";
metricLeft = "=C";
metricRight = "=C";
shapes = (
{
closed = 1;
nodes = (
(637,-6,o),
(756,87,o),
(755,220,c),
(737,220,l),
(737,88,o),
(625,3,o),
(467,14,cs),
(354,22,o),
(274,181,o),
(274,400,cs),
(274,621,o),
(353,781,o),
(467,788,cs),
(625,797,o),
(737,711,o),
(737,580,c),
(755,580,l),
(756,713,o),
(637,806,o),
(467,806,cs),
(243,806,o),
(85,638,o),
(85,400,cs),
(85,162,o),
(243,-6,o),
(467,-6,cs)
);
},
{
closed = 1;
nodes = (
(722,139,o),
(755,174,o),
(755,217,cs),
(755,262,o),
(722,299,o),
(677,299,cs),
(633,299,o),
(596,262,o),
(596,217,cs),
(596,174,o),
(633,139,o),
(677,139,cs)
);
},
{
closed = 1;
nodes = (
(722,502,o),
(755,537,o),
(755,580,cs),
(755,625,o),
(722,662,o),
(677,662,cs),
(633,662,o),
(596,625,o),
(596,580,cs),
(596,537,o),
(633,502,o),
(677,502,cs)
);
}
);
width = 825;
}
);
metricLeft = "=100";
metricRight = "=100";
},
{
color = 4;
glyphname = E.ss01;
lastChange = "2026-06-29 02:07:29 +0000";
layers = (
{
anchors = (
{
name = bottom;
pos = (368,0);
},
{
name = ogonek;
pos = (646,10);
},
{
name = top;
pos = (368,800);
},
{
name = topleft;
pos = (40,800);
}
);
hints = (
{
name = _corner.leftserif;
origin = (0,3);
type = Corner;
},
{
name = _corner.leftserif;
options = 1;
origin = (0,2);
scale = (-1,1);
type = Corner;
}
);
layerId = "E5DC9139-DBE8-45F6-BCD0-0641ED917C2C";
metricLeft = "=E";
metricRight = "=E";
shapes = (
{
closed = 1;
nodes = (
(278,0,l),
(278,800,l),
(210,800,l),
(210,0,l)
);
},
{
closed = 1;
nodes = (
(569,0,l),
(569,10,l),
(246,10,l),
(246,0,l)
);
},
{
closed = 1;
nodes = (
(595,0,o),
(616,21,o),
(616,47,cs),
(616,73,o),
(595,95,o),
(569,95,cs),
(543,95,o),
(521,73,o),
(521,47,cs),
(521,21,o),
(543,0,o),
(569,0,cs)
);
},
{
closed = 1;
nodes = (
(434,395,l),
(434,405,l),
(244,405,l),
(244,395,l)
);
},
{
closed = 1;
nodes = (
(569,790,l),
(569,800,l),
(244,800,l),
(244,790,l)
);
},
{
closed = 1;
nodes = (
(595,705,o),
(616,727,o),
(616,753,cs),
(616,779,o),
(595,800,o),
(569,800,cs),
(543,800,o),
(521,779,o),
(521,753,cs),
(521,727,o),
(543,705,o),
(569,705,cs)
);
}
);
width = 716;
},
{
anchors = (
{
name = bottom;
pos = (378,0);
},
{
name = ogonek;
pos = (668,10);
},
{
name = top;
pos = (378,800);
},
{
name = topleft;
pos = (35,800);
}
);
hints = (
{
name = _corner.leftserif;
options = 1;
origin = (0,2);
scale = (-1,1);
type = Corner;
},
{
name = _corner.leftserif;
origin = (0,3);
type = Corner;
}
);
layerId = "2F0BCB80-3430-4FA1-A4A3-7C385E8DAA98";
metricLeft = "=E";
metricRight = "=E";
shapes = (
{
closed = 1;
nodes = (
(313,0,l),
(313,800,l),
(205,800,l),
(205,0,l)
);
},
{
closed = 1;
nodes = (
(581,0,l),
(581,15,l),
(233,15,l),
(233,0,l)
);
},
{
closed = 1;
nodes = (
(614,0,o),
(640,26,o),
(640,59,cs),
(640,92,o),
(614,120,o),
(581,120,cs),
(548,120,o),
(520,92,o),
(520,59,cs),
(520,26,o),
(548,0,o),
(581,0,cs)
);
},
{
closed = 1;
nodes = (
(489,395,l),
(489,410,l),
(269,410,l),
(269,395,l)
);
},
{
closed = 1;
nodes = (
(581,785,l),
(581,800,l),
(252,800,l),
(252,785,l)
);
},
{
closed = 1;
nodes = (
(614,680,o),
(640,708,o),
(640,741,cs),
(640,774,o),
(614,800,o),
(581,800,cs),
(548,800,o),
(520,774,o),
(520,741,cs),
(520,708,o),
(548,680,o),
(581,680,cs)
);
}
);
width = 735;
},
{
anchors = (
{
name = bottom;
pos = (366,0);
},
{
name = ogonek;
pos = (654,10);
},
{
name = top;
pos = (366,800);
},
{
name = topleft;
pos = (25,800);
}
);
hints = (
{
horizontal = 1;
place = (783,17);
type = Stem;
},
{
horizontal = 1;
place = (654,146);
type = Stem;
},
{
horizontal = 1;
place = (395,18);
type = Stem;
},
{
horizontal = 1;
place = (0,147);
type = Stem;
},
{
horizontal = 1;
place = (0,18);
type = Stem;
},
{
place = (391,146);
type = Stem;
},
{
place = (391,74);
type = Stem;
},
{
place = (213,39);
type = Stem;
},
{
place = (104,148);
type = Stem;
},
{
name = _corner.leftserif;
options = 1;
origin = (0,2);
scale = (-1,1);
type = Corner;
},
{
name = _corner.leftserif;
options = 2;
origin = (0,3);
type = Corner;
}
);
layerId = m01;
metricLeft = "=E";
metricRight = "=E";
shapes = (
{
closed = 1;
nodes = (
(341,0,l),
(341,800,l),
(193,800,l),
(193,0,l)
);
},
{
closed = 1;
nodes = (
(554,0,l),
(554,18,l),
(256,18,l),
(256,0,l)
);
},
{
closed = 1;
nodes = (
(595,0,o),
(626,32,o),
(626,72,cs),
(626,113,o),
(595,147,o),
(554,147,cs),
(514,147,o),
(480,113,o),
(480,72,cs),
(480,32,o),
(514,0,o),
(554,0,cs)
);
},
{
closed = 1;
nodes = (
(522,395,l),
(522,413,l),
(302,413,l),
(302,395,l)
);
},
{
closed = 1;
nodes = (
(554,783,l),
(554,800,l),
(246,800,l),
(246,783,l)
);
},
{
closed = 1;
nodes = (
(595,654,o),
(626,688,o),
(626,728,cs),
(626,769,o),
(595,800,o),
(554,800,cs),
(514,800,o),
(480,769,o),
(480,728,cs),
(480,688,o),
(514,654,o),
(554,654,cs)
);
}
);
width = 711;
},
{
anchors = (
{
name = bottom;
pos = (362,0);
},
{
name = ogonek;
pos = (651,10);
},
{
name = top;
pos = (362,800);
},
{
name = topleft;
pos = (20,800);
}
);
hints = (
{
name = _corner.leftserif;
origin = (0,3);
type = Corner;
},
{
name = _corner.leftserif;
options = 1;
origin = (0,2);
scale = (-1,1);
type = Corner;
}
);
layerId = "DFBD2966-8600-4091-87AD-36DB30ECE1CF";
metricLeft = "=E";
metricRight = "=E";
shapes = (
{
closed = 1;
nodes = (
(355,0,l),
(355,800,l),
(187,800,l),
(187,0,l)
);
},
{
closed = 1;
nodes = (
(544,0,l),
(544,20,l),
(262,20,l),
(262,0,l)
);
},
{
closed = 1;
nodes = (
(589,0,o),
(623,35,o),
(623,78,cs),
(623,123,o),
(589,160,o),
(544,160,cs),
(501,160,o),
(464,123,o),
(464,78,cs),
(464,35,o),
(501,0,o),
(544,0,cs)
);
},
{
closed = 1;
nodes = (
(540,395,l),
(540,415,l),
(317,415,l),
(317,395,l)
);
},
{
closed = 1;
nodes = (
(544,782,l),
(544,800,l),
(244,800,l),
(244,782,l)
);
},
{
closed = 1;
nodes = (
(589,641,o),
(623,678,o),
(623,722,cs),
(623,767,o),
(589,800,o),
(544,800,cs),
(501,800,o),
(464,767,o),
(464,722,cs),
(464,678,o),
(501,641,o),
(544,641,cs)
);
}
);
width = 708;
}
);
metricLeft = "=100";
metricRight = "=100";
},
{
color = 4;
glyphname = F.ss01;
lastChange = "2026-06-29 02:07:39 +0000";
layers = (
{
anchors = (
{
name = bottom;
pos = (368,0);
},
{
name = top;
pos = (368,800);
}
);
hints = (
{
name = _corner.leftserif;
options = 1;
origin = (0,2);
scale = (-1,1);
type = Corner;
}
);
layerId = "E5DC9139-DBE8-45F6-BCD0-0641ED917C2C";
metricLeft = "=F";
metricRight = "=F";
shapes = (
{
closed = 1;
nodes = (
(278,0,l),
(278,800,l),
(210,800,l),
(210,0,l)
);
},
{
closed = 1;
nodes = (
(244,411,l),
(434,411,l),
(434,421,l),
(244,421,l)
);
},
{
closed = 1;
nodes = (
(569,790,l),
(569,800,l),
(244,800,l),
(244,790,l)
);
},
{
closed = 1;
nodes = (
(595,705,o),
(616,727,o),
(616,753,cs),
(616,779,o),
(595,800,o),
(569,800,cs),
(543,800,o),
(521,779,o),
(521,753,cs),
(521,727,o),
(543,705,o),
(569,705,cs)
);
},
{
closed = 1;
nodes = (
(422,380,o),
(438,396,o),
(438,416,cs),
(438,435,o),
(422,451,o),
(403,451,cs),
(384,451,o),
(367,435,o),
(367,416,cs),
(367,396,o),
(384,380,o),
(403,380,cs)
);
}
);
width = 716;
},
{
anchors = (
{
name = bottom;
pos = (368,0);
},
{
name = top;
pos = (368,800);
}
);
hints = (
{
name = _corner.leftserif;
options = 1;
origin = (0,2);
scale = (-1,1);
type = Corner;
}
);
layerId = "2F0BCB80-3430-4FA1-A4A3-7C385E8DAA98";
metricLeft = "=F";
metricRight = "=F";
shapes = (
{
closed = 1;
nodes = (
(313,0,l),
(313,800,l),
(205,800,l),
(205,0,l)
);
},
{
closed = 1;
nodes = (
(269,415,l),
(489,415,l),
(489,430,l),
(269,430,l)
);
},
{
closed = 1;
nodes = (
(561,785,l),
(561,800,l),
(241,800,l),
(241,785,l)
);
},
{
closed = 1;
nodes = (
(594,680,o),
(620,708,o),
(620,741,cs),
(620,774,o),
(594,800,o),
(561,800,cs),
(528,800,o),
(500,774,o),
(500,741,cs),
(500,708,o),
(528,680,o),
(561,680,cs)
);
},
{
closed = 1;
nodes = (
(474,377,o),
(495,398,o),
(495,423,cs),
(495,447,o),
(474,468,o),
(450,468,cs),
(426,468,o),
(404,447,o),
(404,423,cs),
(404,398,o),
(426,377,o),
(450,377,cs)
);
}
);
width = 720;
},
{
anchors = (
{
name = bottom;
pos = (373,0);
},
{
name = top;
pos = (373,800);
}
);
hints = (
{
horizontal = 1;
place = (783,17);
type = Stem;
},
{
horizontal = 1;
place = (654,146);
type = Stem;
},
{
horizontal = 1;
place = (413,47);
type = Stem;
},
{
horizontal = 1;
place = (395,18);
type = Stem;
},
{
place = (391,146);
type = Stem;
},
{
place = (391,74);
type = Stem;
},
{
place = (341,92);
type = Stem;
},
{
place = (213,39);
type = Stem;
},
{
place = (104,148);
type = Stem;
},
{
name = _corner.leftserif;
options = 1;
origin = (0,2);
scale = (-1,1);
type = Corner;
}
);
layerId = m01;
metricLeft = "=F";
metricRight = "=F";
shapes = (
{
closed = 1;
nodes = (
(341,0,l),
(341,800,l),
(193,800,l),
(193,0,l)
);
},
{
closed = 1;
nodes = (
(302,422,l),
(522,422,l),
(522,440,l),
(302,440,l)
);
},
{
closed = 1;
nodes = (
(554,783,l),
(554,800,l),
(240,800,l),
(240,783,l)
);
},
{
closed = 1;
nodes = (
(595,654,o),
(626,688,o),
(626,728,cs),
(626,769,o),
(595,800,o),
(554,800,cs),
(514,800,o),
(480,769,o),
(480,728,cs),
(480,688,o),
(514,654,o),
(554,654,cs)
);
},
{
closed = 1;
nodes = (
(501,375,o),
(527,401,o),
(527,431,cs),
(527,460,o),
(501,486,o),
(472,486,cs),
(443,486,o),
(416,460,o),
(416,431,cs),
(416,401,o),
(443,375,o),
(472,375,cs)
);
}
);
width = 691;
},
{
anchors = (
{
name = bottom;
pos = (374,0);
},
{
name = top;
pos = (374,800);
}
);
hints = (
{
name = _corner.leftserif;
options = 1;
origin = (0,2);
scale = (-1,1);
type = Corner;
}
);
layerId = "DFBD2966-8600-4091-87AD-36DB30ECE1CF";
metricLeft = "=F";
metricRight = "=F";
shapes = (
{
closed = 1;
nodes = (
(355,0,l),
(355,800,l),
(187,800,l),
(187,0,l)
);
},
{
closed = 1;
nodes = (
(317,425,l),
(540,425,l),
(540,445,l),
(317,445,l)
);
},
{
closed = 1;
nodes = (
(549,782,l),
(549,800,l),
(238,800,l),
(238,782,l)
);
},
{
closed = 1;
nodes = (
(594,641,o),
(628,678,o),
(628,722,cs),
(628,767,o),
(594,800,o),
(549,800,cs),
(506,800,o),
(469,767,o),
(469,722,cs),
(469,678,o),
(506,641,o),
(549,641,cs)
);
},
{
closed = 1;
nodes = (
(517,374,o),
(545,402,o),
(545,435,cs),
(545,466,o),
(517,495,o),
(485,495,cs),
(454,495,o),
(424,466,o),
(424,435,cs),
(424,402,o),
(454,374,o),
(485,374,cs)
);
}
);
width = 713;
}
);
metricLeft = "=100";
metricRight = "=100";
},
{
color = 4;
glyphname = G.ss01;
lastChange = "2026-06-29 02:07:54 +0000";
layers = (
{
anchors = (
{
name = bottom;
pos = (440,0);
},
{
name = top;
pos = (440,800);
}
);
layerId = "E5DC9139-DBE8-45F6-BCD0-0641ED917C2C";
metricLeft = "=G";
metricRight = "=G";
shapes = (
{
closed = 1;
nodes = (
(612,-6,o),
(732,78,o),
(735,215,cs),
(735,310,l),
(780,310,l),
(780,320,l),
(593,320,l),
(593,310,l),
(668,310,l),
(668,178,ls),
(666,85,o),
(609,4,o),
(447,4,cs),
(249,4,o),
(168,229,o),
(168,400,cs),
(168,571,o),
(239,796,o),
(457,796,cs),
(605,796,o),
(715,724,o),
(732,612,c),
(724,622,o),
(712,628,o),
(698,628,cs),
(672,628,o),
(650,606,o),
(650,580,cs),
(650,554,o),
(672,533,o),
(698,533,cs),
(724,533,o),
(745,554,o),
(745,580,cs),
(747,714,o),
(624,806,o),
(457,806,cs),
(225,806,o),
(100,626,o),
(100,400,cs),
(100,174,o),
(225,-6,o),
(447,-6,cs)
);
}
);
width = 860;
},
{
anchors = (
{
name = bottom;
pos = (435,0);
},
{
name = top;
pos = (435,800);
}
);
layerId = "2F0BCB80-3430-4FA1-A4A3-7C385E8DAA98";
metricLeft = "=G";
metricRight = "=G";
shapes = (
{
closed = 1;
nodes = (
(613,-6,o),
(732,72,o),
(735,215,cs),
(735,305,l),
(780,305,l),
(780,320,l),
(548,320,l),
(548,305,l),
(623,305,l),
(623,178,ls),
(623,73,o),
(573,9,o),
(437,9,cs),
(249,9,o),
(198,229,o),
(198,400,cs),
(198,571,o),
(249,791,o),
(447,791,cs),
(589,791,o),
(692,729,o),
(715,626,c),
(705,635,o),
(691,641,o),
(676,641,cs),
(643,641,o),
(615,613,o),
(615,580,cs),
(615,547,o),
(643,521,o),
(676,521,cs),
(709,521,o),
(734,547,o),
(735,580,cs),
(739,714,o),
(614,806,o),
(447,806,cs),
(215,806,o),
(90,626,o),
(90,400,cs),
(90,174,o),
(215,-6,o),
(437,-6,cs)
);
}
);
width = 850;
},
{
anchors = (
{
name = bottom;
pos = (427,0);
},
{
name = top;
pos = (427,800);
}
);
hints = (
{
horizontal = 1;
place = (789,17);
type = Stem;
},
{
horizontal = 1;
place = (508,147);
type = Stem;
},
{
horizontal = 1;
place = (303,17);
type = Stem;
},
{
horizontal = 1;
place = (-6,18);
type = Stem;
},
{
place = (651,24);
type = Stem;
},
{
place = (529,146);
type = Stem;
},
{
place = (514,184);
type = Stem;
},
{
place = (40,148);
type = Stem;
}
);
layerId = m01;
metricLeft = "=G";
metricRight = "=G";
shapes = (
{
closed = 1;
nodes = (
(592,-6,o),
(723,56,o),
(723,215,cs),
(723,303,l),
(768,303,l),
(768,320,l),
(494,320,l),
(494,303,l),
(559,303,l),
(559,178,ls),
(563,53,o),
(500,12,o),
(422,12,cs),
(239,12,o),
(223,229,o),
(223,400,cs),
(223,571,o),
(244,789,o),
(432,789,cs),
(569,789,o),
(668,734,o),
(696,637,c),
(683,648,o),
(666,655,o),
(648,655,cs),
(608,655,o),
(574,621,o),
(574,580,cs),
(574,540,o),
(608,508,o),
(648,508,cs),
(689,508,o),
(719,540,o),
(720,580,cs),
(723,714,o),
(599,806,o),
(432,806,cs),
(200,806,o),
(75,626,o),
(75,400,cs),
(75,174,o),
(200,-6,o),
(422,-6,cs)
);
}
);
width = 813;
},
{
anchors = (
{
name = bottom;
pos = (440,0);
},
{
name = top;
pos = (440,800);
}
);
hints = (
{
horizontal = 1;
place = (1085,23);
type = Stem;
},
{
horizontal = 1;
place = (699,202);
type = Stem;
},
{
horizontal = 1;
place = (417,23);
type = Stem;
},
{
horizontal = 1;
place = (-8,25);
type = Stem;
},
{
place = (895,33);
type = Stem;
},
{
place = (727,201);
type = Stem;
},
{
place = (707,253);
type = Stem;
},
{
place = (55,204);
type = Stem;
}
);
layerId = "DFBD2966-8600-4091-87AD-36DB30ECE1CF";
metricLeft = "=G";
metricRight = "=G";
shapes = (
{
closed = 1;
nodes = (
(601,-6,o),
(737,50,o),
(736,215,cs),
(736,302,l),
(781,302,l),
(781,320,l),
(485,320,l),
(485,302,l),
(546,302,l),
(546,178,ls),
(552,43,o),
(485,14,o),
(432,14,cs),
(252,14,o),
(253,229,o),
(253,400,cs),
(253,571,o),
(260,788,o),
(442,788,cs),
(577,788,o),
(673,737,o),
(704,643,c),
(689,655,o),
(671,662,o),
(652,662,cs),
(608,662,o),
(571,625,o),
(571,580,cs),
(571,537,o),
(608,502,o),
(652,502,cs),
(697,502,o),
(729,537,o),
(730,580,cs),
(733,714,o),
(609,806,o),
(442,806,cs),
(210,806,o),
(85,626,o),
(85,400,cs),
(85,174,o),
(210,-6,o),
(432,-6,cs)
);
}
);
width = 821;
}
);
},
{
color = 4;
glyphname = J.ss01;
lastChange = "2026-06-29 02:08:03 +0000";
layers = (
{
anchors = (
{
name = bottom;
pos = (224,0);
},
{
name = top;
pos = (224,800);
}
);
layerId = "E5DC9139-DBE8-45F6-BCD0-0641ED917C2C";
metricLeft = "=J";
metricRight = "=J";
shapes = (
{
closed = 1;
nodes = (
(322,-8,o),
(310,92,o),
(310,266,cs),
(310,710,l),
(242,710,l),
(242,212,ls),
(242,152,o),
(254,4,o),
(165,4,cs),
(100,4,o),
(76,47,o),
(73,52,cs),
(60,71,l),
(60,11,o),
(126,-8,o),
(165,-8,cs)
);
},
{
closed = 1;
nodes = (
(133,24,o),
(155,46,o),
(155,72,cs),
(155,98,o),
(133,119,o),
(107,119,cs),
(81,119,o),
(60,98,o),
(60,72,cs),
(60,46,o),
(81,24,o),
(107,24,cs)
);
},
{
closed = 1;
nodes = (
(310,702,l),
(310,720,ls),
(310,803,o),
(351,786,o),
(373,755,c),
(377,765,l),
(357,796,o),
(327,806,o),
(294,806,cs),
(263,806,o),
(242,783,o),
(242,722,cs),
(242,702,l)
);
}
);
width = 497;
},
{
anchors = (
{
name = bottom;
pos = (244,0);
},
{
name = top;
pos = (244,800);
}
);
layerId = "2F0BCB80-3430-4FA1-A4A3-7C385E8DAA98";
metricLeft = "=J";
metricRight = "=J";
shapes = (
{
closed = 1;
nodes = (
(334,-9,o),
(345,91,o),
(345,265,cs),
(345,706,l),
(237,706,l),
(237,211,ls),
(237,151,o),
(235,6,o),
(159,6,cs),
(92,6,o),
(96,43,o),
(68,61,c),
(55,80,l),
(55,20,o),
(105,-9,o),
(180,-9,cs)
);
},
{
closed = 1;
nodes = (
(146,21,o),
(172,48,o),
(172,80,cs),
(172,112,o),
(146,138,o),
(114,138,cs),
(82,138,o),
(55,112,o),
(55,80,cs),
(55,48,o),
(82,21,o),
(114,21,cs)
);
},
{
closed = 1;
nodes = (
(345,702,l),
(345,720,ls),
(345,793,o),
(386,786,o),
(408,755,c),
(412,765,l),
(392,796,o),
(352,806,o),
(309,806,cs),
(268,806,o),
(237,783,o),
(237,722,cs),
(237,702,l)
);
}
);
width = 527;
},
{
anchors = (
{
name = bottom;
pos = (266,0);
},
{
name = top;
pos = (266,800);
}
);
hints = (
{
horizontal = 1;
place = (779,28);
type = Stem;
},
{
horizontal = 1;
place = (703,104);
type = Stem;
},
{
horizontal = 1;
place = (23,139);
type = Stem;
},
{
horizontal = 1;
place = (-10,16);
type = Stem;
},
{
place = (172,148);
type = Stem;
},
{
place = (-20,139);
type = Stem;
}
);
layerId = m01;
metricLeft = "=J";
metricRight = "=J";
shapes = (
{
closed = 1;
nodes = (
(350,-10,o),
(385,90,o),
(385,264,cs),
(385,704,l),
(237,704,l),
(237,210,ls),
(237,150,o),
(237,10,o),
(148,10,cs),
(73,10,o),
(114,36,o),
(49,75,c),
(45,94,l),
(45,34,o),
(71,-10,o),
(200,-10,cs)
);
},
{
closed = 1;
nodes = (
(154,23,o),
(184,55,o),
(184,93,cs),
(184,131,o),
(154,162,o),
(116,162,cs),
(78,162,o),
(45,131,o),
(45,93,cs),
(45,55,o),
(79,23,o),
(116,23,cs)
);
},
{
closed = 1;
nodes = (
(385,703,l),
(385,721,ls),
(385,799,o),
(426,787,o),
(448,756,c),
(452,766,l),
(432,797,o),
(387,807,o),
(329,807,cs),
(283,807,o),
(237,784,o),
(237,723,cs),
(237,703,l)
);
}
);
width = 557;
},
{
anchors = (
{
name = bottom;
pos = (276,0);
},
{
name = top;
pos = (276,800);
}
);
hints = (
{
horizontal = 1;
place = (1071,39);
type = Stem;
},
{
horizontal = 1;
place = (967,143);
type = Stem;
},
{
horizontal = 1;
place = (32,191);
type = Stem;
},
{
horizontal = 1;
place = (-14,22);
type = Stem;
},
{
place = (237,204);
type = Stem;
},
{
place = (-28,191);
type = Stem;
}
);
layerId = "DFBD2966-8600-4091-87AD-36DB30ECE1CF";
metricLeft = "=J";
metricRight = "=J";
shapes = (
{
closed = 1;
nodes = (
(357,-10,o),
(403,90,o),
(403,264,cs),
(403,703,l),
(235,703,l),
(235,210,ls),
(235,150,o),
(234,12,o),
(142,12,cs),
(64,12,o),
(123,32,o),
(40,81,cs),
(40,100,l),
(40,40,o),
(55,-10,o),
(208,-10,cs)
);
},
{
closed = 1;
nodes = (
(158,23,o),
(190,58,o),
(190,99,cs),
(190,140,o),
(158,173,o),
(117,173,cs),
(76,173,o),
(40,140,o),
(40,99,cs),
(40,58,o),
(77,23,o),
(117,23,cs)
);
},
{
closed = 1;
nodes = (
(403,703,l),
(403,721,ls),
(403,800,o),
(444,787,o),
(466,756,c),
(470,766,l),
(450,797,o),
(402,807,o),
(337,807,cs),
(288,807,o),
(235,784,o),
(235,723,cs),
(235,703,l)
);
}
);
width = 570;
}
);
},
{
color = 4;
glyphname = K.ss01;
lastChange = "2026-06-29 21:19:23 +0000";
layers = (
{
anchors = (
{
name = bottom;
pos = (443,0);
},
{
name = top;
pos = (443,800);
}
);
hints = (
{
name = _corner.leftserif;
origin = (1,3);
type = Corner;
},
{
name = _corner.leftserif;
options = 1;
origin = (1,0);
scale = (-1,1);
type = Corner;
},
{
name = _corner.leftserif;
origin = (0,3);
type = Corner;
},
{
name = _corner.leftserif;
options = 1;
origin = (0,0);
scale = (-1,1);
type = Corner;
}
);
layerId = "E5DC9139-DBE8-45F6-BCD0-0641ED917C2C";
metricLeft = "=K";
metricRight = "=K";
shapes = (
{
closed = 1;
nodes = (
(682,0,l),
(389,515,l),
(347,452,l),
(603,0,l)
);
},
{
closed = 1;
nodes = (
(278,0,l),
(278,709,l),
(210,709,l),
(210,0,l)
);
},
{
pos = (103,301);
ref = "light-top-term";
},
{
attr = {
strokePos = "1";
strokeWidth = 10;
};
closed = 0;
nodes = (
(706,677,l),
(755,793,o),
(605,858,o),
(522,737,c),
(253,319,l)
);
},
{
attr = {
strokePos = "1";
};
closed = 1;
nodes = (
(668,642,o),
(696,654,o),
(706,678,c),
(715,704,o),
(703,732,o),
(677,742,c),
(652,752,o),
(625,739,o),
(615,713,c),
(605,688,o),
(617,662,o),
(643,651,c)
);
}
);
width = 806;
},
{
anchors = (
{
name = bottom;
pos = (469,0);
},
{
name = top;
pos = (469,800);
}
);
hints = (
{
name = _corner.leftserif;
origin = (1,3);
type = Corner;
},
{
name = _corner.leftserif;
options = 1;
origin = (1,0);
scale = (-1,1);
type = Corner;
},
{
name = _corner.leftserif;
origin = (0,3);
type = Corner;
},
{
name = _corner.leftserif;
options = 1;
origin = (0,0);
scale = (-1,1);
type = Corner;
}
);
layerId = "2F0BCB80-3430-4FA1-A4A3-7C385E8DAA98";
metricLeft = "=K";
metricRight = "=K";
shapes = (
{
closed = 1;
nodes = (
(741,0,l),
(425,527,l),
(357,426,l),
(616,0,l)
);
},
{
closed = 1;
nodes = (
(313,0,l),
(313,709,l),
(205,709,l),
(205,0,l)
);
},
{
pos = (98,301);
ref = "light-top-term";
},
{
attr = {
strokePos = "1";
strokeWidth = 15;
};
closed = 0;
nodes = (
(753,667,l),
(797,783,o),
(627,853,o),
(544,732,c),
(275,314,l)
);
},
{
attr = {
strokePos = "1";
};
closed = 1;
nodes = (
(705,622,o),
(741,637,o),
(753,668,c),
(765,701,o),
(750,736,o),
(717,749,c),
(685,762,o),
(650,745,o),
(638,713,c),
(625,681,o),
(640,647,o),
(673,634,c)
);
}
);
width = 857;
},
{
anchors = (
{
name = bottom;
pos = (489,0);
},
{
name = top;
pos = (489,800);
}
);
hints = (
{
horizontal = 1;
place = (783,17);
type = Stem;
},
{
horizontal = 1;
place = (770,34);
type = Stem;
},
{
horizontal = 1;
place = (700,7);
type = Stem;
},
{
horizontal = 1;
place = (0,18);
type = Stem;
},
{
place = (95,148);
type = Stem;
},
{
name = _corner.leftserif;
origin = (1,3);
type = Corner;
},
{
name = _corner.leftserif;
options = 1;
origin = (1,0);
scale = (-1,1);
type = Corner;
},
{
name = _corner.leftserif;
options = 1;
origin = (0,0);
scale = (-1,1);
type = Corner;
},
{
name = _corner.leftserif;
origin = (0,3);
type = Corner;
}
);
layerId = m01;
metricLeft = "=K";
metricRight = "=K";
shapes = (
{
closed = 1;
nodes = (
(799,0,l),
(456,537,l),
(355,414,l),
(623,0,l)
);
},
{
closed = 1;
nodes = (
(341,0,l),
(341,707,l),
(193,707,l),
(193,0,l)
);
},
{
pos = (89,300);
ref = "light-top-term";
},
{
attr = {
strokePos = "1";
strokeWidth = 20;
};
closed = 0;
nodes = (
(814,674,l),
(858,790,o),
(692,854,o),
(605,739,c),
(306,368,l)
);
},
{
attr = {
strokePos = "1";
};
closed = 1;
nodes = (
(756,618,o),
(799,636,o),
(814,674,cs),
(828,713,o),
(810,755,o),
(771,770,cs),
(733,785,o),
(691,765,o),
(676,727,cs),
(661,689,o),
(679,648,o),
(718,633,cs)
);
}
);
width = 899;
},
{
anchors = (
{
name = bottom;
pos = (499,0);
},
{
name = top;
pos = (499,800);
}
);
hints = (
{
name = _corner.leftserif;
origin = (1,3);
type = Corner;
},
{
name = _corner.leftserif;
options = 1;
origin = (1,0);
scale = (-1,1);
type = Corner;
},
{
name = _corner.leftserif;
origin = (0,3);
type = Corner;
},
{
name = _corner.leftserif;
options = 1;
origin = (0,0);
scale = (-1,1);
type = Corner;
}
);
layerId = "DFBD2966-8600-4091-87AD-36DB30ECE1CF";
metricLeft = "=K";
metricRight = "=K";
shapes = (
{
closed = 1;
nodes = (
(827,0,l),
(461,530,l),
(355,406,l),
(626,0,l)
);
},
{
closed = 1;
nodes = (
(355,0,l),
(355,706,l),
(187,706,l),
(187,0,l)
);
},
{
pos = (84,300);
ref = "light-top-term";
},
{
attr = {
strokePos = 1;
strokeWidth = 22.5;
};
closed = 0;
nodes = (
(842,675,l),
(885,791,o),
(718,853,o),
(630,741,c),
(319,388,l)
);
},
{
attr = {
strokePos = 1;
};
closed = 1;
nodes = (
(779,614,o),
(826,634,o),
(842,675,c),
(857,717,o),
(837,763,o),
(795,779,c),
(754,795,o),
(709,774,o),
(692,732,c),
(676,691,o),
(696,647,o),
(738,631,c)
);
}
);
width = 918;
}
);
metricLeft = "=100";
metricRight = "=100";
},
{
color = 4;
glyphname = L.ss01;
lastChange = "2026-06-29 02:08:25 +0000";
layers = (
{
anchors = (
{
name = bottom;
pos = (338,0);
},
{
name = center;
pos = (338,400);
},
{
name = top;
pos = (338,800);
},
{
name = topright;
pos = (585,800);
}
);
layerId = "E5DC9139-DBE8-45F6-BCD0-0641ED917C2C";
metricLeft = "=L";
metricRight = "=L";
shapes = (
{
closed = 1;
nodes = (
(255,0,l),
(255,702,l),
(187,702,l),
(187,0,l)
);
},
{
closed = 1;
nodes = (
(518,0,l),
(518,10,l),
(187,10,l),
(187,0,l)
);
},
{
closed = 1;
nodes = (
(544,0,o),
(565,21,o),
(565,47,cs),
(565,73,o),
(544,95,o),
(518,95,cs),
(492,95,o),
(470,73,o),
(470,47,cs),
(470,21,o),
(492,0,o),
(518,0,cs)
);
},
{
closed = 1;
nodes = (
(255,701,l),
(255,721,ls),
(255,782,o),
(237,805,o),
(203,805,cs),
(170,805,o),
(140,795,o),
(120,764,c),
(124,754,l),
(146,785,o),
(187,802,o),
(187,719,cs),
(187,701,l)
);
}
);
width = 605;
},
{
anchors = (
{
name = bottom;
pos = (351,0);
},
{
name = center;
pos = (351,400);
},
{
name = top;
pos = (351,800);
},
{
name = topright;
pos = (615,800);
}
);
layerId = "2F0BCB80-3430-4FA1-A4A3-7C385E8DAA98";
metricLeft = "=L";
metricRight = "=L";
shapes = (
{
closed = 1;
nodes = (
(290,0,l),
(290,708,l),
(182,708,l),
(182,0,l)
);
},
{
closed = 1;
nodes = (
(536,0,l),
(536,15,l),
(205,15,l),
(205,0,l)
);
},
{
closed = 1;
nodes = (
(569,0,o),
(595,26,o),
(595,59,cs),
(595,92,o),
(569,120,o),
(536,120,cs),
(503,120,o),
(475,92,o),
(475,59,cs),
(475,26,o),
(503,0,o),
(536,0,cs)
);
},
{
closed = 1;
nodes = (
(290,699,l),
(290,719,ls),
(290,780,o),
(259,803,o),
(218,803,cs),
(185,803,o),
(135,793,o),
(115,762,c),
(119,752,l),
(141,783,o),
(182,781,o),
(182,717,cs),
(182,699,l)
);
}
);
width = 630;
},
{
anchors = (
{
name = bottom;
pos = (362,0);
},
{
name = center;
pos = (362,400);
},
{
name = top;
pos = (362,800);
},
{
name = topright;
pos = (643,800);
}
);
hints = (
{
horizontal = 1;
place = (763,38);
type = Stem;
},
{
horizontal = 1;
place = (697,104);
type = Stem;
},
{
horizontal = 1;
place = (697,18);
type = Stem;
},
{
horizontal = 1;
place = (0,147);
type = Stem;
},
{
horizontal = 1;
place = (0,18);
type = Stem;
},
{
place = (416,147);
type = Stem;
},
{
place = (416,75);
type = Stem;
},
{
place = (170,90);
type = Stem;
},
{
place = (112,148);
type = Stem;
}
);
layerId = m01;
metricLeft = "=L";
metricRight = "=L";
shapes = (
{
closed = 1;
nodes = (
(320,0,l),
(320,715,l),
(172,715,l),
(172,0,l)
);
},
{
closed = 1;
nodes = (
(551,0,l),
(551,18,l),
(230,18,l),
(230,0,l)
);
},
{
closed = 1;
nodes = (
(591,0,o),
(623,32,o),
(623,72,cs),
(623,113,o),
(591,147,o),
(551,147,cs),
(510,147,o),
(476,113,o),
(476,72,cs),
(476,32,o),
(510,0,o),
(551,0,cs)
);
},
{
closed = 1;
nodes = (
(320,697,l),
(320,717,ls),
(320,778,o),
(273,801,o),
(228,801,cs),
(195,801,o),
(125,791,o),
(105,760,c),
(110,747,l),
(121,775,o),
(172,766,o),
(172,715,cs),
(172,697,l)
);
}
);
width = 648;
},
{
anchors = (
{
name = bottom;
pos = (367,0);
},
{
name = center;
pos = (367,400);
},
{
name = top;
pos = (367,800);
},
{
name = topright;
pos = (656,800);
}
);
hints = (
{
horizontal = 1;
place = (1049,52);
type = Stem;
},
{
horizontal = 1;
place = (958,143);
type = Stem;
},
{
horizontal = 1;
place = (958,25);
type = Stem;
},
{
horizontal = 1;
place = (0,202);
type = Stem;
},
{
horizontal = 1;
place = (0,25);
type = Stem;
},
{
place = (572,202);
type = Stem;
},
{
place = (572,103);
type = Stem;
},
{
place = (234,124);
type = Stem;
},
{
place = (154,204);
type = Stem;
}
);
layerId = "DFBD2966-8600-4091-87AD-36DB30ECE1CF";
metricLeft = "=L";
metricRight = "=L";
shapes = (
{
closed = 1;
nodes = (
(335,0,l),
(335,718,l),
(167,718,l),
(167,0,l)
);
},
{
closed = 1;
nodes = (
(558,0,l),
(558,20,l),
(241,20,l),
(241,0,l)
);
},
{
closed = 1;
nodes = (
(601,0,o),
(636,35,o),
(636,78,cs),
(636,123,o),
(601,160,o),
(558,160,cs),
(513,160,o),
(476,123,o),
(476,78,cs),
(476,35,o),
(513,0,o),
(558,0,cs)
);
},
{
closed = 1;
nodes = (
(335,696,l),
(335,716,ls),
(335,777,o),
(280,800,o),
(233,800,cs),
(200,800,o),
(120,790,o),
(100,759,c),
(105,745,l),
(112,772,o),
(167,758,o),
(167,714,cs),
(167,696,l)
);
}
);
width = 656;
}
);
},
{
color = 4;
glyphname = M.ss01;
lastChange = "2026-06-29 02:08:40 +0000";
layers = (
{
anchors = (
{
name = bottom;
pos = (469,0);
},
{
name = top;
pos = (469,800);
}
);
layerId = "E5DC9139-DBE8-45F6-BCD0-0641ED917C2C";
metricLeft = "=M";
metricRight = "=M";
shapes = (
{
closed = 1;
nodes = (
(130,0,ls),
(156,0,o),
(178,21,o),
(178,47,cs),
(178,73,o),
(156,95,o),
(130,95,c),
(130,789,l),
(435,0,l),
(466,0,l),
(749,789,l),
(749,0,l),
(817,0,l),
(817,800,l),
(743,800,l),
(479,68,l),
(199,800,l),
(120,800,l),
(120,0,l)
);
}
);
width = 937;
},
{
anchors = (
{
name = bottom;
pos = (500,0);
},
{
name = top;
pos = (500,800);
}
);
layerId = "2F0BCB80-3430-4FA1-A4A3-7C385E8DAA98";
metricLeft = "=M";
metricRight = "=M";
shapes = (
{
closed = 1;
nodes = (
(130,0,ls),
(163,0,o),
(189,26,o),
(189,59,cs),
(189,92,o),
(163,120,o),
(130,120,c),
(130,784,l),
(443,0,l),
(481,0,l),
(776,785,l),
(776,2,l),
(884,2,l),
(884,800,l),
(766,800,l),
(510,120,l),
(239,800,l),
(115,800,l),
(115,0,l)
);
}
);
width = 999;
},
{
anchors = (
{
name = bottom;
pos = (528,0);
},
{
name = top;
pos = (528,800);
}
);
hints = (
{
horizontal = 1;
place = (784,16);
type = Stem;
},
{
horizontal = 1;
place = (779,21);
type = Stem;
},
{
horizontal = 1;
place = (0,147);
type = Stem;
},
{
place = (738,148);
type = Stem;
},
{
place = (40,18);
type = Stem;
}
);
layerId = m01;
metricLeft = "=M";
metricRight = "=M";
shapes = (
{
closed = 1;
nodes = (
(123,0,ls),
(163,0,o),
(192,32,o),
(192,72,cs),
(192,113,o),
(163,147,o),
(123,147,c),
(123,779,l),
(449,0,l),
(492,0,l),
(803,784,l),
(803,3,l),
(951,3,l),
(951,800,l),
(791,800,l),
(539,170,l),
(272,800,l),
(105,800,l),
(105,0,l)
);
}
);
width = 1056;
},
{
anchors = (
{
name = bottom;
pos = (541,0);
},
{
name = top;
pos = (541,800);
}
);
hints = (
{
horizontal = 1;
place = (1078,22);
type = Stem;
},
{
horizontal = 1;
place = (1071,29);
type = Stem;
},
{
horizontal = 1;
place = (0,202);
type = Stem;
},
{
place = (1015,204);
type = Stem;
},
{
place = (55,25);
type = Stem;
}
);
layerId = "DFBD2966-8600-4091-87AD-36DB30ECE1CF";
metricLeft = "=M";
metricRight = "=M";
shapes = (
{
closed = 1;
nodes = (
(119,0,ls),
(163,0,o),
(194,35,o),
(194,78,cs),
(194,123,o),
(163,160,o),
(119,160,c),
(119,777,l),
(451,0,l),
(497,0,l),
(816,783,l),
(816,4,l),
(984,4,l),
(984,800,l),
(802,800,l),
(553,195,l),
(288,800,l),
(100,800,l),
(100,0,l)
);
}
);
width = 1084;
}
);
},
{
color = 4;
glyphname = N.ss01;
lastChange = "2026-06-29 02:08:50 +0000";
layers = (
{
anchors = (
{
name = bottom;
pos = (379,0);
},
{
name = top;
pos = (379,800);
}
);
layerId = "E5DC9139-DBE8-45F6-BCD0-0641ED917C2C";
metricLeft = "=H";
metricRight = "=N";
shapes = (
{
closed = 1;
nodes = (
(130,-5,ls),
(156,-5,o),
(178,16,o),
(178,42,cs),
(178,68,o),
(156,90,o),
(130,90,c),
(130,790,l),
(620,0,l),
(637,0,l),
(637,805,l),
(627,805,ls),
(601,805,o),
(579,783,o),
(579,757,cs),
(579,731,o),
(601,710,o),
(627,710,c),
(627,114,l),
(204,800,l),
(120,800,l),
(120,-5,l)
);
}
);
width = 757;
},
{
anchors = (
{
name = bottom;
pos = (392,0);
},
{
name = top;
pos = (392,800);
}
);
layerId = "2F0BCB80-3430-4FA1-A4A3-7C385E8DAA98";
metricLeft = "=N";
metricRight = "=N";
shapes = (
{
closed = 1;
nodes = (
(130,-5,ls),
(163,-5,o),
(189,21,o),
(189,54,cs),
(189,87,o),
(163,115,o),
(130,115,c),
(130,785,l),
(641,0,l),
(668,0,l),
(668,805,l),
(653,805,ls),
(620,805,o),
(594,777,o),
(594,744,cs),
(594,711,o),
(620,685,o),
(653,685,c),
(653,172,l),
(249,800,l),
(115,800,l),
(115,-5,l)
);
}
);
width = 783;
},
{
anchors = (
{
name = bottom;
pos = (397,0);
},
{
name = top;
pos = (397,800);
}
);
hints = (
{
horizontal = 1;
place = (784,16);
type = Stem;
},
{
horizontal = 1;
place = (659,146);
type = Stem;
},
{
horizontal = 1;
place = (-5,147);
type = Stem;
},
{
place = (607,17);
type = Stem;
},
{
place = (40,18);
type = Stem;
}
);
layerId = m01;
metricLeft = "=N";
metricRight = "=N";
shapes = (
{
closed = 1;
nodes = (
(123,-5,ls),
(163,-5,o),
(192,27,o),
(192,67,cs),
(192,108,o),
(163,142,o),
(123,142,c),
(123,784,l),
(655,0,l),
(689,0,l),
(689,805,l),
(672,805,ls),
(631,805,o),
(602,771,o),
(602,731,cs),
(602,690,o),
(631,659,o),
(672,659,c),
(672,232,l),
(289,800,l),
(105,800,l),
(105,-5,l)
);
}
);
width = 794;
},
{
anchors = (
{
name = bottom;
pos = (400,0);
},
{
name = top;
pos = (400,800);
}
);
hints = (
{
horizontal = 1;
place = (1078,22);
type = Stem;
},
{
horizontal = 1;
place = (906,201);
type = Stem;
},
{
horizontal = 1;
place = (-7,202);
type = Stem;
},
{
place = (835,23);
type = Stem;
},
{
place = (55,25);
type = Stem;
}
);
layerId = "DFBD2966-8600-4091-87AD-36DB30ECE1CF";
metricLeft = "=N";
metricRight = "=N";
shapes = (
{
closed = 1;
nodes = (
(119,-5,ls),
(163,-5,o),
(194,30,o),
(194,73,cs),
(194,118,o),
(163,155,o),
(119,155,c),
(119,783,l),
(662,0,l),
(700,0,l),
(700,805,l),
(681,805,ls),
(637,805,o),
(606,768,o),
(606,725,cs),
(606,680,o),
(637,646,o),
(681,646,c),
(681,262,l),
(309,800,l),
(100,800,l),
(100,-5,l)
);
}
);
width = 800;
}
);
},
{
color = 4;
glyphname = P.ss01;
lastChange = "2026-06-29 02:09:00 +0000";
layers = (
{
anchors = (
{
name = bottom;
pos = (397,0);
},
{
name = top;
pos = (397,800);
}
);
hints = (
{
name = _corner.leftserif;
options = 1;
origin = (1,0);
scale = (-1,1);
type = Corner;
},
{
name = _corner.leftserif;
origin = (1,3);
type = Corner;
}
);
layerId = "E5DC9139-DBE8-45F6-BCD0-0641ED917C2C";
metricLeft = "=P";
metricRight = "=P";
shapes = (
{
closed = 1;
nodes = (
(383,375,ls),
(533,375,o),
(669,412,o),
(669,582,cs),
(669,767,o),
(524,800,o),
(383,800,cs),
(226,800,l),
(226,790,l),
(383,790,ls),
(458,790,o),
(584,753,o),
(584,582,cs),
(581,426,o),
(464,383,o),
(382,383,cs),
(256,383,l),
(256,375,l)
);
},
{
closed = 1;
nodes = (
(278,0,l),
(278,702,l),
(210,702,l),
(210,0,l)
);
},
{
closed = 1;
nodes = (
(278,696,l),
(278,716,ls),
(278,777,o),
(257,800,o),
(226,800,cs),
(193,800,o),
(163,790,o),
(143,759,c),
(147,749,l),
(169,780,o),
(210,797,o),
(210,714,cs),
(210,696,l)
);
}
);
width = 749;
},
{
anchors = (
{
name = bottom;
pos = (403,0);
},
{
name = top;
pos = (403,800);
}
);
hints = (
{
name = _corner.leftserif;
options = 1;
origin = (1,0);
scale = (-1,1);
type = Corner;
},
{
name = _corner.leftserif;
origin = (1,3);
type = Corner;
}
);
layerId = "2F0BCB80-3430-4FA1-A4A3-7C385E8DAA98";
metricLeft = "=P";
metricRight = "=P";
shapes = (
{
closed = 1;
nodes = (
(405,372,ls),
(565,372,o),
(696,412,o),
(696,582,cs),
(696,767,o),
(556,800,o),
(405,800,cs),
(241,800,l),
(241,785,l),
(405,785,ls),
(477,785,o),
(596,758,o),
(596,582,cs),
(593,424,o),
(486,384,o),
(404,384,cs),
(288,384,l),
(288,372,l)
);
},
{
closed = 1;
nodes = (
(313,0,l),
(313,705,l),
(205,705,l),
(205,0,l)
);
},
{
closed = 1;
nodes = (
(313,696,l),
(313,716,ls),
(313,777,o),
(282,800,o),
(241,800,cs),
(208,800,o),
(158,790,o),
(138,759,c),
(142,749,l),
(164,780,o),
(205,778,o),
(205,714,cs),
(205,696,l)
);
}
);
width = 771;
},
{
anchors = (
{
name = bottom;
pos = (398,0);
},
{
name = top;
pos = (398,800);
}
);
hints = (
{
horizontal = 1;
place = (783,17);
type = Stem;
},
{
horizontal = 1;
place = (766,34);
type = Stem;
},
{
horizontal = 1;
place = (696,15);
type = Stem;
},
{
horizontal = 1;
place = (369,16);
type = Stem;
},
{
horizontal = 1;
place = (0,18);
type = Stem;
},
{
place = (542,117);
type = Stem;
},
{
place = (265,28);
type = Stem;
},
{
place = (201,92);
type = Stem;
},
{
place = (145,148);
type = Stem;
},
{
name = _corner.leftserif;
options = 1;
origin = (1,0);
scale = (-1,1);
type = Corner;
},
{
name = _corner.leftserif;
origin = (1,3);
type = Corner;
}
);
layerId = m01;
metricLeft = "=P";
metricRight = "=P";
shapes = (
{
closed = 1;
nodes = (
(414,369,ls),
(579,369,o),
(707,412,o),
(707,582,cs),
(707,767,o),
(570,800,o),
(414,800,cs),
(249,800,l),
(249,783,l),
(414,783,ls),
(474,783,o),
(590,766,o),
(590,582,cs),
(587,421,o),
(485,385,o),
(413,385,cs),
(313,385,l),
(313,369,l)
);
},
{
closed = 1;
nodes = (
(341,0,l),
(341,700,l),
(193,700,l),
(193,0,l)
);
},
{
closed = 1;
nodes = (
(341,696,l),
(341,716,ls),
(341,777,o),
(295,800,o),
(249,800,cs),
(216,800,o),
(146,790,o),
(126,759,c),
(130,749,l),
(152,780,o),
(193,770,o),
(193,714,cs),
(193,696,l)
);
}
);
width = 772;
},
{
anchors = (
{
name = bottom;
pos = (396,0);
},
{
name = top;
pos = (396,800);
}
);
hints = (
{
name = _corner.leftserif;
options = 1;
origin = (1,0);
scale = (-1,1);
type = Corner;
},
{
name = _corner.leftserif;
origin = (1,3);
type = Corner;
}
);
layerId = "DFBD2966-8600-4091-87AD-36DB30ECE1CF";
metricLeft = "=P";
metricRight = "=P";
shapes = (
{
closed = 1;
nodes = (
(419,368,ls),
(587,368,o),
(714,412,o),
(714,582,cs),
(714,767,o),
(578,800,o),
(419,800,cs),
(253,800,l),
(253,782,l),
(419,782,ls),
(474,782,o),
(588,770,o),
(588,582,cs),
(585,420,o),
(486,386,o),
(418,386,cs),
(325,386,l),
(325,368,l)
);
},
{
closed = 1;
nodes = (
(355,0,l),
(355,699,l),
(187,699,l),
(187,0,l)
);
},
{
closed = 1;
nodes = (
(355,696,l),
(355,716,ls),
(355,777,o),
(302,800,o),
(253,800,cs),
(220,800,o),
(140,790,o),
(120,759,c),
(124,749,l),
(146,780,o),
(187,765,o),
(187,714,cs),
(187,696,l)
);
}
);
width = 774;
}
);
},
{
color = 4;
glyphname = Q.ss01;
lastChange = "2026-06-29 01:55:15 +0000";
layers = (
{
anchors = (
{
name = bottom;
pos = (448,0);
},
{
name = top;
pos = (448,800);
}
);
layerId = "E5DC9139-DBE8-45F6-BCD0-0641ED917C2C";
metricLeft = "=Q";
metricRight = "=Q";
shapes = (
{
closed = 1;
nodes = (
(491,-189,o),
(512,-168,o),
(512,-142,cs),
(512,-116,o),
(491,-94,o),
(465,-94,cs),
(443,-94,o),
(425,-109,o),
(419,-129,c),
(413,-92,o),
(426,-43,o),
(453,-7,c),
(672,-4,o),
(795,175,o),
(795,396,cs),
(795,619,o),
(670,799,o),
(447,799,cs),
(225,799,o),
(100,619,o),
(100,396,cs),
(100,175,o),
(223,-4,o),
(442,-7,c),
(407,-60,o),
(398,-134,o),
(426,-170,cs),
(435,-181,o),
(449,-189,o),
(465,-189,cs)
);
},
{
closed = 1;
nodes = (
(249,3,o),
(168,208,o),
(168,396,cs),
(168,584,o),
(249,789,o),
(447,789,cs),
(646,789,o),
(727,584,o),
(727,396,cs),
(727,208,o),
(646,3,o),
(447,3,cs)
);
}
);
width = 895;
},
{
anchors = (
{
name = bottom;
pos = (438,0);
},
{
name = top;
pos = (438,800);
}
);
layerId = "2F0BCB80-3430-4FA1-A4A3-7C385E8DAA98";
metricLeft = "=Q";
metricRight = "=Q";
shapes = (
{
closed = 1;
nodes = (
(502,-189,o),
(528,-163,o),
(528,-131,cs),
(528,-99,o),
(502,-72,o),
(470,-72,cs),
(446,-72,o),
(426,-87,o),
(416,-107,c),
(415,-76,o),
(425,-38,o),
(445,-7,c),
(663,-3,o),
(785,175,o),
(785,396,cs),
(785,619,o),
(660,799,o),
(438,799,cs),
(215,799,o),
(90,619,o),
(90,396,cs),
(90,176,o),
(212,-3,o),
(430,-7,c),
(400,-58,o),
(394,-124,o),
(420,-161,cs),
(430,-178,o),
(449,-189,o),
(470,-189,cs)
);
},
{
closed = 1;
nodes = (
(287,8,o),
(198,208,o),
(198,396,cs),
(198,584,o),
(287,784,o),
(438,784,cs),
(589,784,o),
(677,584,o),
(677,396,cs),
(677,208,o),
(589,8,o),
(438,8,cs)
);
}
);
width = 875;
},
{
anchors = (
{
name = bottom;
pos = (422,0);
},
{
name = top;
pos = (422,800);
}
);
hints = (
{
horizontal = 1;
place = (782,17);
type = Stem;
},
{
horizontal = 1;
place = (-7,18);
type = Stem;
},
{
horizontal = 1;
place = (-189,140);
type = Stem;
},
{
place = (587,147);
type = Stem;
},
{
place = (362,16);
type = Stem;
},
{
place = (40,148);
type = Stem;
}
);
layerId = m01;
metricLeft = "=Q";
metricRight = "=Q";
shapes = (
{
closed = 1;
nodes = (
(518,-189,o),
(549,-157,o),
(549,-119,cs),
(549,-81,o),
(518,-49,o),
(480,-49,cs),
(450,-49,o),
(425,-69,o),
(413,-94,c),
(413,-68,o),
(419,-36,o),
(432,-7,c),
(648,-2,o),
(769,175,o),
(769,396,cs),
(769,619,o),
(644,799,o),
(425,799,cs),
(200,799,o),
(75,619,o),
(75,396,cs),
(75,177,o),
(196,-3,o),
(416,-7,c),
(388,-64,o),
(389,-129,o),
(425,-164,c),
(439,-181,o),
(458,-189,o),
(480,-189,cs)
);
},
{
closed = 1;
nodes = (
(308,11,o),
(223,208,o),
(223,396,cs),
(223,584,o),
(308,782,o),
(425,782,cs),
(520,782,o),
(622,584,o),
(622,396,cs),
(622,208,o),
(510,11,o),
(425,11,cs)
);
}
);
width = 844;
},
{
anchors = (
{
name = bottom;
pos = (432,0);
},
{
name = top;
pos = (432,800);
}
);
hints = (
{
horizontal = 1;
place = (1075,23);
type = Stem;
},
{
horizontal = 1;
place = (-10,25);
type = Stem;
},
{
horizontal = 1;
place = (-260,193);
type = Stem;
},
{
place = (807,202);
type = Stem;
},
{
place = (498,22);
type = Stem;
},
{
place = (55,204);
type = Stem;
}
);
layerId = "DFBD2966-8600-4091-87AD-36DB30ECE1CF";
metricLeft = "=O";
metricRight = "=O";
shapes = (
{
closed = 1;
nodes = (
(542,-189,o),
(576,-154,o),
(576,-113,cs),
(576,-72,o),
(542,-38,o),
(501,-38,cs),
(469,-38,o),
(442,-59,o),
(429,-86,c),
(430,-63,o),
(434,-34,o),
(443,-7,c),
(657,-2,o),
(779,175,o),
(779,396,cs),
(779,619,o),
(654,799,o),
(436,799,cs),
(210,799,o),
(85,619,o),
(85,396,cs),
(85,178,o),
(206,-3,o),
(426,-7,c),
(399,-67,o),
(404,-130,o),
(443,-164,cs),
(458,-181,o),
(478,-189,o),
(501,-189,cs)
);
},
{
closed = 1;
nodes = (
(338,13,o),
(253,208,o),
(253,396,cs),
(253,584,o),
(338,781,o),
(436,781,cs),
(504,781,o),
(612,584,o),
(612,396,cs),
(612,208,o),
(490,13,o),
(436,13,cs)
);
}
);
width = 849;
}
);
},
{
color = 4;
glyphname = R.ss01;
lastChange = "2026-06-29 02:09:15 +0000";
layers = (
{
anchors = (
{
name = bottom;
pos = (456,0);
},
{
name = top;
pos = (456,800);
}
);
hints = (
{
name = _corner.leftserif;
options = 1;
origin = (1,0);
scale = (-1,1);
type = Corner;
},
{
name = _corner.leftserif;
origin = (1,3);
type = Corner;
}
);
layerId = "E5DC9139-DBE8-45F6-BCD0-0641ED917C2C";
metricLeft = "=R";
metricRight = "=R";
shapes = (
{
closed = 1;
nodes = (
(383,395,ls),
(533,395,o),
(669,422,o),
(669,602,cs),
(669,777,o),
(524,800,o),
(383,800,cs),
(227,800,l),
(227,790,l),
(383,790,ls),
(458,790,o),
(584,753,o),
(584,602,cs),
(581,446,o),
(464,403,o),
(382,403,cs),
(256,403,l),
(256,395,l)
);
},
{
closed = 1;
nodes = (
(278,0,l),
(278,702,l),
(210,702,l),
(210,0,l)
);
},
{
closed = 1;
nodes = (
(783,18,l),
(723,-6,o),
(681,20,o),
(668,75,cs),
(652,144,o),
(673,236,o),
(644,300,cs),
(615,367,o),
(549,395,o),
(457,402,cs),
(426,405,o),
(409,403,o),
(382,403,c),
(377,395,l),
(457,396,o),
(561,392,o),
(574,237,cs),
(577,202,o),
(578,105,o),
(601,54,cs),
(637,-25,o),
(733,-23,o),
(786,13,c)
);
},
{
closed = 1;
nodes = (
(278,696,l),
(278,716,ls),
(278,777,o),
(257,800,o),
(226,800,cs),
(193,800,o),
(163,790,o),
(143,759,c),
(147,749,l),
(169,780,o),
(210,797,o),
(210,714,cs),
(210,696,l)
);
}
);
width = 846;
},
{
anchors = (
{
name = bottom;
pos = (480,0);
},
{
name = top;
pos = (480,800);
}
);
hints = (
{
name = _corner.leftserif;
options = 1;
origin = (1,0);
scale = (-1,1);
type = Corner;
},
{
name = _corner.leftserif;
origin = (1,3);
type = Corner;
}
);
layerId = "2F0BCB80-3430-4FA1-A4A3-7C385E8DAA98";
metricLeft = "=R";
metricRight = "=R";
shapes = (
{
closed = 1;
nodes = (
(415,394,ls),
(575,394,o),
(706,422,o),
(706,592,cs),
(706,782,o),
(566,800,o),
(415,800,cs),
(242,800,l),
(242,785,l),
(415,785,ls),
(487,785,o),
(606,763,o),
(606,592,cs),
(603,441,o),
(496,404,o),
(414,404,cs),
(298,404,l),
(298,394,l)
);
},
{
closed = 1;
nodes = (
(313,1,l),
(313,701,l),
(205,701,l),
(205,1,l)
);
},
{
closed = 1;
nodes = (
(816,25,l),
(756,1,o),
(721,31,o),
(712,75,cs),
(699,144,o),
(717,236,o),
(688,300,cs),
(659,367,o),
(583,395,o),
(491,402,cs),
(460,405,o),
(443,404,o),
(416,404,c),
(411,394,l),
(491,395,o),
(575,392,o),
(588,237,cs),
(591,202,o),
(592,105,o),
(615,54,cs),
(650,-23,o),
(767,-23,o),
(820,13,c)
);
},
{
closed = 1;
nodes = (
(313,696,l),
(313,716,ls),
(313,777,o),
(282,800,o),
(241,800,cs),
(208,800,o),
(158,790,o),
(138,759,c),
(142,749,l),
(164,780,o),
(205,771,o),
(205,714,cs),
(205,696,l)
);
}
);
width = 875;
},
{
anchors = (
{
name = bottom;
pos = (505,0);
},
{
name = top;
pos = (505,800);
}
);
hints = (
{
horizontal = 1;
place = (783,17);
type = Stem;
},
{
horizontal = 1;
place = (762,38);
type = Stem;
},
{
horizontal = 1;
place = (696,15);
type = Stem;
},
{
horizontal = 1;
place = (394,11);
type = Stem;
},
{
horizontal = 1;
place = (0,18);
type = Stem;
},
{
horizontal = 1;
place = (-9,35);
type = Stem;
},
{
place = (517,117);
type = Stem;
},
{
place = (153,90);
type = Stem;
},
{
place = (95,148);
type = Stem;
},
{
name = _corner.leftserif;
options = 1;
origin = (1,0);
scale = (-1,1);
type = Corner;
},
{
name = _corner.leftserif;
origin = (1,3);
type = Corner;
}
);
layerId = m01;
metricLeft = "=R";
metricRight = "=R";
shapes = (
{
closed = 1;
nodes = (
(439,394,ls),
(604,394,o),
(732,392,o),
(732,587,cs),
(732,800,o),
(595,800,o),
(439,800,cs),
(251,800,l),
(251,783,l),
(439,783,ls),
(499,783,o),
(615,768,o),
(615,587,cs),
(612,424,o),
(510,405,o),
(438,405,cs),
(338,405,l),
(338,394,l)
);
},
{
closed = 1;
nodes = (
(341,0,l),
(341,698,l),
(193,698,l),
(193,0,l)
);
},
{
closed = 1;
nodes = (
(842,33,l),
(782,9,o),
(760,48,o),
(754,75,cs),
(742,144,o),
(759,236,o),
(730,300,cs),
(701,367,o),
(610,395,o),
(518,402,cs),
(487,405,o),
(470,405,o),
(443,405,c),
(438,394,l),
(518,395,o),
(582,392,o),
(595,237,cs),
(598,202,o),
(599,105,o),
(622,54,cs),
(655,-20,o),
(794,-23,o),
(847,13,c)
);
},
{
closed = 1;
nodes = (
(341,696,l),
(341,716,ls),
(341,777,o),
(295,800,o),
(249,800,cs),
(216,800,o),
(146,790,o),
(126,759,c),
(130,749,l),
(152,780,o),
(193,752,o),
(193,714,cs),
(193,696,l)
);
}
);
width = 892;
},
{
anchors = (
{
name = bottom;
pos = (516,0);
},
{
name = top;
pos = (516,800);
}
);
hints = (
{
name = _corner.leftserif;
options = 1;
origin = (1,0);
scale = (-1,1);
type = Corner;
},
{
name = _corner.leftserif;
origin = (1,3);
type = Corner;
}
);
layerId = "DFBD2966-8600-4091-87AD-36DB30ECE1CF";
metricLeft = "=R";
metricRight = "=R";
shapes = (
{
closed = 1;
nodes = (
(451,394,ls),
(619,394,o),
(745,381,o),
(745,584,cs),
(745,807,o),
(610,800,o),
(451,800,cs),
(255,800,l),
(255,782,l),
(451,782,ls),
(506,782,o),
(620,771,o),
(620,584,cs),
(617,417,o),
(518,406,o),
(450,406,cs),
(357,406,l),
(357,394,l)
);
},
{
closed = 1;
nodes = (
(355,0,l),
(355,697,l),
(187,697,l),
(187,0,l)
);
},
{
closed = 1;
nodes = (
(855,37,l),
(795,13,o),
(778,57,o),
(774,75,cs),
(763,144,o),
(779,236,o),
(750,300,cs),
(721,367,o),
(623,395,o),
(531,402,cs),
(500,405,o),
(483,406,o),
(456,406,c),
(451,394,l),
(531,395,o),
(585,392,o),
(598,237,cs),
(601,202,o),
(602,105,o),
(625,54,cs),
(657,-18,o),
(807,-23,o),
(860,13,c)
);
},
{
closed = 1;
nodes = (
(355,696,l),
(355,716,ls),
(355,777,o),
(302,800,o),
(253,800,cs),
(220,800,o),
(140,790,o),
(120,759,c),
(124,749,l),
(146,780,o),
(187,742,o),
(187,714,cs),
(187,696,l)
);
}
);
width = 900;
}
);
},
{
color = 4;
glyphname = S.ss01;
lastChange = "2026-06-30 01:14:47 +0000";
layers = (
{
anchors = (
{
name = bottom;
pos = (369,0);
},
{
name = top;
pos = (369,800);
}
);
layerId = "E5DC9139-DBE8-45F6-BCD0-0641ED917C2C";
metricLeft = "=S";
metricRight = "=S";
shapes = (
{
closed = 1;
nodes = (
(174,159,o),
(195,180,o),
(195,207,cs),
(195,233,o),
(174,254,o),
(148,254,cs),
(121,254,o),
(100,233,o),
(100,196,cs),
(101,83,o),
(208,-6,o),
(348,-6,cs),
(543,-6,o),
(643,92,o),
(643,226,cs),
(643,480,o),
(185,445,o),
(187,627,cs),
(188,736,o),
(270,787,o),
(382,787,cs),
(492,787,o),
(577,734,o),
(589,645,c),
(581,654,o),
(567,661,o),
(555,661,cs),
(527,661,o),
(507,641,o),
(507,613,cs),
(507,585,o),
(527,566,o),
(555,566,cs),
(580,566,o),
(600,585,o),
(602,613,cs),
(611,725,o),
(521,802,o),
(383,802,cs),
(230,802,o),
(127,738,o),
(127,627,cs),
(126,382,o),
(577,454,o),
(579,208,cs),
(580,78,o),
(463,14,o),
(348,14,cs),
(230,14,o),
(134,80,o),
(115,172,c),
(123,164,o),
(135,159,o),
(148,159,cs)
);
}
);
width = 743;
},
{
anchors = (
{
name = bottom;
pos = (359,0);
},
{
name = top;
pos = (359,800);
}
);
layerId = "2F0BCB80-3430-4FA1-A4A3-7C385E8DAA98";
metricLeft = "=S";
metricRight = "=S";
shapes = (
{
closed = 1;
nodes = (
(183,146,o),
(210,173,o),
(210,207,cs),
(210,239,o),
(183,266,o),
(150,266,cs),
(116,266,o),
(90,239,o),
(90,199,cs),
(90,92,o),
(189,-7,o),
(338,-4,cs),
(588,0,o),
(633,165,o),
(633,224,cs),
(633,497,o),
(197,430,o),
(197,622,cs),
(197,691,o),
(266,780,o),
(372,789,cs),
(458,796,o),
(556,763,o),
(568,669,c),
(558,677,o),
(546,681,o),
(533,681,cs),
(500,681,o),
(472,653,o),
(472,620,cs),
(472,587,o),
(500,561,o),
(533,561,cs),
(566,561,o),
(590,587,o),
(592,620,cs),
(597,706,o),
(554,811,o),
(373,809,cs),
(194,807,o),
(110,705,o),
(110,605,cs),
(110,349,o),
(548,430,o),
(547,199,cs),
(547,125,o),
(465,25,o),
(321,25,cs),
(213,25,o),
(141,88,o),
(117,156,c),
(126,150,o),
(138,146,o),
(150,146,cs)
);
}
);
width = 723;
},
{
anchors = (
{
name = bottom;
pos = (344,0);
},
{
name = top;
pos = (344,800);
}
);
hints = (
{
horizontal = 1;
place = (796,23);
type = Stem;
},
{
horizontal = 1;
place = (558,146);
type = Stem;
},
{
horizontal = 1;
place = (197,146);
type = Stem;
},
{
horizontal = 1;
place = (11,37);
type = Stem;
},
{
place = (402,169);
type = Stem;
},
{
place = (388,146);
type = Stem;
},
{
place = (51,157);
type = Stem;
},
{
place = (31,147);
type = Stem;
},
{
place = (31,23);
type = Stem;
},
{
horizontal = 1;
place = (796,23);
type = Stem;
},
{
horizontal = 1;
place = (558,146);
type = Stem;
},
{
horizontal = 1;
place = (-2,38);
type = Stem;
},
{
place = (501,33);
type = Stem;
},
{
place = (402,169);
type = Stem;
},
{
place = (388,146);
type = Stem;
},
{
place = (51,157);
type = Stem;
},
{
place = (31,21);
type = Stem;
}
);
layerId = m01;
metricLeft = "=S";
metricRight = "=S";
shapes = (
{
closed = 1;
nodes = (
(188,134,o),
(220,166,o),
(220,207,cs),
(220,247,o),
(188,279,o),
(148,279,cs),
(107,279,o),
(75,247,o),
(75,200,cs),
(75,93,o),
(175,-3,o),
(323,-2,cs),
(583,0,o),
(616,166,o),
(616,242,cs),
(616,496,o),
(235,440,o),
(235,632,cs),
(235,671,o),
(251,786,o),
(357,796,cs),
(459,805,o),
(541,749,o),
(544,694,c),
(532,701,o),
(519,704,o),
(505,704,cs),
(465,704,o),
(431,670,o),
(431,630,cs),
(431,589,o),
(465,558,o),
(505,558,cs),
(546,558,o),
(575,589,o),
(577,630,cs),
(580,711,o),
(539,821,o),
(358,819,cs),
(179,817,o),
(96,715,o),
(94,605,cs),
(89,338,o),
(477,392,o),
(477,198,cs),
(477,137,o),
(450,40,o),
(306,36,cs),
(210,33,o),
(141,83,o),
(112,143,c),
(123,137,o),
(135,134,o),
(148,134,cs)
);
}
);
width = 691;
},
{
anchors = (
{
name = bottom;
pos = (355,0);
},
{
name = top;
pos = (355,800);
}
);
hints = (
{
horizontal = 1;
place = (1095,32);
type = Stem;
},
{
horizontal = 1;
place = (767,201);
type = Stem;
},
{
horizontal = 1;
place = (271,201);
type = Stem;
},
{
horizontal = 1;
place = (15,51);
type = Stem;
},
{
place = (553,232);
type = Stem;
},
{
place = (534,201);
type = Stem;
},
{
place = (70,216);
type = Stem;
},
{
place = (43,202);
type = Stem;
},
{
place = (43,32);
type = Stem;
},
{
horizontal = 1;
place = (1095,32);
type = Stem;
},
{
horizontal = 1;
place = (767,201);
type = Stem;
},
{
horizontal = 1;
place = (-3,52);
type = Stem;
},
{
place = (689,45);
type = Stem;
},
{
place = (553,232);
type = Stem;
},
{
place = (534,201);
type = Stem;
},
{
place = (70,216);
type = Stem;
},
{
place = (43,29);
type = Stem;
}
);
layerId = "DFBD2966-8600-4091-87AD-36DB30ECE1CF";
metricLeft = "=S";
metricRight = "=S";
shapes = (
{
closed = 1;
nodes = (
(209,126,o),
(245,161,o),
(245,207,cs),
(245,251,o),
(209,286,o),
(165,286,cs),
(120,286,o),
(85,251,o),
(85,198,cs),
(85,96,o),
(184,3,o),
(333,-1,cs),
(590,-8,o),
(632,162,o),
(632,233,cs),
(632,482,o),
(256,438,o),
(250,649,cs),
(249,675,o),
(261,788,o),
(367,799,cs),
(473,809,o),
(550,748,o),
(549,706,c),
(536,713,o),
(523,715,o),
(509,715,cs),
(466,715,o),
(428,678,o),
(428,635,cs),
(428,590,o),
(466,556,o),
(509,556,cs),
(554,556,o),
(585,590,o),
(587,635,cs),
(589,711,o),
(554,826,o),
(368,824,cs),
(185,822,o),
(94,715,o),
(93,603,cs),
(91,310,o),
(453,376,o),
(453,161,cs),
(453,108,o),
(416,42,o),
(316,42,cs),
(230,42,o),
(165,82,o),
(133,131,c),
(142,128,o),
(153,126,o),
(165,126,cs)
);
}
);
width = 702;
}
);
},
{
color = 4;
glyphname = T.ss01;
lastChange = "2026-06-29 02:09:38 +0000";
layers = (
{
anchors = (
{
name = bottom;
pos = (344,0);
},
{
name = center;
pos = (344,400);
},
{
name = top;
pos = (344,800);
}
);
layerId = "E5DC9139-DBE8-45F6-BCD0-0641ED917C2C";
metricLeft = "=T";
metricRight = "=T";
shapes = (
{
closed = 1;
nodes = (
(378,0,l),
(378,800,l),
(310,800,l),
(310,0,l)
);
},
{
closed = 1;
nodes = (
(133,705,o),
(155,727,o),
(155,753,cs),
(155,779,o),
(133,800,o),
(107,800,cs),
(81,800,o),
(60,779,o),
(60,753,cs),
(60,727,o),
(81,705,o),
(107,705,cs)
);
},
{
closed = 1;
nodes = (
(320,790,l),
(320,800,l),
(107,800,l),
(107,790,l)
);
},
{
closed = 1;
nodes = (
(581,790,l),
(581,800,l),
(368,800,l),
(368,790,l)
);
},
{
closed = 1;
nodes = (
(607,705,o),
(628,727,o),
(628,753,cs),
(628,779,o),
(607,800,o),
(581,800,cs),
(555,800,o),
(533,779,o),
(533,753,cs),
(533,727,o),
(555,705,o),
(581,705,cs)
);
}
);
width = 688;
},
{
anchors = (
{
name = bottom;
pos = (373,0);
},
{
name = center;
pos = (373,400);
},
{
name = top;
pos = (373,800);
}
);
layerId = "2F0BCB80-3430-4FA1-A4A3-7C385E8DAA98";
metricLeft = "=T";
metricRight = "=T";
shapes = (
{
closed = 1;
nodes = (
(427,0,l),
(427,800,l),
(319,800,l),
(319,0,l)
);
},
{
closed = 1;
nodes = (
(147,680,o),
(175,708,o),
(175,741,cs),
(175,774,o),
(147,800,o),
(114,800,cs),
(81,800,o),
(55,774,o),
(55,741,cs),
(55,708,o),
(81,680,o),
(114,680,cs)
);
},
{
closed = 1;
nodes = (
(335,785,l),
(335,800,l),
(114,800,l),
(114,785,l)
);
},
{
closed = 1;
nodes = (
(632,785,l),
(632,800,l),
(411,800,l),
(411,785,l)
);
},
{
closed = 1;
nodes = (
(665,680,o),
(691,708,o),
(691,741,cs),
(691,774,o),
(665,800,o),
(632,800,cs),
(599,800,o),
(571,774,o),
(571,741,cs),
(571,708,o),
(599,680,o),
(632,680,cs)
);
}
);
width = 746;
},
{
anchors = (
{
name = bottom;
pos = (409,0);
},
{
name = center;
pos = (409,400);
},
{
name = top;
pos = (409,800);
}
);
hints = (
{
horizontal = 1;
place = (783,17);
type = Stem;
},
{
horizontal = 1;
place = (654,146);
type = Stem;
},
{
place = (597,146);
type = Stem;
},
{
place = (597,74);
type = Stem;
},
{
place = (428,25);
type = Stem;
},
{
place = (305,148);
type = Stem;
},
{
place = (305,25);
type = Stem;
},
{
place = (15,147);
type = Stem;
}
);
layerId = m01;
metricLeft = "=T";
metricRight = "=T";
shapes = (
{
closed = 1;
nodes = (
(483,0,l),
(483,800,l),
(335,800,l),
(335,0,l)
);
},
{
closed = 1;
nodes = (
(158,654,o),
(192,688,o),
(192,728,cs),
(192,769,o),
(158,800,o),
(117,800,cs),
(77,800,o),
(45,769,o),
(45,728,cs),
(45,688,o),
(77,654,o),
(117,654,cs)
);
},
{
closed = 1;
nodes = (
(360,783,l),
(360,800,l),
(117,800,l),
(117,783,l)
);
},
{
closed = 1;
nodes = (
(701,783,l),
(701,800,l),
(458,800,l),
(458,783,l)
);
},
{
closed = 1;
nodes = (
(742,654,o),
(773,688,o),
(773,728,cs),
(773,769,o),
(742,800,o),
(701,800,cs),
(661,800,o),
(627,769,o),
(627,728,cs),
(627,688,o),
(661,654,o),
(701,654,cs)
);
}
);
width = 818;
},
{
anchors = (
{
name = bottom;
pos = (425,0);
},
{
name = center;
pos = (425,400);
},
{
name = top;
pos = (425,800);
}
);
hints = (
{
horizontal = 1;
place = (1077,23);
type = Stem;
},
{
horizontal = 1;
place = (899,201);
type = Stem;
},
{
place = (821,201);
type = Stem;
},
{
place = (821,102);
type = Stem;
},
{
place = (589,34);
type = Stem;
},
{
place = (419,204);
type = Stem;
},
{
place = (419,34);
type = Stem;
},
{
place = (21,202);
type = Stem;
}
);
layerId = "DFBD2966-8600-4091-87AD-36DB30ECE1CF";
metricLeft = "=T";
metricRight = "=T";
shapes = (
{
closed = 1;
nodes = (
(509,0,l),
(509,800,l),
(341,800,l),
(341,0,l)
);
},
{
closed = 1;
nodes = (
(163,641,o),
(200,678,o),
(200,722,cs),
(200,767,o),
(163,800,o),
(118,800,cs),
(75,800,o),
(40,767,o),
(40,722,cs),
(40,678,o),
(75,641,o),
(118,641,cs)
);
},
{
closed = 1;
nodes = (
(370,782,l),
(370,800,l),
(118,800,l),
(118,782,l)
);
},
{
closed = 1;
nodes = (
(732,782,l),
(732,800,l),
(480,800,l),
(480,782,l)
);
},
{
closed = 1;
nodes = (
(777,641,o),
(811,678,o),
(811,722,cs),
(811,767,o),
(777,800,o),
(732,800,cs),
(689,800,o),
(652,767,o),
(652,722,cs),
(652,678,o),
(689,641,o),
(732,641,cs)
);
}
);
width = 851;
}
);
},
{
color = 4;
glyphname = V.ss01;
lastChange = "2026-06-29 02:09:48 +0000";
layers = (
{
anchors = (
{
name = bottom;
pos = (376,0);
},
{
name = top;
pos = (376,800);
}
);
layerId = "E5DC9139-DBE8-45F6-BCD0-0641ED917C2C";
metricLeft = "=V";
metricRight = "=V";
shapes = (
{
closed = 1;
nodes = (
(415,0,l),
(712,800,l),
(702,800,l),
(429,68,l),
(161,800,l),
(88,800,l),
(384,0,l)
);
},
{
closed = 1;
nodes = (
(114,705,o),
(135,726,o),
(135,752,cs),
(135,778,o),
(114,800,o),
(88,800,cs),
(62,800,o),
(40,778,o),
(40,752,cs),
(40,726,o),
(62,705,o),
(88,705,cs)
);
}
);
width = 752;
},
{
anchors = (
{
name = bottom;
pos = (390,0);
},
{
name = top;
pos = (390,800);
}
);
layerId = "2F0BCB80-3430-4FA1-A4A3-7C385E8DAA98";
metricLeft = "=V";
metricRight = "=V";
shapes = (
{
closed = 1;
nodes = (
(438,0,l),
(744,800,l),
(728,800,l),
(468,121,l),
(211,800,l),
(96,800,l),
(400,0,l)
);
},
{
closed = 1;
nodes = (
(129,680,o),
(155,706,o),
(155,739,cs),
(155,772,o),
(129,800,o),
(96,800,cs),
(63,800,o),
(35,772,o),
(35,739,cs),
(35,706,o),
(63,680,o),
(96,680,cs)
);
}
);
width = 779;
},
{
anchors = (
{
name = bottom;
pos = (402,0);
},
{
name = top;
pos = (402,800);
}
);
hints = (
{
horizontal = 1;
place = (654,146);
type = Stem;
},
{
place = (30,147);
type = Stem;
}
);
layerId = m01;
metricLeft = "=V";
metricRight = "=V";
shapes = (
{
closed = 1;
nodes = (
(459,0,l),
(778,800,l),
(759,800,l),
(507,172,l),
(257,800,l),
(100,800,l),
(416,0,l)
);
},
{
closed = 1;
nodes = (
(140,654,o),
(172,685,o),
(172,726,cs),
(172,766,o),
(140,800,o),
(100,800,cs),
(59,800,o),
(25,766,o),
(25,726,cs),
(25,685,o),
(59,654,o),
(100,654,cs)
);
}
);
width = 803;
},
{
anchors = (
{
name = bottom;
pos = (407,0);
},
{
name = top;
pos = (407,800);
}
);
hints = (
{
horizontal = 1;
place = (899,201);
type = Stem;
},
{
place = (41,202);
type = Stem;
}
);
layerId = "DFBD2966-8600-4091-87AD-36DB30ECE1CF";
metricLeft = "=V";
metricRight = "=V";
shapes = (
{
closed = 1;
nodes = (
(469,0,l),
(794,800,l),
(773,800,l),
(526,198,l),
(280,800,l),
(102,800,l),
(423,0,l)
);
},
{
closed = 1;
nodes = (
(145,641,o),
(180,675,o),
(180,720,cs),
(180,763,o),
(145,800,o),
(102,800,cs),
(57,800,o),
(20,763,o),
(20,720,cs),
(20,675,o),
(57,641,o),
(102,641,cs)
);
}
);
width = 814;
}
);
metricLeft = A;
},
{
color = 4;
glyphname = W.ss01;
lastChange = "2026-06-29 02:09:58 +0000";
layers = (
{
anchors = (
{
name = bottom;
pos = (574,0);
},
{
name = top;
pos = (574,800);
}
);
layerId = "E5DC9139-DBE8-45F6-BCD0-0641ED917C2C";
metricLeft = "=W";
metricRight = "=W";
shapes = (
{
closed = 1;
nodes = (
(404,0,l),
(596,538,l),
(790,0,l),
(819,0,l),
(1108,800,l),
(1097,800,l),
(835,75,l),
(574,800,l),
(502,800,l),
(591,552,l),
(420,76,l),
(160,800,l),
(87,800,l),
(375,0,l)
);
},
{
closed = 1;
nodes = (
(114,705,o),
(135,726,o),
(135,752,cs),
(135,778,o),
(114,800,o),
(88,800,cs),
(62,800,o),
(40,778,o),
(40,752,cs),
(40,726,o),
(62,705,o),
(88,705,cs)
);
},
{
closed = 1;
nodes = (
(528,705,o),
(549,726,o),
(549,752,cs),
(549,778,o),
(528,800,o),
(502,800,cs),
(476,800,o),
(454,778,o),
(454,752,cs),
(454,726,o),
(476,705,o),
(502,705,cs)
);
}
);
width = 1148;
},
{
anchors = (
{
name = bottom;
pos = (579,0);
},
{
name = top;
pos = (579,800);
}
);
layerId = "2F0BCB80-3430-4FA1-A4A3-7C385E8DAA98";
metricLeft = "=W";
metricRight = "=W";
shapes = (
{
closed = 1;
nodes = (
(418,0,l),
(608,530,l),
(799,0,l),
(833,0,l),
(1122,800,l),
(1106,800,l),
(866,135,l),
(626,800,l),
(511,800,l),
(600,552,l),
(451,135,l),
(211,800,l),
(96,800,l),
(384,0,l)
);
},
{
closed = 1;
nodes = (
(129,680,o),
(155,706,o),
(155,739,cs),
(155,772,o),
(129,800,o),
(96,800,cs),
(63,800,o),
(35,772,o),
(35,739,cs),
(35,706,o),
(63,680,o),
(96,680,cs)
);
},
{
closed = 1;
nodes = (
(544,680,o),
(570,706,o),
(570,739,cs),
(570,772,o),
(544,800,o),
(511,800,cs),
(478,800,o),
(450,772,o),
(450,739,cs),
(450,706,o),
(478,680,o),
(511,680,cs)
);
}
);
width = 1157;
},
{
anchors = (
{
name = bottom;
pos = (577,0);
},
{
name = top;
pos = (577,800);
}
);
hints = (
{
horizontal = 1;
place = (654,146);
type = Stem;
},
{
place = (446,146);
type = Stem;
},
{
place = (30,147);
type = Stem;
}
);
layerId = m01;
metricLeft = "=W";
metricRight = "=W";
shapes = (
{
closed = 1;
nodes = (
(425,0,l),
(614,526,l),
(803,0,l),
(840,0,l),
(1129,800,l),
(1110,800,l),
(892,194,l),
(673,800,l),
(515,800,l),
(604,552,l),
(477,194,l),
(257,800,l),
(100,800,l),
(388,0,l)
);
},
{
closed = 1;
nodes = (
(140,654,o),
(172,685,o),
(172,726,cs),
(172,766,o),
(140,800,o),
(100,800,cs),
(59,800,o),
(25,766,o),
(25,726,cs),
(25,685,o),
(59,654,o),
(100,654,cs)
);
},
{
closed = 1;
nodes = (
(556,654,o),
(587,685,o),
(587,726,cs),
(587,766,o),
(556,800,o),
(515,800,cs),
(475,800,o),
(441,766,o),
(441,726,cs),
(441,685,o),
(475,654,o),
(515,654,cs)
);
}
);
width = 1154;
},
{
anchors = (
{
name = bottom;
pos = (576,0);
},
{
name = top;
pos = (576,800);
}
);
hints = (
{
horizontal = 1;
place = (899,201);
type = Stem;
},
{
place = (613,201);
type = Stem;
},
{
place = (41,202);
type = Stem;
}
);
layerId = "DFBD2966-8600-4091-87AD-36DB30ECE1CF";
metricLeft = "=W";
metricRight = "=W";
shapes = (
{
closed = 1;
nodes = (
(428,0,l),
(617,524,l),
(805,0,l),
(843,0,l),
(1132,800,l),
(1112,800,l),
(905,224,l),
(696,800,l),
(517,800,l),
(606,552,l),
(490,224,l),
(280,800,l),
(102,800,l),
(390,0,l)
);
},
{
closed = 1;
nodes = (
(145,641,o),
(180,675,o),
(180,720,cs),
(180,763,o),
(145,800,o),
(102,800,cs),
(57,800,o),
(20,763,o),
(20,720,cs),
(20,675,o),
(57,641,o),
(102,641,cs)
);
},
{
closed = 1;
nodes = (
(562,641,o),
(595,675,o),
(595,720,cs),
(595,763,o),
(562,800,o),
(517,800,cs),
(473,800,o),
(436,763,o),
(436,720,cs),
(436,675,o),
(473,641,o),
(517,641,cs)
);
}
);
width = 1152;
}
);
metricLeft = A;
},
{
color = 4;
glyphname = X.ss01;
lastChange = "2026-06-29 02:10:07 +0000";
layers = (
{
anchors = (
{
name = bottom;
pos = (347,0);
},
{
name = top;
pos = (347,800);
}
);
layerId = "E5DC9139-DBE8-45F6-BCD0-0641ED917C2C";
metricLeft = "=X";
metricRight = "=X";
shapes = (
{
closed = 1;
nodes = (
(100,0,l),
(338,371,l),
(555,0,l),
(634,0,l),
(389,421,l),
(614,800,l),
(603,800,l),
(383,431,l),
(198,748,ls),
(168,800,o),
(130,803,o),
(111,793,cs),
(85,779,o),
(61,753,o),
(60,716,c),
(69,708,l),
(74,747,o),
(107,767,o),
(140,710,cs),
(333,380,l),
(88,0,l)
);
}
);
width = 694;
},
{
anchors = (
{
name = bottom;
pos = (363,0);
},
{
name = top;
pos = (363,800);
}
);
layerId = "2F0BCB80-3430-4FA1-A4A3-7C385E8DAA98";
metricLeft = "=X";
metricRight = "=X";
shapes = (
{
closed = 1;
nodes = (
(110,0,l),
(338,355,l),
(545,0,l),
(670,0,l),
(411,442,l),
(624,800,l),
(607,800,l),
(403,457,l),
(229,754,ls),
(196,810,o),
(147,814,o),
(111,794,cs),
(81,777,o),
(63,748,o),
(55,712,c),
(69,696,l),
(71,723,o),
(103,756,o),
(135,702,cs),
(329,369,l),
(92,0,l)
);
}
);
width = 725;
},
{
anchors = (
{
name = bottom;
pos = (392,0);
},
{
name = top;
pos = (392,800);
}
);
hints = (
{
horizontal = 1;
place = (717,93);
type = Stem;
},
{
place = (40,654);
type = Stem;
}
);
layerId = m01;
metricLeft = "=X";
metricRight = "=X";
shapes = (
{
closed = 1;
nodes = (
(133,0,l),
(351,340,l),
(548,0,l),
(719,0,l),
(446,464,l),
(647,800,l),
(627,800,l),
(438,481,l),
(275,756,ls),
(236,819,o),
(165,818,o),
(127,796,cs),
(94,776,o),
(84,740,o),
(65,705,c),
(85,679,l),
(83,690,o),
(108,751,o),
(145,690,cs),
(340,356,l),
(112,0,l)
);
}
);
width = 784;
},
{
anchors = (
{
name = bottom;
pos = (357,0);
},
{
name = top;
pos = (357,800);
}
);
hints = (
{
horizontal = 1;
place = (986,128);
type = Stem;
},
{
place = (55,899);
type = Stem;
}
);
layerId = "DFBD2966-8600-4091-87AD-36DB30ECE1CF";
metricLeft = "=V";
metricRight = "=V";
shapes = (
{
closed = 1;
nodes = (
(95,0,l),
(308,332,l),
(500,0,l),
(694,0,l),
(414,475,l),
(609,800,l),
(587,800,l),
(406,493,l),
(248,758,ls),
(207,823,o),
(126,821,o),
(85,797,cs),
(51,776,o),
(44,736,o),
(20,702,c),
(43,671,l),
(40,674,o),
(62,747,o),
(100,685,cs),
(296,350,l),
(72,0,l)
);
}
);
width = 714;
}
);
metricLeft = A;
},
{
color = 4;
glyphname = a;
lastChange = "2026-06-29 23:41:29 +0000";
layers = (
{
anchors = (
{
name = bottom;
pos = (340,0);
},
{
name = ogonek;
pos = (555,10);
},
{
name = top;
pos = (340,500);
}
);
guides = (
{
pos = (499,583);
},
{
pos = (499,667);
},
{
pos = (633,1103);
}
);
layerId = "E5DC9139-DBE8-45F6-BCD0-0641ED917C2C";
shapes = (
{
closed = 1;
nodes = (
(502,83,l),
(502,370,ls),
(502,479,o),
(429,514,o),
(327,514,cs),
(223,514,o),
(138,465,o),
(138,397,c),
(153,397,l),
(154,465,o),
(239,501,o),
(327,501,cs),
(412,501,o),
(434,440,o),
(434,370,cs),
(434,83,l)
);
},
{
closed = 1;
nodes = (
(351,-5,o),
(415,22,o),
(447,52,c),
(448,79,l),
(443,54,o),
(394,19,o),
(299,19,cs),
(192,19,o),
(166,108,o),
(166,145,cs),
(166,332,o),
(377,246,o),
(434,330,c),
(434,368,l),
(434,326,o),
(397,318,o),
(311,311,cs),
(192,302,o),
(100,273,o),
(100,145,cs),
(100,76,o),
(136,-5,o),
(270,-5,cs)
);
},
{
angle = 180;
pos = (609,499);
ref = "light-top-term";
},
{
closed = 1;
nodes = (
(212,350,o),
(233,371,o),
(233,397,cs),
(233,423,o),
(212,445,o),
(186,445,cs),
(160,445,o),
(138,423,o),
(138,397,cs),
(138,371,o),
(160,350,o),
(186,350,cs)
);
}
);
width = 669;
},
{
anchors = (
{
name = bottom;
pos = (351,0);
},
{
name = ogonek;
pos = (576,10);
},
{
name = top;
pos = (351,500);
}
);
guides = (
{
angle = 180;
pos = (-1126,146);
showMeasurement = 1;
},
{
pos = (-1126,146);
}
);
layerId = "2F0BCB80-3430-4FA1-A4A3-7C385E8DAA98";
shapes = (
{
closed = 1;
nodes = (
(525,90,l),
(525,371,ls),
(525,480,o),
(431,515,o),
(331,515,cs),
(233,515,o),
(141,466,o),
(141,398,c),
(158,398,l),
(158,457,o),
(231,497,o),
(320,499,cs),
(405,501,o),
(417,446,o),
(417,371,cs),
(417,90,l)
);
},
{
closed = 1;
nodes = (
(337,-8,o),
(395,17,o),
(430,53,c),
(430,78,l),
(428,67,o),
(385,27,o),
(323,20,cs),
(251,12,o),
(192,70,o),
(195,152,cs),
(200,301,o),
(367,255,o),
(418,325,c),
(417,369,l),
(417,327,o),
(383,322,o),
(294,312,cs),
(195,301,o),
(100,274,o),
(100,146,cs),
(100,77,o),
(139,1,o),
(253,-4,cs)
);
},
{
angle = 180;
pos = (632,499);
ref = "light-top-term";
},
{
closed = 1;
nodes = (
(232,340,o),
(258,366,o),
(258,398,cs),
(258,430,o),
(232,457,o),
(200,457,cs),
(168,457,o),
(141,430,o),
(141,398,cs),
(141,366,o),
(168,340,o),
(200,340,cs)
);
}
);
width = 692;
},
{
anchors = (
{
name = bottom;
pos = (357,0);
},
{
name = ogonek;
pos = (587,10);
},
{
name = top;
pos = (357,500);
}
);
hints = (
{
horizontal = 1;
place = (497,19);
type = Stem;
},
{
horizontal = 1;
place = (399,70);
type = Stem;
},
{
horizontal = 1;
place = (330,139);
type = Stem;
},
{
horizontal = 1;
place = (54,46);
type = Stem;
},
{
horizontal = 1;
place = (-4,104);
type = Stem;
},
{
place = (331,136);
type = Stem;
},
{
place = (319,148);
type = Stem;
},
{
place = (319,12.5);
type = Stem;
},
{
place = (73,139);
type = Stem;
},
{
place = (73,18);
type = Stem;
},
{
place = (30,117);
type = Stem;
}
);
layerId = m01;
shapes = (
{
closed = 1;
nodes = (
(537,97,l),
(537,372,ls),
(537,481,o),
(432,513,o),
(333,516,cs),
(231,519,o),
(143,467,o),
(143,399,c),
(161,399,l),
(160,453,o),
(233,493,o),
(286,496,cs),
(385,502,o),
(389,454,o),
(389,372,cs),
(389,97,l)
);
},
{
closed = 1;
nodes = (
(330,-4,o),
(366,5,o),
(400,53,c),
(391,112,l),
(390,107,o),
(390,21,o),
(303,21,cs),
(238,21,o),
(197,79,o),
(197,147,cs),
(197,284,o),
(342,246,o),
(391,321,c),
(389,370,l),
(389,328,o),
(359,327,o),
(266,313,cs),
(197,299,o),
(90,275,o),
(90,147,cs),
(90,72,o),
(143,-4,o),
(279,-4,cs)
);
},
{
angle = 180;
pos = (641,500);
ref = "light-top-term";
},
{
closed = 1;
nodes = (
(251,330,o),
(282,361,o),
(282,399,cs),
(282,437,o),
(251,469,o),
(213,469,cs),
(175,469,o),
(143,437,o),
(143,399,cs),
(143,361,o),
(175,330,o),
(213,330,cs)
);
}
);
width = 704;
},
{
anchors = (
{
name = bottom;
pos = (361,0);
},
{
name = ogonek;
pos = (594,10);
},
{
name = top;
pos = (361,500);
}
);
hints = (
{
horizontal = 1;
place = (683,26);
type = Stem;
},
{
horizontal = 1;
place = (549,96);
type = Stem;
},
{
horizontal = 1;
place = (454,191);
type = Stem;
},
{
horizontal = 1;
place = (74,63);
type = Stem;
},
{
horizontal = 1;
place = (-6,143);
type = Stem;
},
{
place = (455,187);
type = Stem;
},
{
place = (439,204);
type = Stem;
},
{
place = (439,17);
type = Stem;
},
{
place = (100,191);
type = Stem;
},
{
place = (100,25);
type = Stem;
},
{
place = (41,161);
type = Stem;
}
);
layerId = "DFBD2966-8600-4091-87AD-36DB30ECE1CF";
shapes = (
{
closed = 1;
nodes = (
(544,101,l),
(544,373,ls),
(544,482,o),
(433,517,o),
(324,517,cs),
(228,517,o),
(144,468,o),
(144,400,c),
(163,400,l),
(161,451,o),
(232,495,o),
(289,495,cs),
(376,495,o),
(376,458,o),
(376,373,cs),
(376,101,l)
);
},
{
closed = 1;
nodes = (
(308,-4,o),
(364,0,o),
(387,53,c),
(380,116,l),
(379,114,o),
(374,23,o),
(309,22,cs),
(264,21,o),
(224,69,o),
(223,139,cs),
(220,292,o),
(353,267,o),
(379,325,c),
(376,371,l),
(376,329,o),
(348,336,o),
(253,314,cs),
(197,301,o),
(90,276,o),
(90,148,cs),
(90,79,o),
(142,-4,o),
(282,-4,cs)
);
},
{
angle = 180;
pos = (647,500);
ref = "light-top-term";
},
{
closed = 1;
nodes = (
(261,325,o),
(294,359,o),
(294,400,cs),
(294,441,o),
(261,475,o),
(220,475,cs),
(179,475,o),
(144,441,o),
(144,400,cs),
(144,359,o),
(179,325,o),
(220,325,cs)
);
}
);
width = 711;
}
);
unicode = 97;
},
{
color = 4;
glyphname = b;
lastChange = "2026-06-29 01:34:37 +0000";
layers = (
{
anchors = (
{
name = bottom;
pos = (352,0);
},
{
name = center;
pos = (211,720);
},
{
name = top;
pos = (352,500);
}
);
guides = (
{
pos = (-3719,122);
},
{
pos = (1541,250);
}
);
hints = (
{
place = (532,30);
type = Stem;
},
{
place = (487,30);
type = Stem;
},
{
name = _corner.leftserifLC;
origin = (1,3);
type = Corner;
}
);
layerId = "E5DC9139-DBE8-45F6-BCD0-0641ED917C2C";
shapes = (
{
closed = 1;
nodes = (
(502,-12,o),
(604,92,o),
(604,251,cs),
(604,412,o),
(502,517,o),
(358,506,cs),
(300,502,o),
(244,463,o),
(224,411,cs),
(214,384,l),
(216,334,l),
(219,427,o),
(282,492,o),
(368,493,cs),
(465,493,o),
(534,393,o),
(536,251,cs),
(536,110,o),
(467,11,o),
(368,12,cs),
(282,13,o),
(219,78,o),
(216,171,c),
(214,121,l),
(224,94,ls),
(244,42,o),
(300,3,o),
(358,-1,cs)
);
},
{
closed = 1;
nodes = (
(235,0,l),
(235,700,l),
(167,708,l),
(167,0,l)
);
},
{
pos = (60,299);
ref = "bold-top-term";
}
);
width = 704;
},
{
anchors = (
{
name = bottom;
pos = (374,0);
},
{
name = center;
pos = (222,720);
},
{
name = top;
pos = (374,500);
}
);
hints = (
{
name = _corner.leftserifLC;
origin = (1,3);
type = Corner;
}
);
layerId = "2F0BCB80-3430-4FA1-A4A3-7C385E8DAA98";
shapes = (
{
closed = 1;
nodes = (
(536,-14,o),
(646,91,o),
(646,251,cs),
(646,411,o),
(536,515,o),
(380,503,cs),
(322,499,o),
(266,460,o),
(246,408,cs),
(236,381,l),
(237,320,l),
(240,417,o),
(303,486,o),
(390,486,cs),
(477,486,o),
(538,389,o),
(538,251,cs),
(538,112,o),
(477,15,o),
(390,15,cs),
(303,15,o),
(240,84,o),
(237,181,c),
(236,120,l),
(246,93,ls),
(266,41,o),
(322,2,o),
(380,-2,cs)
);
},
{
closed = 1;
nodes = (
(275,0,l),
(275,703,l),
(167,703,l),
(167,0,l)
);
},
{
pos = (60,299);
ref = "bold-top-term";
}
);
width = 746;
},
{
anchors = (
{
name = bottom;
pos = (395,0);
},
{
name = center;
pos = (233,720);
},
{
name = top;
pos = (395,500);
}
);
hints = (
{
place = (-259,15);
type = Stem;
},
{
place = (-281,15);
type = Stem;
},
{
name = _corner.leftserifLC;
origin = (1,3);
type = Corner;
}
);
layerId = m01;
shapes = (
{
closed = 1;
nodes = (
(565,-15,o),
(687,89,o),
(687,251,cs),
(687,411,o),
(565,515,o),
(391,502,cs),
(333,498,o),
(277,459,o),
(257,407,cs),
(247,380,l),
(248,313,l),
(251,413,o),
(314,483,o),
(401,483,cs),
(483,483,o),
(540,387,o),
(539,251,cs),
(539,114,o),
(482,17,o),
(401,17,cs),
(314,16,o),
(251,86,o),
(248,186,c),
(247,120,l),
(257,93,ls),
(277,41,o),
(333,2,o),
(391,-2,cs)
);
},
{
closed = 1;
nodes = (
(315,0,l),
(315,704,l),
(167,700,l),
(167,0,l)
);
},
{
pos = (63,298);
ref = "bold-top-term";
}
);
width = 787;
},
{
anchors = (
{
name = bottom;
pos = (406,0);
},
{
name = center;
pos = (239,720);
},
{
name = top;
pos = (406,500);
}
);
hints = (
{
place = (-423,17);
type = Stem;
},
{
place = (-447,17);
type = Stem;
},
{
name = _corner.leftserifLC;
origin = (1,3);
type = Corner;
}
);
layerId = "DFBD2966-8600-4091-87AD-36DB30ECE1CF";
shapes = (
{
closed = 1;
nodes = (
(581,-16,o),
(708,88,o),
(708,251,cs),
(708,411,o),
(581,515,o),
(398,501,cs),
(340,497,o),
(284,458,o),
(264,406,cs),
(254,379,l),
(255,309,l),
(258,411,o),
(322,481,o),
(408,481,cs),
(487,481,o),
(541,385,o),
(540,251,cs),
(540,115,o),
(484,18,o),
(408,18,cs),
(322,17,o),
(258,87,o),
(255,189,c),
(254,120,l),
(264,93,ls),
(284,41,o),
(340,2,o),
(398,-2,cs)
);
},
{
closed = 1;
nodes = (
(335,0,l),
(335,705,l),
(167,698,l),
(167,0,l)
);
},
{
pos = (64,298);
ref = "bold-top-term";
}
);
width = 808;
}
);
metricLeft = "=100";
unicode = 98;
},
{
color = 4;
glyphname = c;
lastChange = "2026-06-29 01:34:37 +0000";
layers = (
{
anchors = (
{
name = bottom;
pos = (300,0);
},
{
name = top;
pos = (300,500);
}
);
layerId = "E5DC9139-DBE8-45F6-BCD0-0641ED917C2C";
shapes = (
{
closed = 1;
nodes = (
(432,-1,o),
(500,74,o),
(500,181,c),
(488,181,l),
(487,82,o),
(424,13,o),
(336,13,cs),
(231,13,o),
(158,106,o),
(158,251,cs),
(158,397,o),
(233,492,o),
(340,493,cs),
(422,494,o),
(479,446,o),
(479,376,c),
(491,376,l),
(492,451,o),
(428,505,o),
(336,506,cs),
(192,507,o),
(90,407,o),
(90,251,cs),
(90,98,o),
(192,-1,o),
(336,-1,cs)
);
},
{
closed = 1;
nodes = (
(472,329,o),
(491,348,o),
(491,376,cs),
(491,404,o),
(472,424,o),
(444,424,cs),
(416,424,o),
(396,404,o),
(396,376,cs),
(396,348,o),
(416,329,o),
(444,329,cs)
);
}
);
width = 600;
},
{
anchors = (
{
name = bottom;
pos = (313,0);
},
{
name = top;
pos = (313,500);
}
);
layerId = "2F0BCB80-3430-4FA1-A4A3-7C385E8DAA98";
shapes = (
{
closed = 1;
nodes = (
(449,-3,o),
(516,74,o),
(516,183,c),
(501,183,l),
(501,82,o),
(440,11,o),
(353,11,cs),
(268,11,o),
(198,105,o),
(198,252,cs),
(198,394,o),
(269,488,o),
(355,491,cs),
(435,494,o),
(492,451,o),
(492,387,c),
(508,387,l),
(508,455,o),
(445,504,o),
(355,506,cs),
(211,509,o),
(100,409,o),
(100,251,cs),
(100,94,o),
(210,-6,o),
(353,-4,cs)
);
},
{
closed = 1;
nodes = (
(484,329,o),
(508,353,o),
(508,387,cs),
(508,422,o),
(484,446,o),
(450,446,cs),
(415,446,o),
(391,422,o),
(391,387,cs),
(391,353,o),
(415,329,o),
(450,329,cs)
);
}
);
width = 616;
},
{
anchors = (
{
name = bottom;
pos = (330,0);
},
{
name = top;
pos = (330,500);
}
);
hints = (
{
horizontal = 1;
place = (490,16);
type = Stem;
},
{
horizontal = 1;
place = (398,70);
type = Stem;
},
{
horizontal = 1;
place = (329,139);
type = Stem;
},
{
horizontal = 1;
place = (-7,15);
type = Stem;
},
{
place = (424,16);
type = Stem;
},
{
place = (407,19);
type = Stem;
},
{
place = (30,123);
type = Stem;
}
);
layerId = m01;
shapes = (
{
closed = 1;
nodes = (
(476,-5,o),
(540,75,o),
(540,186,c),
(524,186,l),
(526,83,o),
(468,10,o),
(384,10,cs),
(295,10,o),
(233,106,o),
(233,254,cs),
(233,391,o),
(293,483,o),
(379,490,cs),
(454,494,o),
(507,456,o),
(507,398,c),
(526,398,l),
(525,459,o),
(467,504,o),
(386,506,cs),
(218,511,o),
(100,410,o),
(100,251,cs),
(100,86,o),
(217,-16,o),
(384,-7,cs)
);
},
{
closed = 1;
nodes = (
(498,329,o),
(526,357,o),
(526,398,cs),
(526,439,o),
(498,468,o),
(457,468,cs),
(416,468,o),
(387,439,o),
(387,398,cs),
(387,357,o),
(416,329,o),
(457,329,cs)
);
}
);
width = 640;
},
{
anchors = (
{
name = bottom;
pos = (338,0);
},
{
name = top;
pos = (338,500);
}
);
hints = (
{
horizontal = 1;
place = (674,22);
type = Stem;
},
{
horizontal = 1;
place = (547,96);
type = Stem;
},
{
horizontal = 1;
place = (452,191);
type = Stem;
},
{
horizontal = 1;
place = (-10,21);
type = Stem;
},
{
place = (583,22);
type = Stem;
},
{
place = (560,26);
type = Stem;
},
{
place = (41,169);
type = Stem;
}
);
layerId = "DFBD2966-8600-4091-87AD-36DB30ECE1CF";
shapes = (
{
closed = 1;
nodes = (
(487,-6,o),
(551,75,o),
(551,187,c),
(534,187,l),
(537,83,o),
(481,9,o),
(398,9,cs),
(310,9,o),
(251,106,o),
(251,255,cs),
(251,390,o),
(307,481,o),
(390,489,cs),
(464,494,o),
(514,459,o),
(514,404,c),
(535,404,l),
(533,462,o),
(477,504,o),
(400,506,cs),
(223,512,o),
(101,411,o),
(101,251,cs),
(101,83,o),
(221,-20,o),
(398,-8,cs)
);
},
{
closed = 1;
nodes = (
(505,329,o),
(535,359,o),
(535,404,cs),
(535,448,o),
(505,479,o),
(460,479,cs),
(416,479,o),
(385,448,o),
(385,404,cs),
(385,359,o),
(416,329,o),
(460,329,cs)
);
}
);
width = 651;
}
);
unicode = 99;
},
{
color = 4;
glyphname = e;
lastChange = "2026-06-29 21:20:45 +0000";
layers = (
{
anchors = (
{
name = bottom;
pos = (320,0);
},
{
name = ogonek;
pos = (519,10);
},
{
name = top;
pos = (320,500);
}
);
layerId = "E5DC9139-DBE8-45F6-BCD0-0641ED917C2C";
shapes = (
{
closed = 1;
nodes = (
(463,-7,o),
(539,65,o),
(539,180,c),
(529,180,l),
(529,71,o),
(457,3,o),
(343,3,cs),
(235,3,o),
(168,98,o),
(168,249,cs),
(168,262,o),
(168,273,o),
(169,286,c),
(538,286,l),
(538,419,o),
(460,503,o),
(335,503,cs),
(191,503,o),
(100,405,o),
(100,248,cs),
(100,91,o),
(194,-7,o),
(343,-7,cs)
);
},
{
closed = 1;
nodes = (
(183,417,o),
(243,490,o),
(335,490,cs),
(413,490,o),
(463,416,o),
(467,296,c),
(170,296,l)
);
}
);
width = 639;
},
{
anchors = (
{
name = bottom;
pos = (320,0);
},
{
name = ogonek;
pos = (520,10);
},
{
name = top;
pos = (320,500);
}
);
layerId = "2F0BCB80-3430-4FA1-A4A3-7C385E8DAA98";
shapes = (
{
closed = 1;
nodes = (
(464,-7,o),
(540,65,o),
(540,180,c),
(525,180,l),
(525,74,o),
(455,8,o),
(343,8,cs),
(260,8,o),
(208,101,o),
(208,249,cs),
(208,262,o),
(208,273,o),
(209,286,c),
(538,286,l),
(538,419,o),
(460,503,o),
(330,503,cs),
(191,503,o),
(100,405,o),
(100,248,cs),
(100,91,o),
(194,-7,o),
(343,-7,cs)
);
},
{
closed = 1;
nodes = (
(221,419,o),
(265,488,o),
(330,488,cs),
(388,488,o),
(426,418,o),
(430,306,c),
(211,306,l)
);
}
);
width = 640;
},
{
anchors = (
{
name = bottom;
pos = (331,0);
},
{
name = ogonek;
pos = (596,10);
},
{
name = top;
pos = (331,500);
}
);
hints = (
{
horizontal = 1;
place = (487,16);
type = Stem;
},
{
horizontal = 1;
place = (286,30);
type = Stem;
},
{
horizontal = 1;
place = (-7,18);
type = Stem;
},
{
place = (454,18);
type = Stem;
},
{
place = (322,146);
type = Stem;
},
{
place = (122,56);
type = Stem;
},
{
place = (30,148);
type = Stem;
}
);
layerId = m01;
shapes = (
{
closed = 1;
nodes = (
(485,-7,o),
(562,65,o),
(562,180,c),
(544,180,l),
(544,76,o),
(481,11,o),
(380,11,cs),
(305,11,o),
(258,103,o),
(258,249,cs),
(258,262,o),
(258,273,o),
(259,286,c),
(558,286,l),
(558,419,o),
(480,503,o),
(343,503,cs),
(198,503,o),
(100,405,o),
(100,248,cs),
(100,91,o),
(201,-7,o),
(363,-7,cs)
);
},
{
closed = 1;
nodes = (
(267,418,o),
(298,487,o),
(343,487,cs),
(384,487,o),
(410,418,o),
(412,306,c),
(260,306,l)
);
}
);
width = 662;
},
{
anchors = (
{
name = bottom;
pos = (335,0);
},
{
name = ogonek;
pos = (625,10);
},
{
name = top;
pos = (335,500);
}
);
hints = (
{
horizontal = 1;
place = (670,22);
type = Stem;
},
{
horizontal = 1;
place = (393,41);
type = Stem;
},
{
horizontal = 1;
place = (-10,25);
type = Stem;
},
{
place = (624,25);
type = Stem;
},
{
place = (443,201);
type = Stem;
},
{
place = (168,77);
type = Stem;
},
{
place = (41,204);
type = Stem;
}
);
layerId = "DFBD2966-8600-4091-87AD-36DB30ECE1CF";
shapes = (
{
closed = 1;
nodes = (
(493,-7,o),
(570,65,o),
(570,180,c),
(551,180,l),
(551,77,o),
(491,13,o),
(394,13,cs),
(325,13,o),
(282,104,o),
(282,249,cs),
(282,262,o),
(282,273,o),
(283,286,c),
(566,286,l),
(566,419,o),
(488,503,o),
(347,503,cs),
(201,503,o),
(100,405,o),
(100,248,cs),
(100,91,o),
(204,-7,o),
(371,-7,cs)
);
},
{
closed = 1;
nodes = (
(289,417,o),
(313,486,o),
(347,486,cs),
(379,486,o),
(399,419,o),
(401,307,c),
(284,307,l)
);
}
);
width = 670;
}
);
unicode = 101;
},
{
color = 4;
glyphname = f;
lastChange = "2026-06-29 01:34:54 +0000";
layers = (
{
anchors = (
{
name = bottom;
pos = (284,0);
},
{
name = top;
pos = (284,900);
}
);
hints = (
{
name = _corner.leftserifLC;
options = 1;
origin = (0,0);
scale = (-1,1);
type = Corner;
},
{
name = _corner.leftserifLC;
origin = (0,15);
type = Corner;
}
);
layerId = "E5DC9139-DBE8-45F6-BCD0-0641ED917C2C";
shapes = (
{
closed = 1;
nodes = (
(218,0,l),
(218,579,ls),
(218,639,o),
(211,787,o),
(330,787,cs),
(395,787,o),
(419,744,o),
(422,739,cs),
(435,720,l),
(435,780,o),
(369,799,o),
(330,799,cs),
(183,799,o),
(150,699,o),
(150,525,cs),
(150,0,l)
);
},
{
closed = 1;
nodes = (
(309,581,l),
(309,591,l),
(102,591,l),
(102,581,l)
);
},
{
closed = 1;
nodes = (
(414,672,o),
(435,693,o),
(435,719,cs),
(435,745,o),
(414,767,o),
(388,767,cs),
(362,767,o),
(340,745,o),
(340,719,cs),
(340,693,o),
(362,672,o),
(388,672,cs)
);
}
);
width = 535;
},
{
anchors = (
{
name = bottom;
pos = (292,0);
},
{
name = top;
pos = (292,900);
}
);
hints = (
{
name = _corner.leftserifLC;
options = 1;
origin = (0,0);
scale = (-1,1);
type = Corner;
},
{
name = _corner.leftserifLC;
origin = (0,15);
type = Corner;
}
);
layerId = "2F0BCB80-3430-4FA1-A4A3-7C385E8DAA98";
shapes = (
{
closed = 1;
nodes = (
(266,0,l),
(266,580,ls),
(266,640,o),
(259,778,o),
(348,778,cs),
(404,778,o),
(385,734,o),
(423,735,c),
(453,721,l),
(453,781,o),
(387,800,o),
(348,800,cs),
(201,800,o),
(158,700,o),
(158,526,cs),
(158,0,l)
);
},
{
closed = 1;
nodes = (
(337,577,l),
(337,592,l),
(100,592,l),
(100,577,l)
);
},
{
closed = 1;
nodes = (
(427,666,o),
(453,690,o),
(453,721,cs),
(453,751,o),
(427,776,o),
(397,776,cs),
(367,776,o),
(343,751,o),
(343,721,cs),
(343,690,o),
(367,666,o),
(397,666,cs)
);
}
);
width = 553;
},
{
anchors = (
{
name = bottom;
pos = (275,0);
},
{
name = top;
pos = (275,900);
}
);
hints = (
{
horizontal = 1;
place = (681,27);
type = Stem;
},
{
horizontal = 1;
place = (681,9);
type = Stem;
},
{
horizontal = 1;
place = (483,17);
type = Stem;
},
{
place = (258.25,89.75);
type = Stem;
},
{
place = (227,121);
type = Stem;
},
{
place = (48,148);
type = Stem;
},
{
place = (30,166);
type = Stem;
},
{
name = _corner.leftserifLC;
options = 1;
origin = (0,0);
scale = (-1,1);
type = Corner;
},
{
name = _corner.leftserifLC;
origin = (0,15);
type = Corner;
}
);
layerId = m01;
shapes = (
{
closed = 1;
nodes = (
(298,0,l),
(298,583,ls),
(298,643,o),
(291,778,o),
(345,778,cs),
(390,778,o),
(386,731,o),
(386,708,c),
(460,724,l),
(460,784,o),
(394,803,o),
(345,803,cs),
(198,803,o),
(150,703,o),
(150,529,cs),
(150,0,l)
);
},
{
closed = 1;
nodes = (
(359,578,l),
(359,595,l),
(102,595,l),
(102,578,l)
);
},
{
closed = 1;
nodes = (
(430,664,o),
(460,689,o),
(460,725,cs),
(460,758,o),
(430,785,o),
(397,785,cs),
(364,785,o),
(339,758,o),
(339,725,cs),
(339,689,o),
(364,664,o),
(397,664,cs)
);
}
);
width = 560;
},
{
anchors = (
{
name = bottom;
pos = (272,0);
},
{
name = top;
pos = (272,900);
}
);
hints = (
{
name = _corner.leftserifLC;
options = 1;
origin = (0,0);
scale = (-1,1);
type = Corner;
},
{
name = _corner.leftserifLC;
origin = (0,15);
type = Corner;
}
);
layerId = "DFBD2966-8600-4091-87AD-36DB30ECE1CF";
shapes = (
{
closed = 1;
nodes = (
(318,0,l),
(318,584,ls),
(318,644,o),
(311,777,o),
(348,777,cs),
(388,777,o),
(384,729,o),
(374,697,cs),
(467,725,l),
(467,785,o),
(401,804,o),
(348,804,cs),
(201,804,o),
(150,704,o),
(150,530,cs),
(150,0,l)
);
},
{
closed = 1;
nodes = (
(373,578,l),
(373,596,l),
(105,596,l),
(105,578,l)
);
},
{
closed = 1;
nodes = (
(435,663,o),
(467,688,o),
(467,727,cs),
(467,761,o),
(435,790,o),
(400,790,cs),
(366,790,o),
(340,761,o),
(340,727,cs),
(340,688,o),
(366,663,o),
(400,663,cs)
);
}
);
width = 567;
}
);
metricLeft = "=100";
metricRight = "=100";
unicode = 102;
},
